<?xml version="1.0" encoding="UTF-8" standalone="no"?>
<!DOCTYPE svg PUBLIC "-//W3C//DTD SVG 1.1//EN"
 "http://www.w3.org/Graphics/SVG/1.1/DTD/svg11.dtd">
<!-- Generated by graphviz version 2.49.1 (20210923.0004)
 -->
<!-- Pages: 1 -->
<svg width="278pt" height="332pt"
 viewBox="0.00 0.00 278.00 332.00" xmlns="http://www.w3.org/2000/svg" xmlns:xlink="http://www.w3.org/1999/xlink">
<g id="graph0" class="graph" transform="scale(1 1) rotate(0) translate(4 328)">
<polygon fill="white" stroke="transparent" points="-4,4 -4,-328 274,-328 274,4 -4,4"/>
<!-- B -->
<g id="node1" class="node">
<title>B</title>
<ellipse fill="none" stroke="black" cx="243" cy="-90" rx="27" ry="18"/>
<text text-anchor="middle" x="243" y="-86.3" font-family="Times,serif" font-size="14.00">B</text>
</g>
<!-- A -->
<g id="node2" class="node">
<title>A</title>
<ellipse fill="none" stroke="black" cx="207" cy="-18" rx="27" ry="18"/>
<text text-anchor="middle" x="207" y="-14.3" font-family="Times,serif" font-size="14.00">A</text>
</g>
<!-- B&#45;&#45;A -->
<g id="edge1" class="edge">
<title>B&#45;&#45;A</title>
<path fill="none" stroke="black" d="M234.65,-72.76C228.83,-61.46 221.11,-46.44 215.3,-35.15"/>
</g>
<!-- C -->
<g id="node3" class="node">
<title>C</title>
<ellipse fill="none" stroke="black" cx="171" cy="-90" rx="27" ry="18"/>
<text text-anchor="middle" x="171" y="-86.3" font-family="Times,serif" font-size="14.00">C</text>
</g>
<!-- C&#45;&#45;A -->
<g id="edge2" class="edge">
<title>C&#45;&#45;A</title>
<path fill="none" stroke="black" d="M179.35,-72.76C185.17,-61.46 192.89,-46.44 198.7,-35.15"/>
</g>
<!-- D -->
<g id="node4" class="node">
<title>D</title>
<ellipse fill="none" stroke="black" cx="243" cy="-162" rx="27" ry="18"/>
<text text-anchor="middle" x="243" y="-158.3" font-family="Times,serif" font-size="14.00">D</text>
</g>
<!-- D&#45;&#45;B -->
<g id="edge3" class="edge">
<title>D&#45;&#45;B</title>
<path fill="none" stroke="black" d="M243,-143.7C243,-132.85 243,-118.92 243,-108.1"/>
</g>
<!-- E -->
<g id="node5" class="node">
<title>E</title>
<ellipse fill="none" stroke="black" cx="99" cy="-162" rx="27" ry="18"/>
<text text-anchor="middle" x="99" y="-158.3" font-family="Times,serif" font-size="14.00">E</text>
</g>
<!-- E&#45;&#45;C -->
<g id="edge4" class="edge">
<title>E&#45;&#45;C</title>
<path fill="none" stroke="black" d="M113.57,-146.83C125.98,-134.77 143.73,-117.51 156.2,-105.38"/>
</g>
<!-- H -->
<g id="node6" class="node">
<title>H</title>
<ellipse fill="none" stroke="black" cx="171" cy="-162" rx="27" ry="18"/>
<text text-anchor="middle" x="171" y="-158.3" font-family="Times,serif" font-size="14.00">H</text>
</g>
<!-- H&#45;&#45;C -->
<g id="edge5" class="edge">
<title>H&#45;&#45;C</title>
<path fill="none" stroke="black" d="M171,-143.7C171,-132.85 171,-118.92 171,-108.1"/>
</g>
<!-- F -->
<g id="node7" class="node">
<title>F</title>
<ellipse fill="none" stroke="black" cx="243" cy="-234" rx="27" ry="18"/>
<text text-anchor="middle" x="243" y="-230.3" font-family="Times,serif" font-size="14.00">F</text>
</g>
<!-- F&#45;&#45;D -->
<g id="edge6" class="edge">
<title>F&#45;&#45;D</title>
<path fill="none" stroke="black" d="M243,-215.7C243,-204.85 243,-190.92 243,-180.1"/>
</g>
<!-- J -->
<g id="node8" class="node">
<title>J</title>
<ellipse fill="none" stroke="black" cx="99" cy="-234" rx="27" ry="18"/>
<text text-anchor="middle" x="99" y="-230.3" font-family="Times,serif" font-size="14.00">J</text>
</g>
<!-- J&#45;&#45;E -->
<g id="edge7" class="edge">
<title>J&#45;&#45;E</title>
<path fill="none" stroke="black" d="M99,-215.7C99,-204.85 99,-190.92 99,-180.1"/>
</g>
<!-- G -->
<g id="node9" class="node">
<title>G</title>
<ellipse fill="none" stroke="black" cx="171" cy="-234" rx="27" ry="18"/>
<text text-anchor="middle" x="171" y="-230.3" font-family="Times,serif" font-size="14.00">G</text>
</g>
<!-- G&#45;&#45;H -->
<g id="edge8" class="edge">
<title>G&#45;&#45;H</title>
<path fill="none" stroke="black" d="M171,-215.7C171,-204.85 171,-190.92 171,-180.1"/>
</g>
<!-- L -->
<g id="node10" class="node">
<title>L</title>
<ellipse fill="none" stroke="black" cx="27" cy="-306" rx="27" ry="18"/>
<text text-anchor="middle" x="27" y="-302.3" font-family="Times,serif" font-size="14.00">L</text>
</g>
<!-- L&#45;&#45;J -->
<g id="edge9" class="edge">
<title>L&#45;&#45;J</title>
<path fill="none" stroke="black" d="M41.57,-290.83C53.98,-278.77 71.73,-261.51 84.2,-249.38"/>
</g>
<!-- K -->
<g id="node11" class="node">
<title>K</title>
<ellipse fill="none" stroke="black" cx="99" cy="-306" rx="27" ry="18"/>
<text text-anchor="middle" x="99" y="-302.3" font-family="Times,serif" font-size="14.00">K</text>
</g>
<!-- K&#45;&#45;J -->
<g id="edge10" class="edge">
<title>K&#45;&#45;J</title>
<path fill="none" stroke="black" d="M99,-287.7C99,-276.85 99,-262.92 99,-252.1"/>
</g>
<!-- I -->
<g id="node12" class="node">
<title>I</title>
<ellipse fill="none" stroke="black" cx="171" cy="-306" rx="27" ry="18"/>
<text text-anchor="middle" x="171" y="-302.3" font-family="Times,serif" font-size="14.00">I</text>
</g>
<!-- I&#45;&#45;G -->
<g id="edge11" class="edge">
<title>I&#45;&#45;G</title>
<path fill="none" stroke="black" d="M171,-287.7C171,-276.85 171,-262.92 171,-252.1"/>
</g>
</g>
</svg>
