<?xml version="1.0" encoding="UTF-8" standalone="no"?>
<!DOCTYPE svg PUBLIC "-//W3C//DTD SVG 1.1//EN"
 "http://www.w3.org/Graphics/SVG/1.1/DTD/svg11.dtd">
<!-- Generated by graphviz version 8.1.0 (0)
 -->
<!-- Pages: 1 -->
<svg width="242pt" height="332pt"
 viewBox="0.00 0.00 242.00 332.00" xmlns="http://www.w3.org/2000/svg" xmlns:xlink="http://www.w3.org/1999/xlink">
<g id="graph0" class="graph" transform="scale(1 1) rotate(0) translate(4 328)">
<polygon fill="white" stroke="none" points="-4,4 -4,-328 238,-328 238,4 -4,4"/>
<!-- A -->
<g id="node1" class="node">
<title>A</title>
<ellipse fill="none" stroke="black" cx="171" cy="-306" rx="27" ry="18"/>
<text text-anchor="middle" x="171" y="-300.95" font-family="Times,serif" font-size="14.00">A</text>
</g>
<!-- C -->
<g id="node2" class="node">
<title>C</title>
<ellipse fill="none" stroke="black" cx="135" cy="-234" rx="27" ry="18"/>
<text text-anchor="middle" x="135" y="-228.95" font-family="Times,serif" font-size="14.00">C</text>
</g>
<!-- A&#45;&#45;C -->
<g id="edge1" class="edge">
<title>A&#45;&#45;C</title>
<path fill="none" stroke="black" d="M162.65,-288.76C156.83,-277.46 149.11,-262.44 143.3,-251.15"/>
</g>
<!-- B -->
<g id="node3" class="node">
<title>B</title>
<ellipse fill="none" stroke="black" cx="207" cy="-234" rx="27" ry="18"/>
<text text-anchor="middle" x="207" y="-228.95" font-family="Times,serif" font-size="14.00">B</text>
</g>
<!-- A&#45;&#45;B -->
<g id="edge2" class="edge">
<title>A&#45;&#45;B</title>
<path fill="none" stroke="black" d="M179.35,-288.76C185.17,-277.46 192.89,-262.44 198.7,-251.15"/>
</g>
<!-- E -->
<g id="node4" class="node">
<title>E</title>
<ellipse fill="none" stroke="black" cx="63" cy="-162" rx="27" ry="18"/>
<text text-anchor="middle" x="63" y="-156.95" font-family="Times,serif" font-size="14.00">E</text>
</g>
<!-- C&#45;&#45;E -->
<g id="edge3" class="edge">
<title>C&#45;&#45;E</title>
<path fill="none" stroke="black" d="M120.08,-218.5C107.72,-206.48 90.25,-189.49 77.9,-177.49"/>
</g>
<!-- D -->
<g id="node5" class="node">
<title>D</title>
<ellipse fill="none" stroke="black" cx="135" cy="-162" rx="27" ry="18"/>
<text text-anchor="middle" x="135" y="-156.95" font-family="Times,serif" font-size="14.00">D</text>
</g>
<!-- C&#45;&#45;D -->
<g id="edge4" class="edge">
<title>C&#45;&#45;D</title>
<path fill="none" stroke="black" d="M135,-215.7C135,-204.85 135,-190.92 135,-180.1"/>
</g>
<!-- H -->
<g id="node6" class="node">
<title>H</title>
<ellipse fill="none" stroke="black" cx="207" cy="-162" rx="27" ry="18"/>
<text text-anchor="middle" x="207" y="-156.95" font-family="Times,serif" font-size="14.00">H</text>
</g>
<!-- C&#45;&#45;H -->
<g id="edge5" class="edge">
<title>C&#45;&#45;H</title>
<path fill="none" stroke="black" d="M149.92,-218.5C162.28,-206.48 179.75,-189.49 192.1,-177.49"/>
</g>
<!-- J -->
<g id="node7" class="node">
<title>J</title>
<ellipse fill="none" stroke="black" cx="27" cy="-90" rx="27" ry="18"/>
<text text-anchor="middle" x="27" y="-84.95" font-family="Times,serif" font-size="14.00">J</text>
</g>
<!-- E&#45;&#45;J -->
<g id="edge6" class="edge">
<title>E&#45;&#45;J</title>
<path fill="none" stroke="black" d="M54.65,-144.76C48.83,-133.46 41.11,-118.44 35.3,-107.15"/>
</g>
<!-- F -->
<g id="node8" class="node">
<title>F</title>
<ellipse fill="none" stroke="black" cx="99" cy="-90" rx="27" ry="18"/>
<text text-anchor="middle" x="99" y="-84.95" font-family="Times,serif" font-size="14.00">F</text>
</g>
<!-- E&#45;&#45;F -->
<g id="edge7" class="edge">
<title>E&#45;&#45;F</title>
<path fill="none" stroke="black" d="M71.35,-144.76C77.17,-133.46 84.89,-118.44 90.7,-107.15"/>
</g>
<!-- G -->
<g id="node9" class="node">
<title>G</title>
<ellipse fill="none" stroke="black" cx="207" cy="-90" rx="27" ry="18"/>
<text text-anchor="middle" x="207" y="-84.95" font-family="Times,serif" font-size="14.00">G</text>
</g>
<!-- H&#45;&#45;G -->
<g id="edge8" class="edge">
<title>H&#45;&#45;G</title>
<path fill="none" stroke="black" d="M207,-143.7C207,-132.85 207,-118.92 207,-108.1"/>
</g>
<!-- K -->
<g id="node10" class="node">
<title>K</title>
<ellipse fill="none" stroke="black" cx="27" cy="-18" rx="27" ry="18"/>
<text text-anchor="middle" x="27" y="-12.95" font-family="Times,serif" font-size="14.00">K</text>
</g>
<!-- J&#45;&#45;K -->
<g id="edge9" class="edge">
<title>J&#45;&#45;K</title>
<path fill="none" stroke="black" d="M27,-71.7C27,-60.85 27,-46.92 27,-36.1"/>
</g>
<!-- L -->
<g id="node11" class="node">
<title>L</title>
<ellipse fill="none" stroke="black" cx="99" cy="-18" rx="27" ry="18"/>
<text text-anchor="middle" x="99" y="-12.95" font-family="Times,serif" font-size="14.00">L</text>
</g>
<!-- J&#45;&#45;L -->
<g id="edge10" class="edge">
<title>J&#45;&#45;L</title>
<path fill="none" stroke="black" d="M41.92,-74.5C54.28,-62.48 71.75,-45.49 84.1,-33.49"/>
</g>
<!-- I -->
<g id="node12" class="node">
<title>I</title>
<ellipse fill="none" stroke="black" cx="207" cy="-18" rx="27" ry="18"/>
<text text-anchor="middle" x="207" y="-12.95" font-family="Times,serif" font-size="14.00">I</text>
</g>
<!-- G&#45;&#45;I -->
<g id="edge11" class="edge">
<title>G&#45;&#45;I</title>
<path fill="none" stroke="black" d="M207,-71.7C207,-60.85 207,-46.92 207,-36.1"/>
</g>
</g>
</svg>
