<?xml version="1.0" encoding="UTF-8" standalone="no"?>
<!DOCTYPE svg PUBLIC "-//W3C//DTD SVG 1.1//EN"
 "http://www.w3.org/Graphics/SVG/1.1/DTD/svg11.dtd">
<!-- Generated by graphviz version 2.49.1 (20210923.0004)
 -->
<!-- Pages: 1 -->
<svg width="220pt" height="404pt"
 viewBox="0.00 0.00 219.58 404.00" xmlns="http://www.w3.org/2000/svg" xmlns:xlink="http://www.w3.org/1999/xlink">
<g id="graph0" class="graph" transform="scale(1 1) rotate(0) translate(4 400)">
<polygon fill="white" stroke="transparent" points="-4,4 -4,-400 215.58,-400 215.58,4 -4,4"/>
<!-- G -->
<g id="node1" class="node">
<title>G</title>
<ellipse fill="none" stroke="black" cx="165" cy="-90" rx="27" ry="18"/>
<text text-anchor="middle" x="165" y="-86.3" font-family="Times,serif" font-size="14.00">G</text>
</g>
<!-- F -->
<g id="node2" class="node">
<title>F</title>
<ellipse fill="none" stroke="black" cx="137" cy="-18" rx="27" ry="18"/>
<text text-anchor="middle" x="137" y="-14.3" font-family="Times,serif" font-size="14.00">F</text>
</g>
<!-- G&#45;&gt;F -->
<g id="edge1" class="edge">
<title>G&#45;&gt;F</title>
<path fill="none" stroke="black" d="M153.07,-73.46C148.89,-65.42 144.58,-55.36 141.24,-46.09"/>
<polygon fill="black" stroke="black" points="144.52,-44.85 138.05,-36.46 137.87,-47.05 144.52,-44.85"/>
</g>
<!-- F&#45;&gt;G -->
<g id="edge3" class="edge">
<title>F&#45;&gt;G</title>
<path fill="none" stroke="black" d="M149,-34.67C153.18,-42.74 157.49,-52.81 160.82,-62.08"/>
<polygon fill="black" stroke="black" points="157.54,-63.3 163.99,-71.7 164.18,-61.1 157.54,-63.3"/>
</g>
<!-- A -->
<g id="node3" class="node">
<title>A</title>
<ellipse fill="none" stroke="black" cx="55" cy="-234" rx="27" ry="18"/>
<text text-anchor="middle" x="55" y="-230.3" font-family="Times,serif" font-size="14.00">A</text>
</g>
<!-- B -->
<g id="node4" class="node">
<title>B</title>
<ellipse fill="none" stroke="black" cx="65" cy="-378" rx="27" ry="18"/>
<text text-anchor="middle" x="65" y="-374.3" font-family="Times,serif" font-size="14.00">B</text>
</g>
<!-- A&#45;&gt;B -->
<g id="edge2" class="edge">
<title>A&#45;&gt;B</title>
<path fill="none" stroke="black" d="M54.74,-252.1C54.62,-270.04 54.85,-299.06 57,-324 57.73,-332.47 58.96,-341.65 60.24,-349.95"/>
<polygon fill="black" stroke="black" points="56.79,-350.57 61.85,-359.88 63.7,-349.45 56.79,-350.57"/>
</g>
<!-- B&#45;&gt;F -->
<g id="edge6" class="edge">
<title>B&#45;&gt;F</title>
<path fill="none" stroke="black" d="M52.77,-361.87C33.95,-336.98 0,-285.16 0,-235 0,-235 0,-235 0,-161 0,-100.14 65.98,-55.36 106.36,-33.66"/>
<polygon fill="black" stroke="black" points="108.04,-36.73 115.29,-29.01 104.81,-30.52 108.04,-36.73"/>
</g>
<!-- E -->
<g id="node5" class="node">
<title>E</title>
<ellipse fill="none" stroke="black" cx="93" cy="-306" rx="27" ry="18"/>
<text text-anchor="middle" x="93" y="-302.3" font-family="Times,serif" font-size="14.00">E</text>
</g>
<!-- B&#45;&gt;E -->
<g id="edge7" class="edge">
<title>B&#45;&gt;E</title>
<path fill="none" stroke="black" d="M71.64,-360.41C74.91,-352.22 78.94,-342.14 82.62,-332.95"/>
<polygon fill="black" stroke="black" points="85.95,-334.05 86.41,-323.47 79.45,-331.45 85.95,-334.05"/>
</g>
<!-- C -->
<g id="node6" class="node">
<title>C</title>
<ellipse fill="none" stroke="black" cx="165" cy="-306" rx="27" ry="18"/>
<text text-anchor="middle" x="165" y="-302.3" font-family="Times,serif" font-size="14.00">C</text>
</g>
<!-- B&#45;&gt;C -->
<g id="edge8" class="edge">
<title>B&#45;&gt;C</title>
<path fill="none" stroke="black" d="M82.88,-364.49C98.28,-353.7 120.74,-337.98 138.28,-325.7"/>
<polygon fill="black" stroke="black" points="140.75,-328.24 146.94,-319.64 136.74,-322.51 140.75,-328.24"/>
</g>
<!-- E&#45;&gt;F -->
<g id="edge4" class="edge">
<title>E&#45;&gt;F</title>
<path fill="none" stroke="black" d="M95.62,-287.97C102.99,-240.08 123.93,-103.98 132.87,-45.85"/>
<polygon fill="black" stroke="black" points="136.33,-46.36 134.39,-35.94 129.41,-45.3 136.33,-46.36"/>
</g>
<!-- E&#45;&gt;A -->
<g id="edge5" class="edge">
<title>E&#45;&gt;A</title>
<path fill="none" stroke="black" d="M84.19,-288.76C79.58,-280.28 73.84,-269.71 68.68,-260.2"/>
<polygon fill="black" stroke="black" points="71.61,-258.27 63.77,-251.15 65.46,-261.61 71.61,-258.27"/>
</g>
<!-- C&#45;&gt;G -->
<g id="edge14" class="edge">
<title>C&#45;&gt;G</title>
<path fill="none" stroke="black" d="M178.75,-290.07C186.96,-280.1 196.62,-266.25 201,-252 215.11,-206.12 215.11,-189.88 201,-144 197.71,-133.31 191.46,-122.85 185.07,-114.08"/>
<polygon fill="black" stroke="black" points="187.65,-111.69 178.75,-105.93 182.12,-115.98 187.65,-111.69"/>
</g>
<!-- D -->
<g id="node8" class="node">
<title>D</title>
<ellipse fill="none" stroke="black" cx="165" cy="-234" rx="27" ry="18"/>
<text text-anchor="middle" x="165" y="-230.3" font-family="Times,serif" font-size="14.00">D</text>
</g>
<!-- C&#45;&gt;D -->
<g id="edge13" class="edge">
<title>C&#45;&gt;D</title>
<path fill="none" stroke="black" d="M159.16,-288.41C158.3,-280.51 158.05,-270.85 158.41,-261.94"/>
<polygon fill="black" stroke="black" points="161.9,-262.18 159.12,-251.96 154.92,-261.68 161.9,-262.18"/>
</g>
<!-- H -->
<g id="node7" class="node">
<title>H</title>
<ellipse fill="none" stroke="black" cx="165" cy="-162" rx="27" ry="18"/>
<text text-anchor="middle" x="165" y="-158.3" font-family="Times,serif" font-size="14.00">H</text>
</g>
<!-- H&#45;&gt;G -->
<g id="edge10" class="edge">
<title>H&#45;&gt;G</title>
<path fill="none" stroke="black" d="M165,-143.7C165,-135.98 165,-126.71 165,-118.11"/>
<polygon fill="black" stroke="black" points="168.5,-118.1 165,-108.1 161.5,-118.1 168.5,-118.1"/>
</g>
<!-- H&#45;&gt;D -->
<g id="edge9" class="edge">
<title>H&#45;&gt;D</title>
<path fill="none" stroke="black" d="M170.88,-179.96C171.71,-187.83 171.95,-197.37 171.58,-206.19"/>
<polygon fill="black" stroke="black" points="168.07,-206.18 170.84,-216.41 175.06,-206.69 168.07,-206.18"/>
</g>
<!-- D&#45;&gt;C -->
<g id="edge12" class="edge">
<title>D&#45;&gt;C</title>
<path fill="none" stroke="black" d="M170.88,-251.96C171.71,-259.83 171.95,-269.37 171.58,-278.19"/>
<polygon fill="black" stroke="black" points="168.07,-278.18 170.84,-288.41 175.06,-278.69 168.07,-278.18"/>
</g>
<!-- D&#45;&gt;H -->
<g id="edge11" class="edge">
<title>D&#45;&gt;H</title>
<path fill="none" stroke="black" d="M159.16,-216.41C158.3,-208.51 158.05,-198.85 158.41,-189.94"/>
<polygon fill="black" stroke="black" points="161.9,-190.18 159.12,-179.96 154.92,-189.68 161.9,-190.18"/>
</g>
</g>
</svg>
