<?xml version="1.0" encoding="UTF-8" standalone="no"?>
<!DOCTYPE svg PUBLIC "-//W3C//DTD SVG 1.1//EN"
 "http://www.w3.org/Graphics/SVG/1.1/DTD/svg11.dtd">
<!-- Generated by graphviz version 8.1.0 (0)
 -->
<!-- Pages: 1 -->
<svg width="156pt" height="548pt"
 viewBox="0.00 0.00 156.00 548.00" xmlns="http://www.w3.org/2000/svg" xmlns:xlink="http://www.w3.org/1999/xlink">
<g id="graph0" class="graph" transform="scale(1 1) rotate(0) translate(4 544)">
<polygon fill="white" stroke="none" points="-4,4 -4,-544 152,-544 152,4 -4,4"/>
<!-- E -->
<g id="node1" class="node">
<title>E</title>
<ellipse fill="none" stroke="black" cx="110" cy="-522" rx="27" ry="18"/>
<text text-anchor="middle" x="110" y="-516.95" font-family="Times,serif" font-size="14.00">E</text>
</g>
<!-- A -->
<g id="node2" class="node">
<title>A</title>
<ellipse fill="none" stroke="black" cx="55" cy="-450" rx="27" ry="18"/>
<text text-anchor="middle" x="55" y="-444.95" font-family="Times,serif" font-size="14.00">A</text>
</g>
<!-- E&#45;&gt;A -->
<g id="edge1" class="edge">
<title>E&#45;&gt;A</title>
<path fill="none" stroke="black" d="M97.79,-505.46C90.74,-496.49 81.73,-485.02 73.79,-474.92"/>
<polygon fill="black" stroke="black" points="76.1,-473.19 67.17,-467.49 70.6,-477.52 76.1,-473.19"/>
</g>
<!-- F -->
<g id="node3" class="node">
<title>F</title>
<ellipse fill="none" stroke="black" cx="74" cy="-18" rx="27" ry="18"/>
<text text-anchor="middle" x="74" y="-12.95" font-family="Times,serif" font-size="14.00">F</text>
</g>
<!-- E&#45;&gt;F -->
<g id="edge2" class="edge">
<title>E&#45;&gt;F</title>
<path fill="none" stroke="black" d="M117.51,-504.34C128.58,-478.2 148,-425.7 148,-379 148,-379 148,-379 148,-161 148,-114.79 116.81,-68.73 94.92,-42.1"/>
<polygon fill="black" stroke="black" points="97.06,-40.2 87.92,-34.84 91.72,-44.73 97.06,-40.2"/>
</g>
<!-- B -->
<g id="node4" class="node">
<title>B</title>
<ellipse fill="none" stroke="black" cx="55" cy="-378" rx="27" ry="18"/>
<text text-anchor="middle" x="55" y="-372.95" font-family="Times,serif" font-size="14.00">B</text>
</g>
<!-- A&#45;&gt;B -->
<g id="edge8" class="edge">
<title>A&#45;&gt;B</title>
<path fill="none" stroke="black" d="M55,-431.7C55,-424.24 55,-415.32 55,-406.97"/>
<polygon fill="black" stroke="black" points="58.5,-407.1 55,-397.1 51.5,-407.1 58.5,-407.1"/>
</g>
<!-- G -->
<g id="node7" class="node">
<title>G</title>
<ellipse fill="none" stroke="black" cx="74" cy="-90" rx="27" ry="18"/>
<text text-anchor="middle" x="74" y="-84.95" font-family="Times,serif" font-size="14.00">G</text>
</g>
<!-- F&#45;&gt;G -->
<g id="edge14" class="edge">
<title>F&#45;&gt;G</title>
<path fill="none" stroke="black" d="M79.86,-35.79C80.68,-43.42 80.93,-52.65 80.62,-61.27"/>
<polygon fill="black" stroke="black" points="77.07,-60.84 79.88,-71.05 84.06,-61.32 77.07,-60.84"/>
</g>
<!-- B&#45;&gt;E -->
<g id="edge4" class="edge">
<title>B&#45;&gt;E</title>
<path fill="none" stroke="black" d="M67.75,-394.3C75.56,-404.41 85.15,-418.29 91,-432 99.29,-451.43 104.11,-474.84 106.81,-492.78"/>
<polygon fill="black" stroke="black" points="103.48,-493.24 108.3,-502.67 110.42,-492.29 103.48,-493.24"/>
</g>
<!-- B&#45;&gt;F -->
<g id="edge5" class="edge">
<title>B&#45;&gt;F</title>
<path fill="none" stroke="black" d="M42.25,-361.7C34.44,-351.59 24.85,-337.71 19,-324 3.12,-286.8 0,-275.45 0,-235 0,-235 0,-235 0,-161 0,-114.79 31.19,-68.73 53.08,-42.1"/>
<polygon fill="black" stroke="black" points="56.28,-44.73 60.08,-34.84 50.94,-40.2 56.28,-44.73"/>
</g>
<!-- C -->
<g id="node5" class="node">
<title>C</title>
<ellipse fill="none" stroke="black" cx="55" cy="-306" rx="27" ry="18"/>
<text text-anchor="middle" x="55" y="-300.95" font-family="Times,serif" font-size="14.00">C</text>
</g>
<!-- B&#45;&gt;C -->
<g id="edge3" class="edge">
<title>B&#45;&gt;C</title>
<path fill="none" stroke="black" d="M55,-359.7C55,-352.24 55,-343.32 55,-334.97"/>
<polygon fill="black" stroke="black" points="58.5,-335.1 55,-325.1 51.5,-335.1 58.5,-335.1"/>
</g>
<!-- D -->
<g id="node6" class="node">
<title>D</title>
<ellipse fill="none" stroke="black" cx="55" cy="-234" rx="27" ry="18"/>
<text text-anchor="middle" x="55" y="-228.95" font-family="Times,serif" font-size="14.00">D</text>
</g>
<!-- C&#45;&gt;D -->
<g id="edge6" class="edge">
<title>C&#45;&gt;D</title>
<path fill="none" stroke="black" d="M49.12,-288.05C48.31,-280.4 48.06,-271.16 48.39,-262.56"/>
<polygon fill="black" stroke="black" points="51.93,-263.01 49.14,-252.79 44.95,-262.52 51.93,-263.01"/>
</g>
<!-- C&#45;&gt;G -->
<g id="edge7" class="edge">
<title>C&#45;&gt;G</title>
<path fill="none" stroke="black" d="M68.75,-290.07C76.96,-280.1 86.62,-266.25 91,-252 105.11,-206.12 98.42,-191.42 91,-144 89.65,-135.37 87.13,-126.23 84.44,-118.01"/>
<polygon fill="black" stroke="black" points="87.5,-117.14 80.89,-108.86 80.89,-119.45 87.5,-117.14"/>
</g>
<!-- D&#45;&gt;C -->
<g id="edge9" class="edge">
<title>D&#45;&gt;C</title>
<path fill="none" stroke="black" d="M60.86,-251.79C61.68,-259.42 61.93,-268.65 61.62,-277.27"/>
<polygon fill="black" stroke="black" points="58.07,-276.84 60.88,-287.05 65.06,-277.32 58.07,-276.84"/>
</g>
<!-- H -->
<g id="node8" class="node">
<title>H</title>
<ellipse fill="none" stroke="black" cx="55" cy="-162" rx="27" ry="18"/>
<text text-anchor="middle" x="55" y="-156.95" font-family="Times,serif" font-size="14.00">H</text>
</g>
<!-- D&#45;&gt;H -->
<g id="edge10" class="edge">
<title>D&#45;&gt;H</title>
<path fill="none" stroke="black" d="M49.12,-216.05C48.31,-208.4 48.06,-199.16 48.39,-190.56"/>
<polygon fill="black" stroke="black" points="51.93,-191.01 49.14,-180.79 44.95,-190.52 51.93,-191.01"/>
</g>
<!-- G&#45;&gt;F -->
<g id="edge13" class="edge">
<title>G&#45;&gt;F</title>
<path fill="none" stroke="black" d="M68.12,-72.05C67.31,-64.4 67.06,-55.16 67.39,-46.56"/>
<polygon fill="black" stroke="black" points="70.93,-47.01 68.14,-36.79 63.95,-46.52 70.93,-47.01"/>
</g>
<!-- H&#45;&gt;D -->
<g id="edge11" class="edge">
<title>H&#45;&gt;D</title>
<path fill="none" stroke="black" d="M60.86,-179.79C61.68,-187.42 61.93,-196.65 61.62,-205.27"/>
<polygon fill="black" stroke="black" points="58.07,-204.84 60.88,-215.05 65.06,-205.32 58.07,-204.84"/>
</g>
<!-- H&#45;&gt;G -->
<g id="edge12" class="edge">
<title>H&#45;&gt;G</title>
<path fill="none" stroke="black" d="M59.6,-144.05C61.7,-136.32 64.24,-126.96 66.6,-118.27"/>
<polygon fill="black" stroke="black" points="70.2,-119.36 69.44,-108.79 63.45,-117.52 70.2,-119.36"/>
</g>
</g>
</svg>
