<?xml version="1.0" encoding="UTF-8" standalone="no"?>
<!DOCTYPE svg PUBLIC "-//W3C//DTD SVG 1.1//EN"
 "http://www.w3.org/Graphics/SVG/1.1/DTD/svg11.dtd">
<!-- Generated by graphviz version 2.49.1 (20210923.0004)
 -->
<!-- Pages: 1 -->
<svg width="157pt" height="476pt"
 viewBox="0.00 0.00 156.63 476.00" xmlns="http://www.w3.org/2000/svg" xmlns:xlink="http://www.w3.org/1999/xlink">
<g id="graph0" class="graph" transform="scale(1 1) rotate(0) translate(4 472)">
<polygon fill="white" stroke="transparent" points="-4,4 -4,-472 152.63,-472 152.63,4 -4,4"/>
<!-- G -->
<g id="node1" class="node">
<title>G</title>
<ellipse fill="none" stroke="black" cx="67" cy="-450" rx="27" ry="18"/>
<text text-anchor="middle" x="67" y="-446.3" font-family="Times,serif" font-size="14.00">G</text>
</g>
<!-- F -->
<g id="node2" class="node">
<title>F</title>
<ellipse fill="none" stroke="black" cx="27" cy="-306" rx="27" ry="18"/>
<text text-anchor="middle" x="27" y="-302.3" font-family="Times,serif" font-size="14.00">F</text>
</g>
<!-- G&#45;&gt;F -->
<g id="edge1" class="edge">
<title>G&#45;&gt;F</title>
<path fill="none" stroke="black" d="M58.03,-432.99C48.58,-408.96 35.38,-363.27 29.18,-334.02"/>
<polygon fill="black" stroke="black" points="32.58,-333.2 27.23,-324.06 25.71,-334.54 32.58,-333.2"/>
</g>
<!-- H -->
<g id="node3" class="node">
<title>H</title>
<ellipse fill="none" stroke="black" cx="99" cy="-378" rx="27" ry="18"/>
<text text-anchor="middle" x="99" y="-374.3" font-family="Times,serif" font-size="14.00">H</text>
</g>
<!-- G&#45;&gt;H -->
<g id="edge2" class="edge">
<title>G&#45;&gt;H</title>
<path fill="none" stroke="black" d="M74.58,-432.41C78.37,-424.13 83.03,-413.92 87.27,-404.66"/>
<polygon fill="black" stroke="black" points="90.5,-406.02 91.47,-395.47 84.13,-403.11 90.5,-406.02"/>
</g>
<!-- C -->
<g id="node4" class="node">
<title>C</title>
<ellipse fill="none" stroke="black" cx="99" cy="-234" rx="27" ry="18"/>
<text text-anchor="middle" x="99" y="-230.3" font-family="Times,serif" font-size="14.00">C</text>
</g>
<!-- G&#45;&gt;C -->
<g id="edge3" class="edge">
<title>G&#45;&gt;C</title>
<path fill="none" stroke="black" d="M88.56,-438.93C104.64,-430.11 125.41,-415.64 135,-396 156.07,-352.87 149.11,-333.88 135,-288 131.71,-277.31 125.46,-266.85 119.07,-258.08"/>
<polygon fill="black" stroke="black" points="121.65,-255.69 112.75,-249.93 116.12,-259.98 121.65,-255.69"/>
</g>
<!-- F&#45;&gt;G -->
<g id="edge6" class="edge">
<title>F&#45;&gt;G</title>
<path fill="none" stroke="black" d="M36.09,-323.31C45.53,-347.41 58.63,-392.81 64.81,-421.94"/>
<polygon fill="black" stroke="black" points="61.4,-422.73 66.76,-431.87 68.27,-421.39 61.4,-422.73"/>
</g>
<!-- E -->
<g id="node6" class="node">
<title>E</title>
<ellipse fill="none" stroke="black" cx="44" cy="-18" rx="27" ry="18"/>
<text text-anchor="middle" x="44" y="-14.3" font-family="Times,serif" font-size="14.00">E</text>
</g>
<!-- F&#45;&gt;E -->
<g id="edge7" class="edge">
<title>F&#45;&gt;E</title>
<path fill="none" stroke="black" d="M28.01,-287.97C30.85,-240.29 38.88,-105.18 42.36,-46.63"/>
<polygon fill="black" stroke="black" points="45.87,-46.5 42.97,-36.31 38.88,-46.08 45.87,-46.5"/>
</g>
<!-- B -->
<g id="node7" class="node">
<title>B</title>
<ellipse fill="none" stroke="black" cx="80" cy="-162" rx="27" ry="18"/>
<text text-anchor="middle" x="80" y="-158.3" font-family="Times,serif" font-size="14.00">B</text>
</g>
<!-- F&#45;&gt;B -->
<g id="edge5" class="edge">
<title>F&#45;&gt;B</title>
<path fill="none" stroke="black" d="M33.18,-288.43C42.27,-264.09 59.32,-218.4 70.15,-189.4"/>
<polygon fill="black" stroke="black" points="73.47,-190.49 73.69,-179.9 66.92,-188.05 73.47,-190.49"/>
</g>
<!-- D -->
<g id="node8" class="node">
<title>D</title>
<ellipse fill="none" stroke="black" cx="99" cy="-306" rx="27" ry="18"/>
<text text-anchor="middle" x="99" y="-302.3" font-family="Times,serif" font-size="14.00">D</text>
</g>
<!-- H&#45;&gt;D -->
<g id="edge10" class="edge">
<title>H&#45;&gt;D</title>
<path fill="none" stroke="black" d="M93.16,-360.41C92.3,-352.51 92.05,-342.85 92.41,-333.94"/>
<polygon fill="black" stroke="black" points="95.9,-334.18 93.12,-323.96 88.92,-333.68 95.9,-334.18"/>
</g>
<!-- C&#45;&gt;B -->
<g id="edge14" class="edge">
<title>C&#45;&gt;B</title>
<path fill="none" stroke="black" d="M94.4,-216.05C92.25,-208.14 89.65,-198.54 87.24,-189.69"/>
<polygon fill="black" stroke="black" points="90.55,-188.52 84.56,-179.79 83.8,-190.36 90.55,-188.52"/>
</g>
<!-- C&#45;&gt;D -->
<g id="edge13" class="edge">
<title>C&#45;&gt;D</title>
<path fill="none" stroke="black" d="M104.88,-251.96C105.71,-259.83 105.95,-269.37 105.58,-278.19"/>
<polygon fill="black" stroke="black" points="102.07,-278.18 104.84,-288.41 109.06,-278.69 102.07,-278.18"/>
</g>
<!-- A -->
<g id="node5" class="node">
<title>A</title>
<ellipse fill="none" stroke="black" cx="99" cy="-90" rx="27" ry="18"/>
<text text-anchor="middle" x="99" y="-86.3" font-family="Times,serif" font-size="14.00">A</text>
</g>
<!-- A&#45;&gt;E -->
<g id="edge4" class="edge">
<title>A&#45;&gt;E</title>
<path fill="none" stroke="black" d="M87.07,-73.81C79.79,-64.55 70.34,-52.52 62.15,-42.09"/>
<polygon fill="black" stroke="black" points="64.84,-39.86 55.91,-34.16 59.34,-44.18 64.84,-39.86"/>
</g>
<!-- E&#45;&gt;B -->
<g id="edge8" class="edge">
<title>E&#45;&gt;B</title>
<path fill="none" stroke="black" d="M47.14,-36.18C50.55,-54.2 56.41,-83.27 63,-108 65.33,-116.76 68.24,-126.22 70.99,-134.69"/>
<polygon fill="black" stroke="black" points="67.74,-136.02 74.21,-144.42 74.39,-133.82 67.74,-136.02"/>
</g>
<!-- B&#45;&gt;A -->
<g id="edge9" class="edge">
<title>B&#45;&gt;A</title>
<path fill="none" stroke="black" d="M84.6,-144.05C86.75,-136.14 89.35,-126.54 91.76,-117.69"/>
<polygon fill="black" stroke="black" points="95.2,-118.36 94.44,-107.79 88.45,-116.52 95.2,-118.36"/>
</g>
<!-- D&#45;&gt;H -->
<g id="edge11" class="edge">
<title>D&#45;&gt;H</title>
<path fill="none" stroke="black" d="M104.88,-323.96C105.71,-331.83 105.95,-341.37 105.58,-350.19"/>
<polygon fill="black" stroke="black" points="102.07,-350.18 104.84,-360.41 109.06,-350.69 102.07,-350.18"/>
</g>
<!-- D&#45;&gt;C -->
<g id="edge12" class="edge">
<title>D&#45;&gt;C</title>
<path fill="none" stroke="black" d="M93.16,-288.41C92.3,-280.51 92.05,-270.85 92.41,-261.94"/>
<polygon fill="black" stroke="black" points="95.9,-262.18 93.12,-251.96 88.92,-261.68 95.9,-262.18"/>
</g>
</g>
</svg>
