<?xml version="1.0" encoding="UTF-8" standalone="no"?>
<!DOCTYPE svg PUBLIC "-//W3C//DTD SVG 1.1//EN"
 "http://www.w3.org/Graphics/SVG/1.1/DTD/svg11.dtd">
<!-- Generated by graphviz version 8.1.0 (0)
 -->
<!-- Pages: 1 -->
<svg width="231pt" height="332pt"
 viewBox="0.00 0.00 230.97 332.00" xmlns="http://www.w3.org/2000/svg" xmlns:xlink="http://www.w3.org/1999/xlink">
<g id="graph0" class="graph" transform="scale(1 1) rotate(0) translate(4 328)">
<polygon fill="white" stroke="none" points="-4,4 -4,-328 226.97,-328 226.97,4 -4,4"/>
<!-- E -->
<g id="node1" class="node">
<title>E</title>
<ellipse fill="none" stroke="black" cx="27" cy="-162" rx="27" ry="18"/>
<text text-anchor="middle" x="27" y="-156.95" font-family="Times,serif" font-size="14.00">E</text>
</g>
<!-- B -->
<g id="node2" class="node">
<title>B</title>
<ellipse fill="none" stroke="black" cx="82" cy="-90" rx="27" ry="18"/>
<text text-anchor="middle" x="82" y="-84.95" font-family="Times,serif" font-size="14.00">B</text>
</g>
<!-- E&#45;&gt;B -->
<g id="edge1" class="edge">
<title>E&#45;&gt;B</title>
<path fill="none" stroke="black" d="M39.21,-145.46C46.26,-136.49 55.27,-125.02 63.21,-114.92"/>
<polygon fill="black" stroke="black" points="66.4,-117.52 69.83,-107.49 60.9,-113.19 66.4,-117.52"/>
</g>
<!-- A -->
<g id="node3" class="node">
<title>A</title>
<ellipse fill="none" stroke="black" cx="54" cy="-18" rx="27" ry="18"/>
<text text-anchor="middle" x="54" y="-12.95" font-family="Times,serif" font-size="14.00">A</text>
</g>
<!-- B&#45;&gt;A -->
<g id="edge2" class="edge">
<title>B&#45;&gt;A</title>
<path fill="none" stroke="black" d="M75.36,-72.41C72.16,-64.39 68.23,-54.57 64.62,-45.54"/>
<polygon fill="black" stroke="black" points="67.55,-44.45 60.59,-36.47 61.05,-47.05 67.55,-44.45"/>
</g>
<!-- A&#45;&gt;E -->
<g id="edge5" class="edge">
<title>A&#45;&gt;E</title>
<path fill="none" stroke="black" d="M50.73,-36.19C46.14,-60.32 37.74,-104.5 32.27,-133.3"/>
<polygon fill="black" stroke="black" points="28.69,-132.39 30.26,-142.87 35.56,-133.7 28.69,-132.39"/>
</g>
<!-- C -->
<g id="node4" class="node">
<title>C</title>
<ellipse fill="none" stroke="black" cx="170" cy="-234" rx="27" ry="18"/>
<text text-anchor="middle" x="170" y="-228.95" font-family="Times,serif" font-size="14.00">C</text>
</g>
<!-- C&#45;&gt;B -->
<g id="edge4" class="edge">
<title>C&#45;&gt;B</title>
<path fill="none" stroke="black" d="M160.08,-216.99C144.89,-192.48 115.76,-145.47 97.69,-116.32"/>
<polygon fill="black" stroke="black" points="100.27,-114.83 92.02,-108.17 94.32,-118.52 100.27,-114.83"/>
</g>
<!-- D -->
<g id="node5" class="node">
<title>D</title>
<ellipse fill="none" stroke="black" cx="175" cy="-162" rx="27" ry="18"/>
<text text-anchor="middle" x="175" y="-156.95" font-family="Times,serif" font-size="14.00">D</text>
</g>
<!-- C&#45;&gt;D -->
<g id="edge3" class="edge">
<title>C&#45;&gt;D</title>
<path fill="none" stroke="black" d="M165.33,-216.05C165.07,-208.4 165.48,-199.16 166.42,-190.56"/>
<polygon fill="black" stroke="black" points="170.01,-191.18 167.94,-180.79 163.08,-190.2 170.01,-191.18"/>
</g>
<!-- D&#45;&gt;C -->
<g id="edge6" class="edge">
<title>D&#45;&gt;C</title>
<path fill="none" stroke="black" d="M179.67,-179.96C179.93,-187.65 179.51,-196.96 178.56,-205.6"/>
<polygon fill="black" stroke="black" points="174.97,-205.02 177.02,-215.41 181.9,-206 174.97,-205.02"/>
</g>
<!-- H -->
<g id="node6" class="node">
<title>H</title>
<ellipse fill="none" stroke="black" cx="175" cy="-90" rx="27" ry="18"/>
<text text-anchor="middle" x="175" y="-84.95" font-family="Times,serif" font-size="14.00">H</text>
</g>
<!-- D&#45;&gt;H -->
<g id="edge7" class="edge">
<title>D&#45;&gt;H</title>
<path fill="none" stroke="black" d="M169.12,-144.05C168.31,-136.4 168.06,-127.16 168.39,-118.56"/>
<polygon fill="black" stroke="black" points="171.93,-119.01 169.14,-108.79 164.95,-118.52 171.93,-119.01"/>
</g>
<!-- H&#45;&gt;D -->
<g id="edge8" class="edge">
<title>H&#45;&gt;D</title>
<path fill="none" stroke="black" d="M180.86,-107.79C181.68,-115.42 181.93,-124.65 181.62,-133.27"/>
<polygon fill="black" stroke="black" points="178.07,-132.84 180.88,-143.05 185.06,-133.32 178.07,-132.84"/>
</g>
<!-- G -->
<g id="node7" class="node">
<title>G</title>
<ellipse fill="none" stroke="black" cx="124" cy="-306" rx="27" ry="18"/>
<text text-anchor="middle" x="124" y="-300.95" font-family="Times,serif" font-size="14.00">G</text>
</g>
<!-- G&#45;&gt;C -->
<g id="edge9" class="edge">
<title>G&#45;&gt;C</title>
<path fill="none" stroke="black" d="M134.44,-289.12C140.14,-280.43 147.34,-269.49 153.76,-259.72"/>
<polygon fill="black" stroke="black" points="157.04,-262.1 159.6,-251.82 151.19,-258.26 157.04,-262.1"/>
</g>
<!-- G&#45;&gt;H -->
<g id="edge10" class="edge">
<title>G&#45;&gt;H</title>
<path fill="none" stroke="black" d="M147.5,-296.69C166.8,-288.52 192.99,-274.04 206,-252 230.42,-210.62 225.12,-189.93 211,-144 207.78,-133.54 201.72,-123.29 195.47,-114.63"/>
<polygon fill="black" stroke="black" points="197.63,-112.7 188.75,-106.93 192.1,-116.98 197.63,-112.7"/>
</g>
<!-- F -->
<g id="node8" class="node">
<title>F</title>
<ellipse fill="none" stroke="black" cx="88" cy="-234" rx="27" ry="18"/>
<text text-anchor="middle" x="88" y="-228.95" font-family="Times,serif" font-size="14.00">F</text>
</g>
<!-- G&#45;&gt;F -->
<g id="edge11" class="edge">
<title>G&#45;&gt;F</title>
<path fill="none" stroke="black" d="M110.73,-290.15C105.53,-282.02 99.89,-271.68 95.37,-262.16"/>
<polygon fill="black" stroke="black" points="98.24,-261 90.98,-253.29 91.85,-263.85 98.24,-261"/>
</g>
<!-- F&#45;&gt;E -->
<g id="edge12" class="edge">
<title>F&#45;&gt;E</title>
<path fill="none" stroke="black" d="M74.76,-217.81C66.77,-208.64 56.42,-196.76 47.4,-186.4"/>
<polygon fill="black" stroke="black" points="49.42,-184.4 40.21,-179.16 44.14,-189 49.42,-184.4"/>
</g>
<!-- F&#45;&gt;B -->
<g id="edge14" class="edge">
<title>F&#45;&gt;B</title>
<path fill="none" stroke="black" d="M87.26,-215.59C86.25,-191.5 84.4,-147.75 83.18,-119.03"/>
<polygon fill="black" stroke="black" points="86.64,-118.95 82.72,-109.11 79.65,-119.25 86.64,-118.95"/>
</g>
<!-- F&#45;&gt;G -->
<g id="edge13" class="edge">
<title>F&#45;&gt;G</title>
<path fill="none" stroke="black" d="M101.2,-249.74C106.41,-257.88 112.07,-268.24 116.61,-277.8"/>
<polygon fill="black" stroke="black" points="113.75,-278.99 121.02,-286.7 120.15,-276.14 113.75,-278.99"/>
</g>
</g>
</svg>
