<?xml version="1.0" encoding="UTF-8" standalone="no"?>
<!DOCTYPE svg PUBLIC "-//W3C//DTD SVG 1.1//EN"
 "http://www.w3.org/Graphics/SVG/1.1/DTD/svg11.dtd">
<!-- Generated by graphviz version 2.48.0 (20210717.1556)
 -->
<!-- Pages: 1 -->
<svg width="242pt" height="392pt"
 viewBox="0.00 0.00 242.00 392.00" xmlns="http://www.w3.org/2000/svg" xmlns:xlink="http://www.w3.org/1999/xlink">
<g id="graph0" class="graph" transform="scale(1 1) rotate(0) translate(4 388)">
<polygon fill="white" stroke="transparent" points="-4,4 -4,-388 238,-388 238,4 -4,4"/>
<!-- B -->
<g id="node1" class="node">
<title>B</title>
<ellipse fill="none" stroke="black" cx="171" cy="-105" rx="27" ry="18"/>
<text text-anchor="middle" x="171" y="-101.3" font-family="Times,serif" font-size="14.00">B</text>
</g>
<!-- A -->
<g id="node2" class="node">
<title>A</title>
<ellipse fill="none" stroke="black" cx="135" cy="-18" rx="27" ry="18"/>
<text text-anchor="middle" x="135" y="-14.3" font-family="Times,serif" font-size="14.00">A</text>
</g>
<!-- B&#45;&#45;A -->
<g id="edge1" class="edge">
<title>B&#45;&#45;A</title>
<path fill="none" stroke="black" d="M163.89,-87.21C157.54,-72.21 148.29,-50.37 141.98,-35.47"/>
<text text-anchor="middle" x="162" y="-57.8" font-family="Times,serif" font-size="14.00">13</text>
</g>
<!-- C -->
<g id="node3" class="node">
<title>C</title>
<ellipse fill="none" stroke="black" cx="99" cy="-105" rx="27" ry="18"/>
<text text-anchor="middle" x="99" y="-101.3" font-family="Times,serif" font-size="14.00">C</text>
</g>
<!-- C&#45;&#45;A -->
<g id="edge2" class="edge">
<title>C&#45;&#45;A</title>
<path fill="none" stroke="black" d="M106.11,-87.21C112.46,-72.21 121.71,-50.37 128.02,-35.47"/>
<text text-anchor="middle" x="122.5" y="-57.8" font-family="Times,serif" font-size="14.00">6</text>
</g>
<!-- H -->
<g id="node4" class="node">
<title>H</title>
<ellipse fill="none" stroke="black" cx="27" cy="-192" rx="27" ry="18"/>
<text text-anchor="middle" x="27" y="-188.3" font-family="Times,serif" font-size="14.00">H</text>
</g>
<!-- H&#45;&#45;C -->
<g id="edge3" class="edge">
<title>H&#45;&#45;C</title>
<path fill="none" stroke="black" d="M39.87,-175.8C52.98,-160.33 73.17,-136.49 86.24,-121.06"/>
<text text-anchor="middle" x="75" y="-144.8" font-family="Times,serif" font-size="14.00">20</text>
</g>
<!-- D -->
<g id="node5" class="node">
<title>D</title>
<ellipse fill="none" stroke="black" cx="171" cy="-192" rx="27" ry="18"/>
<text text-anchor="middle" x="171" y="-188.3" font-family="Times,serif" font-size="14.00">D</text>
</g>
<!-- D&#45;&#45;B -->
<g id="edge4" class="edge">
<title>D&#45;&#45;B</title>
<path fill="none" stroke="black" d="M171,-173.8C171,-159.05 171,-137.92 171,-123.18"/>
<text text-anchor="middle" x="174.5" y="-144.8" font-family="Times,serif" font-size="14.00">1</text>
</g>
<!-- E -->
<g id="node6" class="node">
<title>E</title>
<ellipse fill="none" stroke="black" cx="99" cy="-192" rx="27" ry="18"/>
<text text-anchor="middle" x="99" y="-188.3" font-family="Times,serif" font-size="14.00">E</text>
</g>
<!-- E&#45;&#45;C -->
<g id="edge5" class="edge">
<title>E&#45;&#45;C</title>
<path fill="none" stroke="black" d="M99,-173.8C99,-159.05 99,-137.92 99,-123.18"/>
<text text-anchor="middle" x="102.5" y="-144.8" font-family="Times,serif" font-size="14.00">8</text>
</g>
<!-- F -->
<g id="node7" class="node">
<title>F</title>
<ellipse fill="none" stroke="black" cx="99" cy="-279" rx="27" ry="18"/>
<text text-anchor="middle" x="99" y="-275.3" font-family="Times,serif" font-size="14.00">F</text>
</g>
<!-- F&#45;&#45;E -->
<g id="edge6" class="edge">
<title>F&#45;&#45;E</title>
<path fill="none" stroke="black" d="M99,-260.8C99,-246.05 99,-224.92 99,-210.18"/>
<text text-anchor="middle" x="102.5" y="-231.8" font-family="Times,serif" font-size="14.00">2</text>
</g>
<!-- J -->
<g id="node8" class="node">
<title>J</title>
<ellipse fill="none" stroke="black" cx="171" cy="-279" rx="27" ry="18"/>
<text text-anchor="middle" x="171" y="-275.3" font-family="Times,serif" font-size="14.00">J</text>
</g>
<!-- J&#45;&#45;E -->
<g id="edge7" class="edge">
<title>J&#45;&#45;E</title>
<path fill="none" stroke="black" d="M158.13,-262.8C145.02,-247.33 124.83,-223.49 111.76,-208.06"/>
<text text-anchor="middle" x="146" y="-231.8" font-family="Times,serif" font-size="14.00">18</text>
</g>
<!-- G -->
<g id="node9" class="node">
<title>G</title>
<ellipse fill="none" stroke="black" cx="27" cy="-279" rx="27" ry="18"/>
<text text-anchor="middle" x="27" y="-275.3" font-family="Times,serif" font-size="14.00">G</text>
</g>
<!-- G&#45;&#45;H -->
<g id="edge8" class="edge">
<title>G&#45;&#45;H</title>
<path fill="none" stroke="black" d="M27,-260.8C27,-246.05 27,-224.92 27,-210.18"/>
<text text-anchor="middle" x="34" y="-231.8" font-family="Times,serif" font-size="14.00">15</text>
</g>
<!-- L -->
<g id="node10" class="node">
<title>L</title>
<ellipse fill="none" stroke="black" cx="135" cy="-366" rx="27" ry="18"/>
<text text-anchor="middle" x="135" y="-362.3" font-family="Times,serif" font-size="14.00">L</text>
</g>
<!-- L&#45;&#45;J -->
<g id="edge9" class="edge">
<title>L&#45;&#45;J</title>
<path fill="none" stroke="black" d="M142.11,-348.21C148.46,-333.21 157.71,-311.37 164.02,-296.47"/>
<text text-anchor="middle" x="158.5" y="-318.8" font-family="Times,serif" font-size="14.00">4</text>
</g>
<!-- K -->
<g id="node11" class="node">
<title>K</title>
<ellipse fill="none" stroke="black" cx="207" cy="-366" rx="27" ry="18"/>
<text text-anchor="middle" x="207" y="-362.3" font-family="Times,serif" font-size="14.00">K</text>
</g>
<!-- K&#45;&#45;J -->
<g id="edge10" class="edge">
<title>K&#45;&#45;J</title>
<path fill="none" stroke="black" d="M199.89,-348.21C193.54,-333.21 184.29,-311.37 177.98,-296.47"/>
<text text-anchor="middle" x="198" y="-318.8" font-family="Times,serif" font-size="14.00">16</text>
</g>
<!-- I -->
<g id="node12" class="node">
<title>I</title>
<ellipse fill="none" stroke="black" cx="27" cy="-366" rx="27" ry="18"/>
<text text-anchor="middle" x="27" y="-362.3" font-family="Times,serif" font-size="14.00">I</text>
</g>
<!-- I&#45;&#45;G -->
<g id="edge11" class="edge">
<title>I&#45;&#45;G</title>
<path fill="none" stroke="black" d="M27,-347.8C27,-333.05 27,-311.92 27,-297.18"/>
<text text-anchor="middle" x="30.5" y="-318.8" font-family="Times,serif" font-size="14.00">5</text>
</g>
</g>
</svg>
