<?xml version="1.0" encoding="UTF-8" standalone="no"?>
<!DOCTYPE svg PUBLIC "-//W3C//DTD SVG 1.1//EN"
 "http://www.w3.org/Graphics/SVG/1.1/DTD/svg11.dtd">
<!-- Generated by graphviz version 2.49.1 (20210923.0004)
 -->
<!-- Pages: 1 -->
<svg width="278pt" height="392pt"
 viewBox="0.00 0.00 278.00 392.00" xmlns="http://www.w3.org/2000/svg" xmlns:xlink="http://www.w3.org/1999/xlink">
<g id="graph0" class="graph" transform="scale(1 1) rotate(0) translate(4 388)">
<polygon fill="white" stroke="transparent" points="-4,4 -4,-388 274,-388 274,4 -4,4"/>
<!-- B -->
<g id="node1" class="node">
<title>B</title>
<ellipse fill="none" stroke="black" cx="243" cy="-105" rx="27" ry="18"/>
<text text-anchor="middle" x="243" y="-101.3" font-family="Times,serif" font-size="14.00">B</text>
</g>
<!-- A -->
<g id="node2" class="node">
<title>A</title>
<ellipse fill="none" stroke="black" cx="207" cy="-18" rx="27" ry="18"/>
<text text-anchor="middle" x="207" y="-14.3" font-family="Times,serif" font-size="14.00">A</text>
</g>
<!-- B&#45;&#45;A -->
<g id="edge1" class="edge">
<title>B&#45;&#45;A</title>
<path fill="none" stroke="black" d="M235.89,-87.21C229.54,-72.21 220.29,-50.37 213.98,-35.47"/>
<text text-anchor="middle" x="234" y="-57.8" font-family="Times,serif" font-size="14.00">13</text>
</g>
<!-- C -->
<g id="node3" class="node">
<title>C</title>
<ellipse fill="none" stroke="black" cx="171" cy="-105" rx="27" ry="18"/>
<text text-anchor="middle" x="171" y="-101.3" font-family="Times,serif" font-size="14.00">C</text>
</g>
<!-- C&#45;&#45;A -->
<g id="edge2" class="edge">
<title>C&#45;&#45;A</title>
<path fill="none" stroke="black" d="M178.11,-87.21C184.46,-72.21 193.71,-50.37 200.02,-35.47"/>
<text text-anchor="middle" x="195.5" y="-57.8" font-family="Times,serif" font-size="14.00">6</text>
</g>
<!-- E -->
<g id="node4" class="node">
<title>E</title>
<ellipse fill="none" stroke="black" cx="99" cy="-192" rx="27" ry="18"/>
<text text-anchor="middle" x="99" y="-188.3" font-family="Times,serif" font-size="14.00">E</text>
</g>
<!-- E&#45;&#45;C -->
<g id="edge3" class="edge">
<title>E&#45;&#45;C</title>
<path fill="none" stroke="black" d="M111.87,-175.8C124.98,-160.33 145.17,-136.49 158.24,-121.06"/>
<text text-anchor="middle" x="143.5" y="-144.8" font-family="Times,serif" font-size="14.00">8</text>
</g>
<!-- H -->
<g id="node5" class="node">
<title>H</title>
<ellipse fill="none" stroke="black" cx="171" cy="-192" rx="27" ry="18"/>
<text text-anchor="middle" x="171" y="-188.3" font-family="Times,serif" font-size="14.00">H</text>
</g>
<!-- H&#45;&#45;C -->
<g id="edge4" class="edge">
<title>H&#45;&#45;C</title>
<path fill="none" stroke="black" d="M171,-173.8C171,-159.05 171,-137.92 171,-123.18"/>
<text text-anchor="middle" x="178" y="-144.8" font-family="Times,serif" font-size="14.00">20</text>
</g>
<!-- D -->
<g id="node6" class="node">
<title>D</title>
<ellipse fill="none" stroke="black" cx="243" cy="-192" rx="27" ry="18"/>
<text text-anchor="middle" x="243" y="-188.3" font-family="Times,serif" font-size="14.00">D</text>
</g>
<!-- D&#45;&#45;B -->
<g id="edge5" class="edge">
<title>D&#45;&#45;B</title>
<path fill="none" stroke="black" d="M243,-173.8C243,-159.05 243,-137.92 243,-123.18"/>
<text text-anchor="middle" x="246.5" y="-144.8" font-family="Times,serif" font-size="14.00">1</text>
</g>
<!-- F -->
<g id="node7" class="node">
<title>F</title>
<ellipse fill="none" stroke="black" cx="27" cy="-279" rx="27" ry="18"/>
<text text-anchor="middle" x="27" y="-275.3" font-family="Times,serif" font-size="14.00">F</text>
</g>
<!-- F&#45;&#45;E -->
<g id="edge6" class="edge">
<title>F&#45;&#45;E</title>
<path fill="none" stroke="black" d="M39.87,-262.8C52.98,-247.33 73.17,-223.49 86.24,-208.06"/>
<text text-anchor="middle" x="71.5" y="-231.8" font-family="Times,serif" font-size="14.00">2</text>
</g>
<!-- J -->
<g id="node8" class="node">
<title>J</title>
<ellipse fill="none" stroke="black" cx="99" cy="-279" rx="27" ry="18"/>
<text text-anchor="middle" x="99" y="-275.3" font-family="Times,serif" font-size="14.00">J</text>
</g>
<!-- J&#45;&#45;E -->
<g id="edge7" class="edge">
<title>J&#45;&#45;E</title>
<path fill="none" stroke="black" d="M99,-260.8C99,-246.05 99,-224.92 99,-210.18"/>
<text text-anchor="middle" x="106" y="-231.8" font-family="Times,serif" font-size="14.00">18</text>
</g>
<!-- G -->
<g id="node9" class="node">
<title>G</title>
<ellipse fill="none" stroke="black" cx="171" cy="-279" rx="27" ry="18"/>
<text text-anchor="middle" x="171" y="-275.3" font-family="Times,serif" font-size="14.00">G</text>
</g>
<!-- G&#45;&#45;H -->
<g id="edge8" class="edge">
<title>G&#45;&#45;H</title>
<path fill="none" stroke="black" d="M171,-260.8C171,-246.05 171,-224.92 171,-210.18"/>
<text text-anchor="middle" x="178" y="-231.8" font-family="Times,serif" font-size="14.00">15</text>
</g>
<!-- L -->
<g id="node10" class="node">
<title>L</title>
<ellipse fill="none" stroke="black" cx="27" cy="-366" rx="27" ry="18"/>
<text text-anchor="middle" x="27" y="-362.3" font-family="Times,serif" font-size="14.00">L</text>
</g>
<!-- L&#45;&#45;J -->
<g id="edge9" class="edge">
<title>L&#45;&#45;J</title>
<path fill="none" stroke="black" d="M39.87,-349.8C52.98,-334.33 73.17,-310.49 86.24,-295.06"/>
<text text-anchor="middle" x="71.5" y="-318.8" font-family="Times,serif" font-size="14.00">4</text>
</g>
<!-- K -->
<g id="node11" class="node">
<title>K</title>
<ellipse fill="none" stroke="black" cx="99" cy="-366" rx="27" ry="18"/>
<text text-anchor="middle" x="99" y="-362.3" font-family="Times,serif" font-size="14.00">K</text>
</g>
<!-- K&#45;&#45;J -->
<g id="edge10" class="edge">
<title>K&#45;&#45;J</title>
<path fill="none" stroke="black" d="M99,-347.8C99,-333.05 99,-311.92 99,-297.18"/>
<text text-anchor="middle" x="106" y="-318.8" font-family="Times,serif" font-size="14.00">16</text>
</g>
<!-- I -->
<g id="node12" class="node">
<title>I</title>
<ellipse fill="none" stroke="black" cx="171" cy="-366" rx="27" ry="18"/>
<text text-anchor="middle" x="171" y="-362.3" font-family="Times,serif" font-size="14.00">I</text>
</g>
<!-- I&#45;&#45;G -->
<g id="edge11" class="edge">
<title>I&#45;&#45;G</title>
<path fill="none" stroke="black" d="M171,-347.8C171,-333.05 171,-311.92 171,-297.18"/>
<text text-anchor="middle" x="174.5" y="-318.8" font-family="Times,serif" font-size="14.00">5</text>
</g>
</g>
</svg>
