<?xml version="1.0" encoding="UTF-8" standalone="no"?>
<!DOCTYPE svg PUBLIC "-//W3C//DTD SVG 1.1//EN"
 "http://www.w3.org/Graphics/SVG/1.1/DTD/svg11.dtd">
<!-- Generated by graphviz version 8.1.0 (0)
 -->
<!-- Pages: 1 -->
<svg width="206pt" height="398pt"
 viewBox="0.00 0.00 206.00 398.00" xmlns="http://www.w3.org/2000/svg" xmlns:xlink="http://www.w3.org/1999/xlink">
<g id="graph0" class="graph" transform="scale(1 1) rotate(0) translate(4 394)">
<polygon fill="white" stroke="none" points="-4,4 -4,-394 202,-394 202,4 -4,4"/>
<!-- C -->
<g id="node1" class="node">
<title>C</title>
<ellipse fill="none" stroke="black" cx="99" cy="-106.5" rx="27" ry="18"/>
<text text-anchor="middle" x="99" y="-101.45" font-family="Times,serif" font-size="14.00">C</text>
</g>
<!-- A -->
<g id="node2" class="node">
<title>A</title>
<ellipse fill="none" stroke="black" cx="62" cy="-18" rx="27" ry="18"/>
<text text-anchor="middle" x="62" y="-12.95" font-family="Times,serif" font-size="14.00">A</text>
</g>
<!-- C&#45;&#45;A -->
<g id="edge1" class="edge">
<title>C&#45;&#45;A</title>
<path fill="none" stroke="black" d="M91.87,-88.82C85.31,-73.5 75.66,-50.93 69.11,-35.63"/>
<text text-anchor="middle" x="87.38" y="-57.2" font-family="Times,serif" font-size="14.00">6</text>
</g>
<!-- B -->
<g id="node3" class="node">
<title>B</title>
<ellipse fill="none" stroke="black" cx="27" cy="-106.5" rx="27" ry="18"/>
<text text-anchor="middle" x="27" y="-101.45" font-family="Times,serif" font-size="14.00">B</text>
</g>
<!-- B&#45;&#45;A -->
<g id="edge2" class="edge">
<title>B&#45;&#45;A</title>
<path fill="none" stroke="black" d="M33.75,-88.82C39.95,-73.5 49.08,-50.93 55.27,-35.63"/>
<text text-anchor="middle" x="54.75" y="-57.2" font-family="Times,serif" font-size="14.00">13</text>
</g>
<!-- E -->
<g id="node4" class="node">
<title>E</title>
<ellipse fill="none" stroke="black" cx="99" cy="-195" rx="27" ry="18"/>
<text text-anchor="middle" x="99" y="-189.95" font-family="Times,serif" font-size="14.00">E</text>
</g>
<!-- E&#45;&#45;C -->
<g id="edge3" class="edge">
<title>E&#45;&#45;C</title>
<path fill="none" stroke="black" d="M99,-176.91C99,-161.84 99,-139.99 99,-124.85"/>
<text text-anchor="middle" x="102.38" y="-145.7" font-family="Times,serif" font-size="14.00">8</text>
</g>
<!-- D -->
<g id="node5" class="node">
<title>D</title>
<ellipse fill="none" stroke="black" cx="27" cy="-195" rx="27" ry="18"/>
<text text-anchor="middle" x="27" y="-189.95" font-family="Times,serif" font-size="14.00">D</text>
</g>
<!-- D&#45;&#45;B -->
<g id="edge4" class="edge">
<title>D&#45;&#45;B</title>
<path fill="none" stroke="black" d="M27,-176.91C27,-161.84 27,-139.99 27,-124.85"/>
<text text-anchor="middle" x="30.38" y="-145.7" font-family="Times,serif" font-size="14.00">1</text>
</g>
<!-- H -->
<g id="node6" class="node">
<title>H</title>
<ellipse fill="none" stroke="black" cx="171" cy="-195" rx="27" ry="18"/>
<text text-anchor="middle" x="171" y="-189.95" font-family="Times,serif" font-size="14.00">H</text>
</g>
<!-- H&#45;&#45;C -->
<g id="edge5" class="edge">
<title>H&#45;&#45;C</title>
<path fill="none" stroke="black" d="M158.46,-178.93C145.32,-163.15 124.81,-138.51 111.64,-122.68"/>
<text text-anchor="middle" x="148.75" y="-145.7" font-family="Times,serif" font-size="14.00">20</text>
</g>
<!-- F -->
<g id="node7" class="node">
<title>F</title>
<ellipse fill="none" stroke="black" cx="27" cy="-283.5" rx="27" ry="18"/>
<text text-anchor="middle" x="27" y="-278.45" font-family="Times,serif" font-size="14.00">F</text>
</g>
<!-- F&#45;&#45;E -->
<g id="edge6" class="edge">
<title>F&#45;&#45;E</title>
<path fill="none" stroke="black" d="M39.54,-267.43C52.68,-251.65 73.19,-227.01 86.36,-211.18"/>
<text text-anchor="middle" x="73.38" y="-234.2" font-family="Times,serif" font-size="14.00">2</text>
</g>
<!-- J -->
<g id="node8" class="node">
<title>J</title>
<ellipse fill="none" stroke="black" cx="99" cy="-283.5" rx="27" ry="18"/>
<text text-anchor="middle" x="99" y="-278.45" font-family="Times,serif" font-size="14.00">J</text>
</g>
<!-- J&#45;&#45;E -->
<g id="edge7" class="edge">
<title>J&#45;&#45;E</title>
<path fill="none" stroke="black" d="M99,-265.41C99,-250.34 99,-228.49 99,-213.35"/>
<text text-anchor="middle" x="105.75" y="-234.2" font-family="Times,serif" font-size="14.00">18</text>
</g>
<!-- G -->
<g id="node9" class="node">
<title>G</title>
<ellipse fill="none" stroke="black" cx="171" cy="-283.5" rx="27" ry="18"/>
<text text-anchor="middle" x="171" y="-278.45" font-family="Times,serif" font-size="14.00">G</text>
</g>
<!-- G&#45;&#45;H -->
<g id="edge8" class="edge">
<title>G&#45;&#45;H</title>
<path fill="none" stroke="black" d="M171,-265.41C171,-250.34 171,-228.49 171,-213.35"/>
<text text-anchor="middle" x="177.75" y="-234.2" font-family="Times,serif" font-size="14.00">15</text>
</g>
<!-- K -->
<g id="node10" class="node">
<title>K</title>
<ellipse fill="none" stroke="black" cx="27" cy="-372" rx="27" ry="18"/>
<text text-anchor="middle" x="27" y="-366.95" font-family="Times,serif" font-size="14.00">K</text>
</g>
<!-- K&#45;&#45;J -->
<g id="edge9" class="edge">
<title>K&#45;&#45;J</title>
<path fill="none" stroke="black" d="M39.54,-355.93C52.68,-340.15 73.19,-315.51 86.36,-299.68"/>
<text text-anchor="middle" x="76.75" y="-322.7" font-family="Times,serif" font-size="14.00">16</text>
</g>
<!-- L -->
<g id="node11" class="node">
<title>L</title>
<ellipse fill="none" stroke="black" cx="99" cy="-372" rx="27" ry="18"/>
<text text-anchor="middle" x="99" y="-366.95" font-family="Times,serif" font-size="14.00">L</text>
</g>
<!-- L&#45;&#45;J -->
<g id="edge10" class="edge">
<title>L&#45;&#45;J</title>
<path fill="none" stroke="black" d="M99,-353.91C99,-338.84 99,-316.99 99,-301.85"/>
<text text-anchor="middle" x="102.38" y="-322.7" font-family="Times,serif" font-size="14.00">4</text>
</g>
<!-- I -->
<g id="node12" class="node">
<title>I</title>
<ellipse fill="none" stroke="black" cx="171" cy="-372" rx="27" ry="18"/>
<text text-anchor="middle" x="171" y="-366.95" font-family="Times,serif" font-size="14.00">I</text>
</g>
<!-- I&#45;&#45;G -->
<g id="edge11" class="edge">
<title>I&#45;&#45;G</title>
<path fill="none" stroke="black" d="M171,-353.91C171,-338.84 171,-316.99 171,-301.85"/>
<text text-anchor="middle" x="174.38" y="-322.7" font-family="Times,serif" font-size="14.00">5</text>
</g>
</g>
</svg>
