<?xml version="1.0" encoding="UTF-8" standalone="no"?>
<!DOCTYPE svg PUBLIC "-//W3C//DTD SVG 1.1//EN"
 "http://www.w3.org/Graphics/SVG/1.1/DTD/svg11.dtd">
<!-- Generated by graphviz version 2.48.0 (20210717.1556)
 -->
<!-- Pages: 1 -->
<svg width="473pt" height="479pt"
 viewBox="0.00 0.00 473.00 479.00" xmlns="http://www.w3.org/2000/svg" xmlns:xlink="http://www.w3.org/1999/xlink">
<g id="graph0" class="graph" transform="scale(1 1) rotate(0) translate(4 475)">
<polygon fill="white" stroke="transparent" points="-4,4 -4,-475 469,-475 469,4 -4,4"/>
<!-- B -->
<g id="node1" class="node">
<title>B</title>
<ellipse fill="none" stroke="black" cx="93" cy="-279" rx="27" ry="18"/>
<text text-anchor="middle" x="93" y="-275.3" font-family="Times,serif" font-size="14.00">B</text>
</g>
<!-- D -->
<g id="node2" class="node">
<title>D</title>
<ellipse fill="none" stroke="black" cx="151" cy="-192" rx="27" ry="18"/>
<text text-anchor="middle" x="151" y="-188.3" font-family="Times,serif" font-size="14.00">D</text>
</g>
<!-- B&#45;&#45;D -->
<g id="edge1" class="edge">
<title>B&#45;&#45;D</title>
<path fill="none" stroke="black" d="M103.64,-262.41C114.04,-247.17 129.79,-224.08 140.23,-208.78"/>
<text text-anchor="middle" x="128.5" y="-231.8" font-family="Times,serif" font-size="14.00">1</text>
</g>
<!-- C -->
<g id="node3" class="node">
<title>C</title>
<ellipse fill="none" stroke="black" cx="93" cy="-105" rx="27" ry="18"/>
<text text-anchor="middle" x="93" y="-101.3" font-family="Times,serif" font-size="14.00">C</text>
</g>
<!-- B&#45;&#45;C -->
<g id="edge2" class="edge">
<title>B&#45;&#45;C</title>
<path fill="none" stroke="black" d="M93,-260.88C93,-227.91 93,-155.97 93,-123.05"/>
<text text-anchor="middle" x="96.5" y="-188.3" font-family="Times,serif" font-size="14.00">7</text>
</g>
<!-- A -->
<g id="node4" class="node">
<title>A</title>
<ellipse fill="none" stroke="black" cx="75" cy="-18" rx="27" ry="18"/>
<text text-anchor="middle" x="75" y="-14.3" font-family="Times,serif" font-size="14.00">A</text>
</g>
<!-- B&#45;&#45;A -->
<g id="edge3" class="edge">
<title>B&#45;&#45;A</title>
<path fill="none" stroke="black" d="M86.3,-261.5C73.71,-228.52 48.53,-152.08 57,-87 59.32,-69.2 64.91,-49.42 69.25,-35.8"/>
<text text-anchor="middle" x="65" y="-144.8" font-family="Times,serif" font-size="14.00">13</text>
</g>
<!-- D&#45;&#45;C -->
<g id="edge9" class="edge">
<title>D&#45;&#45;C</title>
<path fill="none" stroke="black" d="M140.36,-175.41C129.96,-160.17 114.21,-137.08 103.77,-121.78"/>
<text text-anchor="middle" x="132" y="-144.8" font-family="Times,serif" font-size="14.00">14</text>
</g>
<!-- E -->
<g id="node8" class="node">
<title>E</title>
<ellipse fill="none" stroke="black" cx="170" cy="-18" rx="27" ry="18"/>
<text text-anchor="middle" x="170" y="-14.3" font-family="Times,serif" font-size="14.00">E</text>
</g>
<!-- D&#45;&#45;E -->
<g id="edge7" class="edge">
<title>D&#45;&#45;E</title>
<path fill="none" stroke="black" d="M152.89,-173.88C156.53,-140.91 164.48,-68.97 168.12,-36.05"/>
<text text-anchor="middle" x="165.5" y="-101.3" font-family="Times,serif" font-size="14.00">9</text>
</g>
<!-- F -->
<g id="node9" class="node">
<title>F</title>
<ellipse fill="none" stroke="black" cx="208" cy="-105" rx="27" ry="18"/>
<text text-anchor="middle" x="208" y="-101.3" font-family="Times,serif" font-size="14.00">F</text>
</g>
<!-- D&#45;&#45;F -->
<g id="edge8" class="edge">
<title>D&#45;&#45;F</title>
<path fill="none" stroke="black" d="M161.72,-175.01C171.98,-159.72 187.35,-136.8 197.52,-121.63"/>
<text text-anchor="middle" x="185.5" y="-144.8" font-family="Times,serif" font-size="14.00">3</text>
</g>
<!-- C&#45;&#45;A -->
<g id="edge13" class="edge">
<title>C&#45;&#45;A</title>
<path fill="none" stroke="black" d="M89.36,-86.8C86.21,-71.95 81.7,-50.64 78.58,-35.89"/>
<text text-anchor="middle" x="88.5" y="-57.8" font-family="Times,serif" font-size="14.00">6</text>
</g>
<!-- C&#45;&#45;E -->
<g id="edge14" class="edge">
<title>C&#45;&#45;E</title>
<path fill="none" stroke="black" d="M105.17,-88.83C113.38,-78.77 124.58,-65.36 135,-54 141.39,-47.03 148.75,-39.59 155.07,-33.37"/>
<text text-anchor="middle" x="138.5" y="-57.8" font-family="Times,serif" font-size="14.00">8</text>
</g>
<!-- H -->
<g id="node5" class="node">
<title>H</title>
<ellipse fill="none" stroke="black" cx="257" cy="-453" rx="27" ry="18"/>
<text text-anchor="middle" x="257" y="-449.3" font-family="Times,serif" font-size="14.00">H</text>
</g>
<!-- H&#45;&#45;C -->
<g id="edge5" class="edge">
<title>H&#45;&#45;C</title>
<path fill="none" stroke="black" d="M230.46,-448.96C164.8,-440.7 0,-415.17 0,-367 0,-367 0,-367 0,-191 0,-153.16 42.47,-127.64 70.01,-115.08"/>
<text text-anchor="middle" x="7" y="-275.3" font-family="Times,serif" font-size="14.00">20</text>
</g>
<!-- G -->
<g id="node6" class="node">
<title>G</title>
<ellipse fill="none" stroke="black" cx="257" cy="-366" rx="27" ry="18"/>
<text text-anchor="middle" x="257" y="-362.3" font-family="Times,serif" font-size="14.00">G</text>
</g>
<!-- H&#45;&#45;G -->
<g id="edge4" class="edge">
<title>H&#45;&#45;G</title>
<path fill="none" stroke="black" d="M257,-434.8C257,-420.05 257,-398.92 257,-384.18"/>
<text text-anchor="middle" x="264" y="-405.8" font-family="Times,serif" font-size="14.00">15</text>
</g>
<!-- J -->
<g id="node7" class="node">
<title>J</title>
<ellipse fill="none" stroke="black" cx="316" cy="-105" rx="27" ry="18"/>
<text text-anchor="middle" x="316" y="-101.3" font-family="Times,serif" font-size="14.00">J</text>
</g>
<!-- H&#45;&#45;J -->
<g id="edge6" class="edge">
<title>H&#45;&#45;J</title>
<path fill="none" stroke="black" d="M283.97,-452.06C337.28,-450.61 451,-439.07 451,-367 451,-367 451,-367 451,-191 451,-140.04 381.26,-118.42 342.03,-110.3"/>
<text text-anchor="middle" x="458" y="-275.3" font-family="Times,serif" font-size="14.00">17</text>
</g>
<!-- G&#45;&#45;J -->
<g id="edge12" class="edge">
<title>G&#45;&#45;J</title>
<path fill="none" stroke="black" d="M253.49,-347.98C252.47,-342.29 251.5,-335.9 251,-330 247.15,-284.78 244.58,-271.93 256,-228 266.58,-187.34 291.45,-144.24 305.63,-121.75"/>
<text text-anchor="middle" x="263" y="-231.8" font-family="Times,serif" font-size="14.00">19</text>
</g>
<!-- K -->
<g id="node10" class="node">
<title>K</title>
<ellipse fill="none" stroke="black" cx="316" cy="-192" rx="27" ry="18"/>
<text text-anchor="middle" x="316" y="-188.3" font-family="Times,serif" font-size="14.00">K</text>
</g>
<!-- G&#45;&#45;K -->
<g id="edge10" class="edge">
<title>G&#45;&#45;K</title>
<path fill="none" stroke="black" d="M255.71,-347.81C254.73,-326.66 255.08,-290 266,-261 273.8,-240.29 289.79,-220.36 301.6,-207.48"/>
<text text-anchor="middle" x="273" y="-275.3" font-family="Times,serif" font-size="14.00">10</text>
</g>
<!-- I -->
<g id="node11" class="node">
<title>I</title>
<ellipse fill="none" stroke="black" cx="316" cy="-279" rx="27" ry="18"/>
<text text-anchor="middle" x="316" y="-275.3" font-family="Times,serif" font-size="14.00">I</text>
</g>
<!-- G&#45;&#45;I -->
<g id="edge11" class="edge">
<title>G&#45;&#45;I</title>
<path fill="none" stroke="black" d="M267.82,-349.41C278.4,-334.17 294.42,-311.08 305.05,-295.78"/>
<text text-anchor="middle" x="293.5" y="-318.8" font-family="Times,serif" font-size="14.00">5</text>
</g>
<!-- J&#45;&#45;E -->
<g id="edge20" class="edge">
<title>J&#45;&#45;E</title>
<path fill="none" stroke="black" d="M296.31,-92.54C268.44,-76.31 217.79,-46.82 189.84,-30.55"/>
<text text-anchor="middle" x="258" y="-57.8" font-family="Times,serif" font-size="14.00">18</text>
</g>
<!-- F&#45;&#45;E -->
<g id="edge18" class="edge">
<title>F&#45;&#45;E</title>
<path fill="none" stroke="black" d="M200.67,-87.61C193.94,-72.56 184.03,-50.37 177.3,-35.34"/>
<text text-anchor="middle" x="194.5" y="-57.8" font-family="Times,serif" font-size="14.00">2</text>
</g>
<!-- K&#45;&#45;J -->
<g id="edge19" class="edge">
<title>K&#45;&#45;J</title>
<path fill="none" stroke="black" d="M316,-173.8C316,-159.05 316,-137.92 316,-123.18"/>
<text text-anchor="middle" x="323" y="-144.8" font-family="Times,serif" font-size="14.00">16</text>
</g>
<!-- I&#45;&#45;K -->
<g id="edge15" class="edge">
<title>I&#45;&#45;K</title>
<path fill="none" stroke="black" d="M316,-260.8C316,-246.05 316,-224.92 316,-210.18"/>
<text text-anchor="middle" x="323" y="-231.8" font-family="Times,serif" font-size="14.00">11</text>
</g>
<!-- L -->
<g id="node12" class="node">
<title>L</title>
<ellipse fill="none" stroke="black" cx="388" cy="-279" rx="27" ry="18"/>
<text text-anchor="middle" x="388" y="-275.3" font-family="Times,serif" font-size="14.00">L</text>
</g>
<!-- L&#45;&#45;J -->
<g id="edge17" class="edge">
<title>L&#45;&#45;J</title>
<path fill="none" stroke="black" d="M382.85,-261.27C379.8,-251.53 375.8,-239.03 372,-228 363.65,-203.81 362.45,-197.36 352,-174 343.87,-155.83 333.01,-135.78 325.35,-122.19"/>
<text text-anchor="middle" x="368.5" y="-188.3" font-family="Times,serif" font-size="14.00">4</text>
</g>
<!-- L&#45;&#45;K -->
<g id="edge16" class="edge">
<title>L&#45;&#45;K</title>
<path fill="none" stroke="black" d="M375.12,-263.04C369.81,-256.85 363.59,-249.59 358,-243 348.17,-231.42 337.12,-218.26 328.83,-208.35"/>
<text text-anchor="middle" x="365" y="-231.8" font-family="Times,serif" font-size="14.00">12</text>
</g>
</g>
</svg>
