<?xml version="1.0" encoding="UTF-8" standalone="no"?>
<!DOCTYPE svg PUBLIC "-//W3C//DTD SVG 1.1//EN"
 "http://www.w3.org/Graphics/SVG/1.1/DTD/svg11.dtd">
<!-- Generated by graphviz version 2.49.1 (20210923.0004)
 -->
<!-- Pages: 1 -->
<svg width="446pt" height="392pt"
 viewBox="0.00 0.00 446.18 392.00" xmlns="http://www.w3.org/2000/svg" xmlns:xlink="http://www.w3.org/1999/xlink">
<g id="graph0" class="graph" transform="scale(1 1) rotate(0) translate(4 388)">
<polygon fill="white" stroke="transparent" points="-4,4 -4,-388 442.18,-388 442.18,4 -4,4"/>
<!-- G -->
<g id="node1" class="node">
<title>G</title>
<ellipse fill="none" stroke="black" cx="85.18" cy="-279" rx="27" ry="18"/>
<text text-anchor="middle" x="85.18" y="-275.3" font-family="Times,serif" font-size="14.00">G</text>
</g>
<!-- K -->
<g id="node2" class="node">
<title>K</title>
<ellipse fill="none" stroke="black" cx="58.18" cy="-105" rx="27" ry="18"/>
<text text-anchor="middle" x="58.18" y="-101.3" font-family="Times,serif" font-size="14.00">K</text>
</g>
<!-- G&#45;&#45;K -->
<g id="edge1" class="edge">
<title>G&#45;&#45;K</title>
<path fill="none" stroke="black" d="M64.05,-267.29C44.42,-256.03 16.44,-236.29 4.18,-210 -11.2,-176.99 21.33,-139.3 42.29,-119.61"/>
<text text-anchor="middle" x="11.18" y="-188.3" font-family="Times,serif" font-size="14.00">10</text>
</g>
<!-- H -->
<g id="node3" class="node">
<title>H</title>
<ellipse fill="none" stroke="black" cx="189.18" cy="-105" rx="27" ry="18"/>
<text text-anchor="middle" x="189.18" y="-101.3" font-family="Times,serif" font-size="14.00">H</text>
</g>
<!-- G&#45;&#45;H -->
<g id="edge2" class="edge">
<title>G&#45;&#45;H</title>
<path fill="none" stroke="black" d="M104.27,-266.08C121.93,-254.06 147.59,-233.9 162.18,-210 179,-182.46 185.42,-144.65 187.81,-123.02"/>
<text text-anchor="middle" x="184.18" y="-188.3" font-family="Times,serif" font-size="14.00">15</text>
</g>
<!-- J -->
<g id="node4" class="node">
<title>J</title>
<ellipse fill="none" stroke="black" cx="126.18" cy="-192" rx="27" ry="18"/>
<text text-anchor="middle" x="126.18" y="-188.3" font-family="Times,serif" font-size="14.00">J</text>
</g>
<!-- G&#45;&#45;J -->
<g id="edge3" class="edge">
<title>G&#45;&#45;J</title>
<path fill="none" stroke="black" d="M93.09,-261.61C100.35,-246.56 111.05,-224.37 118.3,-209.34"/>
<text text-anchor="middle" x="114.18" y="-231.8" font-family="Times,serif" font-size="14.00">19</text>
</g>
<!-- I -->
<g id="node5" class="node">
<title>I</title>
<ellipse fill="none" stroke="black" cx="54.18" cy="-192" rx="27" ry="18"/>
<text text-anchor="middle" x="54.18" y="-188.3" font-family="Times,serif" font-size="14.00">I</text>
</g>
<!-- G&#45;&#45;I -->
<g id="edge4" class="edge">
<title>G&#45;&#45;I</title>
<path fill="none" stroke="black" d="M79.06,-261.21C73.62,-246.31 65.72,-224.65 60.29,-209.76"/>
<text text-anchor="middle" x="75.68" y="-231.8" font-family="Times,serif" font-size="14.00">5</text>
</g>
<!-- L -->
<g id="node12" class="node">
<title>L</title>
<ellipse fill="none" stroke="black" cx="102.18" cy="-18" rx="27" ry="18"/>
<text text-anchor="middle" x="102.18" y="-14.3" font-family="Times,serif" font-size="14.00">L</text>
</g>
<!-- K&#45;&#45;L -->
<g id="edge16" class="edge">
<title>K&#45;&#45;L</title>
<path fill="none" stroke="black" d="M66.67,-87.61C74.46,-72.56 85.94,-50.37 93.72,-35.34"/>
<text text-anchor="middle" x="90.18" y="-57.8" font-family="Times,serif" font-size="14.00">12</text>
</g>
<!-- C -->
<g id="node8" class="node">
<title>C</title>
<ellipse fill="none" stroke="black" cx="289.18" cy="-18" rx="27" ry="18"/>
<text text-anchor="middle" x="289.18" y="-14.3" font-family="Times,serif" font-size="14.00">C</text>
</g>
<!-- H&#45;&#45;C -->
<g id="edge19" class="edge">
<title>H&#45;&#45;C</title>
<path fill="none" stroke="black" d="M197.58,-87.62C203.62,-77.04 212.55,-63.53 223.18,-54 235.84,-42.66 252.82,-33.76 266.39,-27.78"/>
<text text-anchor="middle" x="230.18" y="-57.8" font-family="Times,serif" font-size="14.00">20</text>
</g>
<!-- J&#45;&#45;K -->
<g id="edge15" class="edge">
<title>J&#45;&#45;K</title>
<path fill="none" stroke="black" d="M113.38,-175.75C108.3,-169.64 102.42,-162.52 97.18,-156 87.94,-144.5 77.69,-131.34 70.01,-121.41"/>
<text text-anchor="middle" x="104.18" y="-144.8" font-family="Times,serif" font-size="14.00">16</text>
</g>
<!-- J&#45;&#45;H -->
<g id="edge14" class="edge">
<title>J&#45;&#45;H</title>
<path fill="none" stroke="black" d="M136.96,-175.05C143.76,-165.14 152.8,-152.2 161.18,-141 166.13,-134.4 171.78,-127.26 176.7,-121.17"/>
<text text-anchor="middle" x="168.18" y="-144.8" font-family="Times,serif" font-size="14.00">17</text>
</g>
<!-- J&#45;&#45;L -->
<g id="edge13" class="edge">
<title>J&#45;&#45;L</title>
<path fill="none" stroke="black" d="M123.79,-173.88C119.19,-140.91 109.15,-68.97 104.56,-36.05"/>
<text text-anchor="middle" x="119.68" y="-101.3" font-family="Times,serif" font-size="14.00">4</text>
</g>
<!-- I&#45;&#45;K -->
<g id="edge7" class="edge">
<title>I&#45;&#45;K</title>
<path fill="none" stroke="black" d="M54.99,-173.8C55.69,-159.05 56.68,-137.92 57.37,-123.18"/>
<text text-anchor="middle" x="64.18" y="-144.8" font-family="Times,serif" font-size="14.00">11</text>
</g>
<!-- A -->
<g id="node6" class="node">
<title>A</title>
<ellipse fill="none" stroke="black" cx="378.18" cy="-279" rx="27" ry="18"/>
<text text-anchor="middle" x="378.18" y="-275.3" font-family="Times,serif" font-size="14.00">A</text>
</g>
<!-- B -->
<g id="node7" class="node">
<title>B</title>
<ellipse fill="none" stroke="black" cx="387.18" cy="-192" rx="27" ry="18"/>
<text text-anchor="middle" x="387.18" y="-188.3" font-family="Times,serif" font-size="14.00">B</text>
</g>
<!-- A&#45;&#45;B -->
<g id="edge5" class="edge">
<title>A&#45;&#45;B</title>
<path fill="none" stroke="black" d="M380,-260.8C381.56,-246.05 383.8,-224.92 385.36,-210.18"/>
<text text-anchor="middle" x="390.18" y="-231.8" font-family="Times,serif" font-size="14.00">13</text>
</g>
<!-- A&#45;&#45;C -->
<g id="edge6" class="edge">
<title>A&#45;&#45;C</title>
<path fill="none" stroke="black" d="M371.31,-261.32C365.72,-247.6 357.72,-227.63 351.18,-210 328.17,-147.93 322.58,-132.29 303.18,-69 299.85,-58.14 296.41,-45.86 293.77,-36.18"/>
<text text-anchor="middle" x="334.68" y="-144.8" font-family="Times,serif" font-size="14.00">6</text>
</g>
<!-- B&#45;&#45;C -->
<g id="edge18" class="edge">
<title>B&#45;&#45;C</title>
<path fill="none" stroke="black" d="M377.07,-175.22C368.39,-161.54 355.66,-141.15 345.18,-123 327.55,-92.45 308.33,-56.01 297.62,-35.38"/>
<text text-anchor="middle" x="348.68" y="-101.3" font-family="Times,serif" font-size="14.00">7</text>
</g>
<!-- D -->
<g id="node10" class="node">
<title>D</title>
<ellipse fill="none" stroke="black" cx="388.18" cy="-105" rx="27" ry="18"/>
<text text-anchor="middle" x="388.18" y="-101.3" font-family="Times,serif" font-size="14.00">D</text>
</g>
<!-- B&#45;&#45;D -->
<g id="edge17" class="edge">
<title>B&#45;&#45;D</title>
<path fill="none" stroke="black" d="M387.38,-173.8C387.56,-159.05 387.81,-137.92 387.98,-123.18"/>
<text text-anchor="middle" x="390.68" y="-144.8" font-family="Times,serif" font-size="14.00">1</text>
</g>
<!-- F -->
<g id="node9" class="node">
<title>F</title>
<ellipse fill="none" stroke="black" cx="358.18" cy="-366" rx="27" ry="18"/>
<text text-anchor="middle" x="358.18" y="-362.3" font-family="Times,serif" font-size="14.00">F</text>
</g>
<!-- F&#45;&#45;D -->
<g id="edge8" class="edge">
<title>F&#45;&#45;D</title>
<path fill="none" stroke="black" d="M373.96,-351.07C387.15,-338.4 405.22,-318.45 414.18,-297 435.33,-246.43 436.09,-227.27 423.18,-174 418.52,-154.77 407.43,-134.89 398.97,-121.63"/>
<text text-anchor="middle" x="434.68" y="-231.8" font-family="Times,serif" font-size="14.00">3</text>
</g>
<!-- E -->
<g id="node11" class="node">
<title>E</title>
<ellipse fill="none" stroke="black" cx="274.18" cy="-279" rx="27" ry="18"/>
<text text-anchor="middle" x="274.18" y="-275.3" font-family="Times,serif" font-size="14.00">E</text>
</g>
<!-- F&#45;&#45;E -->
<g id="edge9" class="edge">
<title>F&#45;&#45;E</title>
<path fill="none" stroke="black" d="M343.93,-350.58C328.49,-334.95 303.98,-310.15 288.5,-294.49"/>
<text text-anchor="middle" x="324.68" y="-318.8" font-family="Times,serif" font-size="14.00">2</text>
</g>
<!-- D&#45;&#45;C -->
<g id="edge20" class="edge">
<title>D&#45;&#45;C</title>
<path fill="none" stroke="black" d="M378.3,-87.79C371.35,-77.29 361.32,-63.79 350.18,-54 338.44,-43.68 323.19,-34.93 310.88,-28.76"/>
<text text-anchor="middle" x="371.18" y="-57.8" font-family="Times,serif" font-size="14.00">14</text>
</g>
<!-- E&#45;&#45;J -->
<g id="edge11" class="edge">
<title>E&#45;&#45;J</title>
<path fill="none" stroke="black" d="M254.22,-266.54C225.98,-250.31 174.63,-220.82 146.3,-204.55"/>
<text text-anchor="middle" x="215.18" y="-231.8" font-family="Times,serif" font-size="14.00">18</text>
</g>
<!-- E&#45;&#45;C -->
<g id="edge12" class="edge">
<title>E&#45;&#45;C</title>
<path fill="none" stroke="black" d="M271.62,-261.08C268.2,-237.57 262.34,-193.67 260.18,-156 257.57,-110.25 262.71,-98.09 275.18,-54 276.93,-47.83 279.39,-41.25 281.76,-35.49"/>
<text text-anchor="middle" x="263.68" y="-144.8" font-family="Times,serif" font-size="14.00">8</text>
</g>
<!-- E&#45;&#45;D -->
<g id="edge10" class="edge">
<title>E&#45;&#45;D</title>
<path fill="none" stroke="black" d="M284.7,-262.13C306.42,-229.36 355.99,-154.57 377.69,-121.83"/>
<text text-anchor="middle" x="345.68" y="-188.3" font-family="Times,serif" font-size="14.00">9</text>
</g>
</g>
</svg>
