<?xml version="1.0" encoding="UTF-8" standalone="no"?>
<!DOCTYPE svg PUBLIC "-//W3C//DTD SVG 1.1//EN"
 "http://www.w3.org/Graphics/SVG/1.1/DTD/svg11.dtd">
<!-- Generated by graphviz version 8.1.0 (0)
 -->
<!-- Pages: 1 -->
<svg width="587pt" height="310pt"
 viewBox="0.00 0.00 587.00 309.50" xmlns="http://www.w3.org/2000/svg" xmlns:xlink="http://www.w3.org/1999/xlink">
<g id="graph0" class="graph" transform="scale(1 1) rotate(0) translate(4 305.5)">
<polygon fill="white" stroke="none" points="-4,4 -4,-305.5 583,-305.5 583,4 -4,4"/>
<!-- E -->
<g id="node1" class="node">
<title>E</title>
<ellipse fill="none" stroke="black" cx="45" cy="-283.5" rx="27" ry="18"/>
<text text-anchor="middle" x="45" y="-278.45" font-family="Times,serif" font-size="14.00">E</text>
</g>
<!-- C -->
<g id="node2" class="node">
<title>C</title>
<ellipse fill="none" stroke="black" cx="170" cy="-195" rx="27" ry="18"/>
<text text-anchor="middle" x="170" y="-189.95" font-family="Times,serif" font-size="14.00">C</text>
</g>
<!-- E&#45;&#45;C -->
<g id="edge1" class="edge">
<title>E&#45;&#45;C</title>
<path fill="none" stroke="black" d="M63.18,-269.92C86.88,-253.52 128.09,-225 151.8,-208.59"/>
<text text-anchor="middle" x="122.38" y="-234.2" font-family="Times,serif" font-size="14.00">8</text>
</g>
<!-- D -->
<g id="node3" class="node">
<title>D</title>
<ellipse fill="none" stroke="black" cx="54" cy="-106.5" rx="27" ry="18"/>
<text text-anchor="middle" x="54" y="-101.45" font-family="Times,serif" font-size="14.00">D</text>
</g>
<!-- E&#45;&#45;D -->
<g id="edge2" class="edge">
<title>E&#45;&#45;D</title>
<path fill="none" stroke="black" d="M45.5,-265.24C46.33,-238.81 48.16,-186.69 51,-142.5 51.37,-136.78 51.87,-130.54 52.36,-124.94"/>
<text text-anchor="middle" x="52.38" y="-189.95" font-family="Times,serif" font-size="14.00">9</text>
</g>
<!-- J -->
<g id="node4" class="node">
<title>J</title>
<ellipse fill="none" stroke="black" cx="358" cy="-18" rx="27" ry="18"/>
<text text-anchor="middle" x="358" y="-12.95" font-family="Times,serif" font-size="14.00">J</text>
</g>
<!-- E&#45;&#45;J -->
<g id="edge3" class="edge">
<title>E&#45;&#45;J</title>
<path fill="none" stroke="black" d="M56.29,-266.9C66.35,-252.9 81.38,-231.74 94,-213 130.74,-158.44 122.87,-129.88 174,-88.5 221.91,-49.72 293.73,-31.08 331.93,-23.45"/>
<text text-anchor="middle" x="136.75" y="-145.7" font-family="Times,serif" font-size="14.00">18</text>
</g>
<!-- F -->
<g id="node5" class="node">
<title>F</title>
<ellipse fill="none" stroke="black" cx="27" cy="-18" rx="27" ry="18"/>
<text text-anchor="middle" x="27" y="-12.95" font-family="Times,serif" font-size="14.00">F</text>
</g>
<!-- E&#45;&#45;F -->
<g id="edge4" class="edge">
<title>E&#45;&#45;F</title>
<path fill="none" stroke="black" d="M40.27,-265.46C31.45,-231.8 13.76,-154.33 18,-88.5 19.15,-70.65 21.95,-50.39 24.12,-36.36"/>
<text text-anchor="middle" x="24.38" y="-145.7" font-family="Times,serif" font-size="14.00">2</text>
</g>
<!-- C&#45;&#45;D -->
<g id="edge12" class="edge">
<title>C&#45;&#45;D</title>
<path fill="none" stroke="black" d="M146.34,-185.8C131.16,-179.83 111.54,-170.74 96.5,-159 83.71,-149.02 72.19,-134.55 64.39,-123.49"/>
<text text-anchor="middle" x="103.75" y="-145.7" font-family="Times,serif" font-size="14.00">14</text>
</g>
<!-- A -->
<g id="node7" class="node">
<title>A</title>
<ellipse fill="none" stroke="black" cx="210" cy="-106.5" rx="27" ry="18"/>
<text text-anchor="middle" x="210" y="-101.45" font-family="Times,serif" font-size="14.00">A</text>
</g>
<!-- C&#45;&#45;A -->
<g id="edge13" class="edge">
<title>C&#45;&#45;A</title>
<path fill="none" stroke="black" d="M177.71,-177.32C184.8,-162 195.24,-139.43 202.31,-124.13"/>
<text text-anchor="middle" x="197.38" y="-145.7" font-family="Times,serif" font-size="14.00">6</text>
</g>
<!-- H -->
<g id="node9" class="node">
<title>H</title>
<ellipse fill="none" stroke="black" cx="358" cy="-106.5" rx="27" ry="18"/>
<text text-anchor="middle" x="358" y="-101.45" font-family="Times,serif" font-size="14.00">H</text>
</g>
<!-- C&#45;&#45;H -->
<g id="edge14" class="edge">
<title>C&#45;&#45;H</title>
<path fill="none" stroke="black" d="M189.82,-182.65C209.29,-171.72 239.98,-155.04 267.5,-142.5 289.73,-132.37 315.81,-122.49 334.25,-115.82"/>
<text text-anchor="middle" x="274.75" y="-145.7" font-family="Times,serif" font-size="14.00">20</text>
</g>
<!-- D&#45;&#45;F -->
<g id="edge15" class="edge">
<title>D&#45;&#45;F</title>
<path fill="none" stroke="black" d="M48.67,-88.41C43.93,-73.25 37.05,-51.21 32.32,-36.05"/>
<text text-anchor="middle" x="46.38" y="-57.2" font-family="Times,serif" font-size="14.00">3</text>
</g>
<!-- B -->
<g id="node6" class="node">
<title>B</title>
<ellipse fill="none" stroke="black" cx="170" cy="-283.5" rx="27" ry="18"/>
<text text-anchor="middle" x="170" y="-278.45" font-family="Times,serif" font-size="14.00">B</text>
</g>
<!-- B&#45;&#45;C -->
<g id="edge5" class="edge">
<title>B&#45;&#45;C</title>
<path fill="none" stroke="black" d="M170,-265.41C170,-250.34 170,-228.49 170,-213.35"/>
<text text-anchor="middle" x="173.38" y="-234.2" font-family="Times,serif" font-size="14.00">7</text>
</g>
<!-- B&#45;&#45;D -->
<g id="edge7" class="edge">
<title>B&#45;&#45;D</title>
<path fill="none" stroke="black" d="M146.26,-274.33C132.85,-268.65 116.69,-259.86 106,-247.5 74.29,-210.83 61.16,-153.03 56.38,-124.54"/>
<text text-anchor="middle" x="86.38" y="-189.95" font-family="Times,serif" font-size="14.00">1</text>
</g>
<!-- B&#45;&#45;A -->
<g id="edge6" class="edge">
<title>B&#45;&#45;A</title>
<path fill="none" stroke="black" d="M180.73,-266.76C189.33,-253.18 200.8,-232.71 206,-213 213.99,-182.69 213.09,-145.8 211.61,-124.65"/>
<text text-anchor="middle" x="218.75" y="-189.95" font-family="Times,serif" font-size="14.00">13</text>
</g>
<!-- G -->
<g id="node8" class="node">
<title>G</title>
<ellipse fill="none" stroke="black" cx="400" cy="-283.5" rx="27" ry="18"/>
<text text-anchor="middle" x="400" y="-278.45" font-family="Times,serif" font-size="14.00">G</text>
</g>
<!-- G&#45;&#45;J -->
<g id="edge11" class="edge">
<title>G&#45;&#45;J</title>
<path fill="none" stroke="black" d="M389.18,-266.83C371.01,-239.46 335.07,-180.51 322,-124.5 318.36,-108.92 318.21,-104.05 322,-88.5 326.82,-68.7 338.35,-48.24 347.08,-34.69"/>
<text text-anchor="middle" x="339.75" y="-145.7" font-family="Times,serif" font-size="14.00">19</text>
</g>
<!-- G&#45;&#45;H -->
<g id="edge8" class="edge">
<title>G&#45;&#45;H</title>
<path fill="none" stroke="black" d="M395.9,-265.4C387.87,-231.95 370.16,-158.18 362.12,-124.67"/>
<text text-anchor="middle" x="390.75" y="-189.95" font-family="Times,serif" font-size="14.00">15</text>
</g>
<!-- K -->
<g id="node10" class="node">
<title>K</title>
<ellipse fill="none" stroke="black" cx="445" cy="-195" rx="27" ry="18"/>
<text text-anchor="middle" x="445" y="-189.95" font-family="Times,serif" font-size="14.00">K</text>
</g>
<!-- G&#45;&#45;K -->
<g id="edge9" class="edge">
<title>G&#45;&#45;K</title>
<path fill="none" stroke="black" d="M408.46,-266.23C416.46,-250.86 428.39,-227.93 436.42,-212.49"/>
<text text-anchor="middle" x="433.75" y="-234.2" font-family="Times,serif" font-size="14.00">10</text>
</g>
<!-- I -->
<g id="node11" class="node">
<title>I</title>
<ellipse fill="none" stroke="black" cx="552" cy="-106.5" rx="27" ry="18"/>
<text text-anchor="middle" x="552" y="-101.45" font-family="Times,serif" font-size="14.00">I</text>
</g>
<!-- G&#45;&#45;I -->
<g id="edge10" class="edge">
<title>G&#45;&#45;I</title>
<path fill="none" stroke="black" d="M417.39,-269.53C444.06,-248.83 495.23,-205.85 526,-159 533.26,-147.95 539.94,-134.6 544.72,-124.27"/>
<text text-anchor="middle" x="515.38" y="-189.95" font-family="Times,serif" font-size="14.00">5</text>
</g>
<!-- H&#45;&#45;J -->
<g id="edge16" class="edge">
<title>H&#45;&#45;J</title>
<path fill="none" stroke="black" d="M358,-88.41C358,-73.34 358,-51.49 358,-36.35"/>
<text text-anchor="middle" x="364.75" y="-57.2" font-family="Times,serif" font-size="14.00">17</text>
</g>
<!-- K&#45;&#45;J -->
<g id="edge19" class="edge">
<title>K&#45;&#45;J</title>
<path fill="none" stroke="black" d="M437.19,-177.48C427.3,-156.66 409.66,-119.79 394,-88.5 384.88,-70.27 374.08,-49.54 366.71,-35.5"/>
<text text-anchor="middle" x="418.75" y="-101.45" font-family="Times,serif" font-size="14.00">16</text>
</g>
<!-- K&#45;&#45;I -->
<g id="edge17" class="edge">
<title>K&#45;&#45;I</title>
<path fill="none" stroke="black" d="M461.72,-180.48C481.82,-164.23 515.35,-137.13 535.4,-120.92"/>
<text text-anchor="middle" x="514.75" y="-145.7" font-family="Times,serif" font-size="14.00">11</text>
</g>
<!-- L -->
<g id="node12" class="node">
<title>L</title>
<ellipse fill="none" stroke="black" cx="480" cy="-106.5" rx="27" ry="18"/>
<text text-anchor="middle" x="480" y="-101.45" font-family="Times,serif" font-size="14.00">L</text>
</g>
<!-- K&#45;&#45;L -->
<g id="edge18" class="edge">
<title>K&#45;&#45;L</title>
<path fill="none" stroke="black" d="M451.75,-177.32C457.95,-162 467.08,-139.43 473.27,-124.13"/>
<text text-anchor="middle" x="471.75" y="-145.7" font-family="Times,serif" font-size="14.00">12</text>
</g>
<!-- L&#45;&#45;J -->
<g id="edge20" class="edge">
<title>L&#45;&#45;J</title>
<path fill="none" stroke="black" d="M469.22,-89.94C460.89,-78.81 448.53,-64.06 435,-54 418.86,-41.99 397.94,-32.81 381.98,-26.87"/>
<text text-anchor="middle" x="456.38" y="-57.2" font-family="Times,serif" font-size="14.00">4</text>
</g>
</g>
</svg>
