<?xml version="1.0" encoding="UTF-8" standalone="no"?>
<!DOCTYPE svg PUBLIC "-//W3C//DTD SVG 1.1//EN"
 "http://www.w3.org/Graphics/SVG/1.1/DTD/svg11.dtd">
<!-- Generated by graphviz version 2.49.1 (20210923.0004)
 -->
<!-- Pages: 1 -->
<svg width="206pt" height="827pt"
 viewBox="0.00 0.00 206.00 827.00" xmlns="http://www.w3.org/2000/svg" xmlns:xlink="http://www.w3.org/1999/xlink">
<g id="graph0" class="graph" transform="scale(1 1) rotate(0) translate(4 823)">
<polygon fill="white" stroke="transparent" points="-4,4 -4,-823 202,-823 202,4 -4,4"/>
<!-- I -->
<g id="node1" class="node">
<title>I</title>
<ellipse fill="none" stroke="black" cx="27" cy="-105" rx="27" ry="18"/>
<text text-anchor="middle" x="27" y="-101.3" font-family="Times,serif" font-size="14.00">I</text>
</g>
<!-- G -->
<g id="node2" class="node">
<title>G</title>
<ellipse fill="none" stroke="black" cx="99" cy="-18" rx="27" ry="18"/>
<text text-anchor="middle" x="99" y="-14.3" font-family="Times,serif" font-size="14.00">G</text>
</g>
<!-- I&#45;&#45;G -->
<g id="edge1" class="edge">
<title>I&#45;&#45;G</title>
<path fill="none" stroke="black" d="M39.87,-88.8C52.98,-73.33 73.17,-49.49 86.24,-34.06"/>
<text text-anchor="middle" x="71.5" y="-57.8" font-family="Times,serif" font-size="14.00">5</text>
</g>
<!-- K -->
<g id="node3" class="node">
<title>K</title>
<ellipse fill="none" stroke="black" cx="99" cy="-105" rx="27" ry="18"/>
<text text-anchor="middle" x="99" y="-101.3" font-family="Times,serif" font-size="14.00">K</text>
</g>
<!-- K&#45;&#45;G -->
<g id="edge2" class="edge">
<title>K&#45;&#45;G</title>
<path fill="none" stroke="black" d="M99,-86.8C99,-72.05 99,-50.92 99,-36.18"/>
<text text-anchor="middle" x="106" y="-57.8" font-family="Times,serif" font-size="14.00">10</text>
</g>
<!-- L -->
<g id="node4" class="node">
<title>L</title>
<ellipse fill="none" stroke="black" cx="99" cy="-192" rx="27" ry="18"/>
<text text-anchor="middle" x="99" y="-188.3" font-family="Times,serif" font-size="14.00">L</text>
</g>
<!-- L&#45;&#45;K -->
<g id="edge3" class="edge">
<title>L&#45;&#45;K</title>
<path fill="none" stroke="black" d="M99,-173.8C99,-159.05 99,-137.92 99,-123.18"/>
<text text-anchor="middle" x="106" y="-144.8" font-family="Times,serif" font-size="14.00">12</text>
</g>
<!-- J -->
<g id="node5" class="node">
<title>J</title>
<ellipse fill="none" stroke="black" cx="99" cy="-279" rx="27" ry="18"/>
<text text-anchor="middle" x="99" y="-275.3" font-family="Times,serif" font-size="14.00">J</text>
</g>
<!-- J&#45;&#45;L -->
<g id="edge4" class="edge">
<title>J&#45;&#45;L</title>
<path fill="none" stroke="black" d="M99,-260.8C99,-246.05 99,-224.92 99,-210.18"/>
<text text-anchor="middle" x="102.5" y="-231.8" font-family="Times,serif" font-size="14.00">4</text>
</g>
<!-- H -->
<g id="node6" class="node">
<title>H</title>
<ellipse fill="none" stroke="black" cx="171" cy="-105" rx="27" ry="18"/>
<text text-anchor="middle" x="171" y="-101.3" font-family="Times,serif" font-size="14.00">H</text>
</g>
<!-- H&#45;&#45;G -->
<g id="edge5" class="edge">
<title>H&#45;&#45;G</title>
<path fill="none" stroke="black" d="M158.13,-88.8C145.02,-73.33 124.83,-49.49 111.76,-34.06"/>
<text text-anchor="middle" x="147" y="-57.8" font-family="Times,serif" font-size="14.00">15</text>
</g>
<!-- E -->
<g id="node7" class="node">
<title>E</title>
<ellipse fill="none" stroke="black" cx="99" cy="-366" rx="27" ry="18"/>
<text text-anchor="middle" x="99" y="-362.3" font-family="Times,serif" font-size="14.00">E</text>
</g>
<!-- E&#45;&#45;J -->
<g id="edge6" class="edge">
<title>E&#45;&#45;J</title>
<path fill="none" stroke="black" d="M99,-347.8C99,-333.05 99,-311.92 99,-297.18"/>
<text text-anchor="middle" x="106" y="-318.8" font-family="Times,serif" font-size="14.00">18</text>
</g>
<!-- F -->
<g id="node8" class="node">
<title>F</title>
<ellipse fill="none" stroke="black" cx="99" cy="-453" rx="27" ry="18"/>
<text text-anchor="middle" x="99" y="-449.3" font-family="Times,serif" font-size="14.00">F</text>
</g>
<!-- F&#45;&#45;E -->
<g id="edge7" class="edge">
<title>F&#45;&#45;E</title>
<path fill="none" stroke="black" d="M99,-434.8C99,-420.05 99,-398.92 99,-384.18"/>
<text text-anchor="middle" x="102.5" y="-405.8" font-family="Times,serif" font-size="14.00">2</text>
</g>
<!-- D -->
<g id="node9" class="node">
<title>D</title>
<ellipse fill="none" stroke="black" cx="99" cy="-540" rx="27" ry="18"/>
<text text-anchor="middle" x="99" y="-536.3" font-family="Times,serif" font-size="14.00">D</text>
</g>
<!-- D&#45;&#45;F -->
<g id="edge8" class="edge">
<title>D&#45;&#45;F</title>
<path fill="none" stroke="black" d="M99,-521.8C99,-507.05 99,-485.92 99,-471.18"/>
<text text-anchor="middle" x="102.5" y="-492.8" font-family="Times,serif" font-size="14.00">3</text>
</g>
<!-- B -->
<g id="node10" class="node">
<title>B</title>
<ellipse fill="none" stroke="black" cx="99" cy="-627" rx="27" ry="18"/>
<text text-anchor="middle" x="99" y="-623.3" font-family="Times,serif" font-size="14.00">B</text>
</g>
<!-- B&#45;&#45;D -->
<g id="edge9" class="edge">
<title>B&#45;&#45;D</title>
<path fill="none" stroke="black" d="M99,-608.8C99,-594.05 99,-572.92 99,-558.18"/>
<text text-anchor="middle" x="102.5" y="-579.8" font-family="Times,serif" font-size="14.00">1</text>
</g>
<!-- C -->
<g id="node11" class="node">
<title>C</title>
<ellipse fill="none" stroke="black" cx="99" cy="-714" rx="27" ry="18"/>
<text text-anchor="middle" x="99" y="-710.3" font-family="Times,serif" font-size="14.00">C</text>
</g>
<!-- C&#45;&#45;B -->
<g id="edge10" class="edge">
<title>C&#45;&#45;B</title>
<path fill="none" stroke="black" d="M99,-695.8C99,-681.05 99,-659.92 99,-645.18"/>
<text text-anchor="middle" x="102.5" y="-666.8" font-family="Times,serif" font-size="14.00">7</text>
</g>
<!-- A -->
<g id="node12" class="node">
<title>A</title>
<ellipse fill="none" stroke="black" cx="99" cy="-801" rx="27" ry="18"/>
<text text-anchor="middle" x="99" y="-797.3" font-family="Times,serif" font-size="14.00">A</text>
</g>
<!-- A&#45;&#45;C -->
<g id="edge11" class="edge">
<title>A&#45;&#45;C</title>
<path fill="none" stroke="black" d="M99,-782.8C99,-768.05 99,-746.92 99,-732.18"/>
<text text-anchor="middle" x="102.5" y="-753.8" font-family="Times,serif" font-size="14.00">6</text>
</g>
</g>
</svg>
