<?xml version="1.0" encoding="UTF-8" standalone="no"?>
<!DOCTYPE svg PUBLIC "-//W3C//DTD SVG 1.1//EN"
 "http://www.w3.org/Graphics/SVG/1.1/DTD/svg11.dtd">
<!-- Generated by graphviz version 2.48.0 (20210717.1556)
 -->
<!-- Pages: 1 -->
<svg width="170pt" height="740pt"
 viewBox="0.00 0.00 170.00 740.00" xmlns="http://www.w3.org/2000/svg" xmlns:xlink="http://www.w3.org/1999/xlink">
<g id="graph0" class="graph" transform="scale(1 1) rotate(0) translate(4 736)">
<polygon fill="white" stroke="transparent" points="-4,4 -4,-736 166,-736 166,4 -4,4"/>
<!-- D -->
<g id="node1" class="node">
<title>D</title>
<ellipse fill="none" stroke="black" cx="99" cy="-105" rx="27" ry="18"/>
<text text-anchor="middle" x="99" y="-101.3" font-family="Times,serif" font-size="14.00">D</text>
</g>
<!-- B -->
<g id="node2" class="node">
<title>B</title>
<ellipse fill="none" stroke="black" cx="63" cy="-18" rx="27" ry="18"/>
<text text-anchor="middle" x="63" y="-14.3" font-family="Times,serif" font-size="14.00">B</text>
</g>
<!-- D&#45;&#45;B -->
<g id="edge1" class="edge">
<title>D&#45;&#45;B</title>
<path fill="none" stroke="black" d="M91.89,-87.21C85.54,-72.21 76.29,-50.37 69.98,-35.47"/>
<text text-anchor="middle" x="86.5" y="-57.8" font-family="Times,serif" font-size="14.00">1</text>
</g>
<!-- F -->
<g id="node3" class="node">
<title>F</title>
<ellipse fill="none" stroke="black" cx="99" cy="-192" rx="27" ry="18"/>
<text text-anchor="middle" x="99" y="-188.3" font-family="Times,serif" font-size="14.00">F</text>
</g>
<!-- F&#45;&#45;D -->
<g id="edge2" class="edge">
<title>F&#45;&#45;D</title>
<path fill="none" stroke="black" d="M99,-173.8C99,-159.05 99,-137.92 99,-123.18"/>
<text text-anchor="middle" x="102.5" y="-144.8" font-family="Times,serif" font-size="14.00">3</text>
</g>
<!-- E -->
<g id="node4" class="node">
<title>E</title>
<ellipse fill="none" stroke="black" cx="99" cy="-279" rx="27" ry="18"/>
<text text-anchor="middle" x="99" y="-275.3" font-family="Times,serif" font-size="14.00">E</text>
</g>
<!-- E&#45;&#45;F -->
<g id="edge3" class="edge">
<title>E&#45;&#45;F</title>
<path fill="none" stroke="black" d="M99,-260.8C99,-246.05 99,-224.92 99,-210.18"/>
<text text-anchor="middle" x="102.5" y="-231.8" font-family="Times,serif" font-size="14.00">2</text>
</g>
<!-- C -->
<g id="node5" class="node">
<title>C</title>
<ellipse fill="none" stroke="black" cx="27" cy="-105" rx="27" ry="18"/>
<text text-anchor="middle" x="27" y="-101.3" font-family="Times,serif" font-size="14.00">C</text>
</g>
<!-- C&#45;&#45;B -->
<g id="edge4" class="edge">
<title>C&#45;&#45;B</title>
<path fill="none" stroke="black" d="M34.11,-87.21C40.46,-72.21 49.71,-50.37 56.02,-35.47"/>
<text text-anchor="middle" x="50.5" y="-57.8" font-family="Times,serif" font-size="14.00">7</text>
</g>
<!-- A -->
<g id="node6" class="node">
<title>A</title>
<ellipse fill="none" stroke="black" cx="27" cy="-192" rx="27" ry="18"/>
<text text-anchor="middle" x="27" y="-188.3" font-family="Times,serif" font-size="14.00">A</text>
</g>
<!-- A&#45;&#45;C -->
<g id="edge5" class="edge">
<title>A&#45;&#45;C</title>
<path fill="none" stroke="black" d="M27,-173.8C27,-159.05 27,-137.92 27,-123.18"/>
<text text-anchor="middle" x="30.5" y="-144.8" font-family="Times,serif" font-size="14.00">6</text>
</g>
<!-- J -->
<g id="node7" class="node">
<title>J</title>
<ellipse fill="none" stroke="black" cx="99" cy="-366" rx="27" ry="18"/>
<text text-anchor="middle" x="99" y="-362.3" font-family="Times,serif" font-size="14.00">J</text>
</g>
<!-- J&#45;&#45;E -->
<g id="edge6" class="edge">
<title>J&#45;&#45;E</title>
<path fill="none" stroke="black" d="M99,-347.8C99,-333.05 99,-311.92 99,-297.18"/>
<text text-anchor="middle" x="106" y="-318.8" font-family="Times,serif" font-size="14.00">18</text>
</g>
<!-- L -->
<g id="node8" class="node">
<title>L</title>
<ellipse fill="none" stroke="black" cx="99" cy="-453" rx="27" ry="18"/>
<text text-anchor="middle" x="99" y="-449.3" font-family="Times,serif" font-size="14.00">L</text>
</g>
<!-- L&#45;&#45;J -->
<g id="edge7" class="edge">
<title>L&#45;&#45;J</title>
<path fill="none" stroke="black" d="M99,-434.8C99,-420.05 99,-398.92 99,-384.18"/>
<text text-anchor="middle" x="102.5" y="-405.8" font-family="Times,serif" font-size="14.00">4</text>
</g>
<!-- K -->
<g id="node9" class="node">
<title>K</title>
<ellipse fill="none" stroke="black" cx="99" cy="-540" rx="27" ry="18"/>
<text text-anchor="middle" x="99" y="-536.3" font-family="Times,serif" font-size="14.00">K</text>
</g>
<!-- K&#45;&#45;L -->
<g id="edge8" class="edge">
<title>K&#45;&#45;L</title>
<path fill="none" stroke="black" d="M99,-521.8C99,-507.05 99,-485.92 99,-471.18"/>
<text text-anchor="middle" x="106" y="-492.8" font-family="Times,serif" font-size="14.00">12</text>
</g>
<!-- G -->
<g id="node10" class="node">
<title>G</title>
<ellipse fill="none" stroke="black" cx="99" cy="-627" rx="27" ry="18"/>
<text text-anchor="middle" x="99" y="-623.3" font-family="Times,serif" font-size="14.00">G</text>
</g>
<!-- G&#45;&#45;K -->
<g id="edge9" class="edge">
<title>G&#45;&#45;K</title>
<path fill="none" stroke="black" d="M99,-608.8C99,-594.05 99,-572.92 99,-558.18"/>
<text text-anchor="middle" x="106" y="-579.8" font-family="Times,serif" font-size="14.00">10</text>
</g>
<!-- I -->
<g id="node11" class="node">
<title>I</title>
<ellipse fill="none" stroke="black" cx="63" cy="-714" rx="27" ry="18"/>
<text text-anchor="middle" x="63" y="-710.3" font-family="Times,serif" font-size="14.00">I</text>
</g>
<!-- I&#45;&#45;G -->
<g id="edge10" class="edge">
<title>I&#45;&#45;G</title>
<path fill="none" stroke="black" d="M70.11,-696.21C76.46,-681.21 85.71,-659.37 92.02,-644.47"/>
<text text-anchor="middle" x="86.5" y="-666.8" font-family="Times,serif" font-size="14.00">5</text>
</g>
<!-- H -->
<g id="node12" class="node">
<title>H</title>
<ellipse fill="none" stroke="black" cx="135" cy="-714" rx="27" ry="18"/>
<text text-anchor="middle" x="135" y="-710.3" font-family="Times,serif" font-size="14.00">H</text>
</g>
<!-- H&#45;&#45;G -->
<g id="edge11" class="edge">
<title>H&#45;&#45;G</title>
<path fill="none" stroke="black" d="M127.89,-696.21C121.54,-681.21 112.29,-659.37 105.98,-644.47"/>
<text text-anchor="middle" x="126" y="-666.8" font-family="Times,serif" font-size="14.00">15</text>
</g>
</g>
</svg>
