<?xml version="1.0" encoding="utf-8" ?>
<svg baseProfile="full" height="10" version="1.1" viewBox="0,0,10,10" width="10" xmlns="http://www.w3.org/2000/svg" xmlns:ev="http://www.w3.org/2001/xml-events" xmlns:xlink="http://www.w3.org/1999/xlink"><defs /><circle cx="0.5" cy="0.5" fill="purple" fill-opacity="0.6987333105100992" r="0.5" /><circle cx="1.5" cy="0.5" fill="purple" fill-opacity="0.7134542964738103" r="0.5" /><circle cx="2.5" cy="0.5" fill="purple" fill-opacity="0.6980486134885313" r="0.5" /><circle cx="3.5" cy="0.5" fill="purple" fill-opacity="0.6942827798699076" r="0.5" /><circle cx="4.5" cy="0.5" fill="purple" fill-opacity="0.6912016432728517" r="0.5" /><circle cx="5.5" cy="0.5" fill="purple" fill-opacity="0.6795617939061965" r="0.5" /><circle cx="6.5" cy="0.5" fill="purple" fill-opacity="0.6545703526189661" r="0.5" /><circle cx="7.5" cy="0.5" fill="purple" fill-opacity="0.6333447449503594" r="0.5" /><circle cx="8.5" cy="0.5" fill="purple" fill-opacity="0.6391646696336871" r="0.5" /><circle cx="9.5" cy="0.5" fill="purple" fill-opacity="0.6152002738788086" r="0.5" /><circle cx="0.5" cy="1.5" fill="purple" fill-opacity="0.6484080794248545" r="0.5" /><circle cx="1.5" cy="1.5" fill="purple" fill-opacity="0.6436152002738789" r="0.5" /><circle cx="2.5" cy="1.5" fill="purple" fill-opacity="0.6480657309140705" r="0.5" /><circle cx="3.5" cy="1.5" fill="purple" fill-opacity="0.626155426223896" r="0.5" /><circle cx="4.5" cy="1.5" fill="purple" fill-opacity="0.6442998972954468" r="0.5" /><circle cx="5.5" cy="1.5" fill="purple" fill-opacity="0.6494351249572065" r="0.5" /><circle cx="6.5" cy="1.5" fill="purple" fill-opacity="0.6336870934611435" r="0.5" /><circle cx="7.5" cy="1.5" fill="purple" fill-opacity="0.6237589866484081" r="0.5" /><circle cx="8.5" cy="1.5" fill="purple" fill-opacity="0.6282095172885998" r="0.5" /><circle cx="9.5" cy="1.5" fill="purple" fill-opacity="0.5960287572749059" r="0.5" /><circle cx="0.5" cy="2.5" fill="purple" fill-opacity="0.6429305032523108" r="0.5" /><circle cx="1.5" cy="2.5" fill="purple" fill-opacity="0.6138308798356727" r="0.5" /><circle cx="2.5" cy="2.5" fill="purple" fill-opacity="0.6350564875042793" r="0.5" /><circle cx="3.5" cy="2.5" fill="purple" fill-opacity="0.608010955152345" r="0.5" /><circle cx="4.5" cy="2.5" fill="purple" fill-opacity="0.6521739130434783" r="0.5" /><circle cx="5.5" cy="2.5" fill="purple" fill-opacity="0.6419034577199589" r="0.5" /><circle cx="6.5" cy="2.5" fill="purple" fill-opacity="0.6545703526189661" r="0.5" /><circle cx="7.5" cy="2.5" fill="purple" fill-opacity="0.6682642930503252" r="0.5" /><circle cx="8.5" cy="2.5" fill="purple" fill-opacity="0.671687778158165" r="0.5" /><circle cx="9.5" cy="2.5" fill="purple" fill-opacity="0.6641561109209175" r="0.5" /><circle cx="0.5" cy="3.5" fill="purple" fill-opacity="0.7035261896610749" r="0.5" /><circle cx="1.5" cy="3.5" fill="purple" fill-opacity="0.7048955837042109" r="0.5" /><circle cx="2.5" cy="3.5" fill="purple" fill-opacity="0.6912016432728517" r="0.5" /><circle cx="3.5" cy="3.5" fill="purple" fill-opacity="0.7161930845600821" r="0.5" /><circle cx="4.5" cy="3.5" fill="purple" fill-opacity="0.7134542964738103" r="0.5" /><circle cx="5.5" cy="3.5" fill="purple" fill-opacity="0.7220130092434098" r="0.5" /><circle cx="6.5" cy="3.5" fill="purple" fill-opacity="0.7288599794590893" r="0.5" /><circle cx="7.5" cy="3.5" fill="purple" fill-opacity="0.7381033892502568" r="0.5" /><circle cx="8.5" cy="3.5" fill="purple" fill-opacity="0.734337555631633" r="0.5" /><circle cx="9.5" cy="3.5" fill="purple" fill-opacity="0.75042793563848" r="0.5" /><circle cx="0.5" cy="4.5" fill="purple" fill-opacity="0.7791852105443341" r="0.5" /><circle cx="1.5" cy="4.5" fill="purple" fill-opacity="0.7952755905511811" r="0.5" /><circle cx="2.5" cy="4.5" fill="purple" fill-opacity="0.8277986990756591" r="0.5" /><circle cx="3.5" cy="4.5" fill="purple" fill-opacity="0.8411502909962342" r="0.5" /><circle cx="4.5" cy="4.5" fill="purple" fill-opacity="0.8154741526874358" r="0.5" /><circle cx="5.5" cy="4.5" fill="purple" fill-opacity="0.8298527901403628" r="0.5" /><circle cx="6.5" cy="4.5" fill="purple" fill-opacity="0.8883943854844232" r="0.5" /><circle cx="7.5" cy="4.5" fill="purple" fill-opacity="0.875727490585416" r="0.5" /><circle cx="8.5" cy="4.5" fill="purple" fill-opacity="0.8699075659020883" r="0.5" /><circle cx="9.5" cy="4.5" fill="purple" fill-opacity="0.8966107497432386" r="0.5" /><circle cx="0.5" cy="5.5" fill="purple" fill-opacity="0.8952413557001027" r="0.5" /><circle cx="1.5" cy="5.5" fill="purple" fill-opacity="0.8966107497432386" r="0.5" /><circle cx="2.5" cy="5.5" fill="purple" fill-opacity="0.9328996918863403" r="0.5" /><circle cx="3.5" cy="5.5" fill="purple" fill-opacity="0.9116740842177337" r="0.5" /><circle cx="4.5" cy="5.5" fill="purple" fill-opacity="0.8853132488873673" r="0.5" /><circle cx="5.5" cy="5.5" fill="purple" fill-opacity="0.9561793906196508" r="0.5" /><circle cx="6.5" cy="5.5" fill="purple" fill-opacity="0.9578911331735707" r="0.5" /><circle cx="7.5" cy="5.5" fill="purple" fill-opacity="0.9578911331735707" r="0.5" /><circle cx="8.5" cy="5.5" fill="purple" fill-opacity="0.9811708319068813" r="0.5" /><circle cx="9.5" cy="5.5" fill="purple" fill-opacity="0.9705580280725778" r="0.5" /><circle cx="0.5" cy="6.5" fill="purple" fill-opacity="0.968846285518658" r="0.5" /><circle cx="1.5" cy="6.5" fill="purple" fill-opacity="0.9739815131804177" r="0.5" /><circle cx="2.5" cy="6.5" fill="purple" fill-opacity="0.9774049982882574" r="0.5" /><circle cx="3.5" cy="6.5" fill="purple" fill-opacity="0.9698733310510099" r="0.5" /><circle cx="4.5" cy="6.5" fill="purple" fill-opacity="0.9578911331735707" r="0.5" /><circle cx="5.5" cy="6.5" fill="purple" fill-opacity="0.9839096199931531" r="0.5" /><circle cx="6.5" cy="6.5" fill="purple" fill-opacity="0.9705580280725778" r="0.5" /><circle cx="7.5" cy="6.5" fill="purple" fill-opacity="0.9825402259500171" r="0.5" /><circle cx="8.5" cy="6.5" fill="purple" fill-opacity="1.0" r="0.5" /><circle cx="9.5" cy="6.5" fill="purple" fill-opacity="0.999657651489216" r="0.5" /><circle cx="0.5" cy="7.5" fill="purple" fill-opacity="0.9880178021225607" r="0.5" /><circle cx="1.5" cy="7.5" fill="purple" fill-opacity="0.9777473467990414" r="0.5" /><circle cx="2.5" cy="7.5" fill="purple" fill-opacity="0.9798014378637453" r="0.5" /><circle cx="3.5" cy="7.5" fill="purple" fill-opacity="0.9578911331735707" r="0.5" /><circle cx="4.5" cy="7.5" fill="purple" fill-opacity="0.9657651489216021" r="0.5" /><circle cx="5.5" cy="7.5" fill="purple" fill-opacity="0.9736391646696337" r="0.5" /><circle cx="6.5" cy="7.5" fill="purple" fill-opacity="0.9548099965765149" r="0.5" /><circle cx="7.5" cy="7.5" fill="purple" fill-opacity="0.9277644642245806" r="0.5" /><circle cx="8.5" cy="7.5" fill="purple" fill-opacity="0.9554946935980828" r="0.5" /><circle cx="9.5" cy="7.5" fill="purple" fill-opacity="0.9452242382745635" r="0.5" /><circle cx="0.5" cy="8.5" fill="purple" fill-opacity="0.9137281752824375" r="0.5" /><circle cx="1.5" cy="8.5" fill="purple" fill-opacity="0.9243409791167408" r="0.5" /><circle cx="2.5" cy="8.5" fill="purple" fill-opacity="0.9335843889079083" r="0.5" /><circle cx="3.5" cy="8.5" fill="purple" fill-opacity="0.8925025676138308" r="0.5" /><circle cx="4.5" cy="8.5" fill="purple" fill-opacity="0.9195480999657651" r="0.5" /><circle cx="5.5" cy="8.5" fill="purple" fill-opacity="0.8925025676138308" r="0.5" /><circle cx="6.5" cy="8.5" fill="purple" fill-opacity="0.9072235535775419" r="0.5" /><circle cx="7.5" cy="8.5" fill="purple" fill-opacity="0.8870249914412872" r="0.5" /><circle cx="8.5" cy="8.5" fill="purple" fill-opacity="0.8695652173913043" r="0.5" /><circle cx="9.5" cy="8.5" fill="purple" fill-opacity="0.8500513522766175" r="0.5" /><circle cx="0.5" cy="9.5" fill="purple" fill-opacity="0.8257446080109552" r="0.5" /><circle cx="1.5" cy="9.5" fill="purple" fill-opacity="0.8466278671687778" r="0.5" /><circle cx="2.5" cy="9.5" fill="purple" fill-opacity="0.8178705922629237" r="0.5" /><circle cx="3.5" cy="9.5" fill="purple" fill-opacity="0.7945908935296131" r="0.5" /><circle cx="4.5" cy="9.5" fill="purple" fill-opacity="0.8151318041766519" r="0.5" /><circle cx="5.5" cy="9.5" fill="purple" fill-opacity="0.7901403628894215" r="0.5" /><circle cx="6.5" cy="9.5" fill="purple" fill-opacity="0.7576172543649435" r="0.5" /><circle cx="7.5" cy="9.5" fill="purple" fill-opacity="0.7528243752139678" r="0.5" /><circle cx="8.5" cy="9.5" fill="purple" fill-opacity="0.7723382403286546" r="0.5" /><circle cx="9.5" cy="9.5" fill="purple" fill-opacity="0.7326258130777131" r="0.5" /></svg>