<?xml version="1.0" encoding="utf-8" ?>
<svg baseProfile="full" height="20" version="1.1" viewBox="0,0,20,20" width="20" xmlns="http://www.w3.org/2000/svg" xmlns:ev="http://www.w3.org/2001/xml-events" xmlns:xlink="http://www.w3.org/1999/xlink"><defs /><circle cx="0.5" cy="0.5" fill="purple" fill-opacity="0.6491228070175439" r="0.5" /><circle cx="1.5" cy="0.5" fill="purple" fill-opacity="0.6967418546365914" r="0.5" /><circle cx="2.5" cy="0.5" fill="purple" fill-opacity="0.6854636591478697" r="0.5" /><circle cx="3.5" cy="0.5" fill="purple" fill-opacity="0.6604010025062657" r="0.5" /><circle cx="4.5" cy="0.5" fill="purple" fill-opacity="0.706766917293233" r="0.5" /><circle cx="5.5" cy="0.5" fill="purple" fill-opacity="0.6353383458646616" r="0.5" /><circle cx="6.5" cy="0.5" fill="purple" fill-opacity="0.6102756892230576" r="0.5" /><circle cx="7.5" cy="0.5" fill="purple" fill-opacity="0.5789473684210527" r="0.5" /><circle cx="8.5" cy="0.5" fill="purple" fill-opacity="0.5952380952380952" r="0.5" /><circle cx="9.5" cy="0.5" fill="purple" fill-opacity="0.5375939849624061" r="0.5" /><circle cx="10.5" cy="0.5" fill="purple" fill-opacity="0.5927318295739349" r="0.5" /><circle cx="11.5" cy="0.5" fill="purple" fill-opacity="0.6378446115288221" r="0.5" /><circle cx="12.5" cy="0.5" fill="purple" fill-opacity="0.5864661654135338" r="0.5" /><circle cx="13.5" cy="0.5" fill="purple" fill-opacity="0.5739348370927319" r="0.5" /><circle cx="14.5" cy="0.5" fill="purple" fill-opacity="0.6441102756892231" r="0.5" /><circle cx="15.5" cy="0.5" fill="purple" fill-opacity="0.5739348370927319" r="0.5" /><circle cx="16.5" cy="0.5" fill="purple" fill-opacity="0.6127819548872181" r="0.5" /><circle cx="17.5" cy="0.5" fill="purple" fill-opacity="0.5401002506265664" r="0.5" /><circle cx="18.5" cy="0.5" fill="purple" fill-opacity="0.5639097744360902" r="0.5" /><circle cx="19.5" cy="0.5" fill="purple" fill-opacity="0.5664160401002506" r="0.5" /><circle cx="0.5" cy="1.5" fill="purple" fill-opacity="0.62531328320802" r="0.5" /><circle cx="1.5" cy="1.5" fill="purple" fill-opacity="0.5664160401002506" r="0.5" /><circle cx="2.5" cy="1.5" fill="purple" fill-opacity="0.6052631578947368" r="0.5" /><circle cx="3.5" cy="1.5" fill="purple" fill-opacity="0.5639097744360902" r="0.5" /><circle cx="4.5" cy="1.5" fill="purple" fill-opacity="0.6115288220551378" r="0.5" /><circle cx="5.5" cy="1.5" fill="purple" fill-opacity="0.5426065162907269" r="0.5" /><circle cx="6.5" cy="1.5" fill="purple" fill-opacity="0.6228070175438597" r="0.5" /><circle cx="7.5" cy="1.5" fill="purple" fill-opacity="0.5927318295739349" r="0.5" /><circle cx="8.5" cy="1.5" fill="purple" fill-opacity="0.6215538847117794" r="0.5" /><circle cx="9.5" cy="1.5" fill="purple" fill-opacity="0.5463659147869674" r="0.5" /><circle cx="10.5" cy="1.5" fill="purple" fill-opacity="0.6340852130325815" r="0.5" /><circle cx="11.5" cy="1.5" fill="purple" fill-opacity="0.6591478696741855" r="0.5" /><circle cx="12.5" cy="1.5" fill="purple" fill-opacity="0.6077694235588973" r="0.5" /><circle cx="13.5" cy="1.5" fill="purple" fill-opacity="0.650375939849624" r="0.5" /><circle cx="14.5" cy="1.5" fill="purple" fill-opacity="0.6779448621553885" r="0.5" /><circle cx="15.5" cy="1.5" fill="purple" fill-opacity="0.6215538847117794" r="0.5" /><circle cx="16.5" cy="1.5" fill="purple" fill-opacity="0.6804511278195489" r="0.5" /><circle cx="17.5" cy="1.5" fill="purple" fill-opacity="0.6453634085213033" r="0.5" /><circle cx="18.5" cy="1.5" fill="purple" fill-opacity="0.6929824561403509" r="0.5" /><circle cx="19.5" cy="1.5" fill="purple" fill-opacity="0.6842105263157895" r="0.5" /><circle cx="0.5" cy="2.5" fill="purple" fill-opacity="0.7506265664160401" r="0.5" /><circle cx="1.5" cy="2.5" fill="purple" fill-opacity="0.7205513784461153" r="0.5" /><circle cx="2.5" cy="2.5" fill="purple" fill-opacity="0.7744360902255639" r="0.5" /><circle cx="3.5" cy="2.5" fill="purple" fill-opacity="0.7869674185463659" r="0.5" /><circle cx="4.5" cy="2.5" fill="purple" fill-opacity="0.7355889724310777" r="0.5" /><circle cx="5.5" cy="2.5" fill="purple" fill-opacity="0.8007518796992481" r="0.5" /><circle cx="6.5" cy="2.5" fill="purple" fill-opacity="0.7756892230576441" r="0.5" /><circle cx="7.5" cy="2.5" fill="purple" fill-opacity="0.8634085213032582" r="0.5" /><circle cx="8.5" cy="2.5" fill="purple" fill-opacity="0.8132832080200502" r="0.5" /><circle cx="9.5" cy="2.5" fill="purple" fill-opacity="0.8308270676691729" r="0.5" /><circle cx="10.5" cy="2.5" fill="purple" fill-opacity="0.8521303258145363" r="0.5" /><circle cx="11.5" cy="2.5" fill="purple" fill-opacity="0.8345864661654135" r="0.5" /><circle cx="12.5" cy="2.5" fill="purple" fill-opacity="0.843358395989975" r="0.5" /><circle cx="13.5" cy="2.5" fill="purple" fill-opacity="0.8421052631578947" r="0.5" /><circle cx="14.5" cy="2.5" fill="purple" fill-opacity="0.8283208020050126" r="0.5" /><circle cx="15.5" cy="2.5" fill="purple" fill-opacity="0.9323308270676691" r="0.5" /><circle cx="16.5" cy="2.5" fill="purple" fill-opacity="0.9461152882205514" r="0.5" /><circle cx="17.5" cy="2.5" fill="purple" fill-opacity="0.8671679197994987" r="0.5" /><circle cx="18.5" cy="2.5" fill="purple" fill-opacity="0.8872180451127819" r="0.5" /><circle cx="19.5" cy="2.5" fill="purple" fill-opacity="0.8884711779448622" r="0.5" /><circle cx="0.5" cy="3.5" fill="purple" fill-opacity="0.9110275689223057" r="0.5" /><circle cx="1.5" cy="3.5" fill="purple" fill-opacity="0.949874686716792" r="0.5" /><circle cx="2.5" cy="3.5" fill="purple" fill-opacity="0.9323308270676691" r="0.5" /><circle cx="3.5" cy="3.5" fill="purple" fill-opacity="0.943609022556391" r="0.5" /><circle cx="4.5" cy="3.5" fill="purple" fill-opacity="0.9448621553884712" r="0.5" /><circle cx="5.5" cy="3.5" fill="purple" fill-opacity="0.943609022556391" r="0.5" /><circle cx="6.5" cy="3.5" fill="purple" fill-opacity="0.9598997493734336" r="0.5" /><circle cx="7.5" cy="3.5" fill="purple" fill-opacity="0.9072681704260651" r="0.5" /><circle cx="8.5" cy="3.5" fill="purple" fill-opacity="0.9699248120300752" r="0.5" /><circle cx="9.5" cy="3.5" fill="purple" fill-opacity="0.8884711779448622" r="0.5" /><circle cx="10.5" cy="3.5" fill="purple" fill-opacity="1.0" r="0.5" /><circle cx="11.5" cy="3.5" fill="purple" fill-opacity="0.8596491228070176" r="0.5" /><circle cx="12.5" cy="3.5" fill="purple" fill-opacity="0.9097744360902256" r="0.5" /><circle cx="13.5" cy="3.5" fill="purple" fill-opacity="0.8972431077694235" r="0.5" /><circle cx="14.5" cy="3.5" fill="purple" fill-opacity="0.8872180451127819" r="0.5" /><circle cx="15.5" cy="3.5" fill="purple" fill-opacity="0.9210526315789473" r="0.5" /><circle cx="16.5" cy="3.5" fill="purple" fill-opacity="0.9072681704260651" r="0.5" /><circle cx="17.5" cy="3.5" fill="purple" fill-opacity="0.7832080200501254" r="0.5" /><circle cx="18.5" cy="3.5" fill="purple" fill-opacity="0.8659147869674185" r="0.5" /><circle cx="19.5" cy="3.5" fill="purple" fill-opacity="0.8421052631578947" r="0.5" /><circle cx="0.5" cy="4.5" fill="purple" fill-opacity="0.7819548872180451" r="0.5" /><circle cx="1.5" cy="4.5" fill="purple" fill-opacity="0.8132832080200502" r="0.5" /><circle cx="2.5" cy="4.5" fill="purple" fill-opacity="0.8295739348370927" r="0.5" /><circle cx="3.5" cy="4.5" fill="purple" fill-opacity="0.8245614035087719" r="0.5" /><circle cx="4.5" cy="4.5" fill="purple" fill-opacity="0.8057644110275689" r="0.5" /><circle cx="5.5" cy="4.5" fill="purple" fill-opacity="0.7431077694235589" r="0.5" /><circle cx="6.5" cy="4.5" fill="purple" fill-opacity="0.793233082706767" r="0.5" /><circle cx="7.5" cy="4.5" fill="purple" fill-opacity="0.7581453634085213" r="0.5" /><circle cx="8.5" cy="4.5" fill="purple" fill-opacity="0.7694235588972431" r="0.5" /><circle cx="9.5" cy="4.5" fill="purple" fill-opacity="0.7568922305764411" r="0.5" /><circle cx="10.5" cy="4.5" fill="purple" fill-opacity="0.7456140350877193" r="0.5" /><circle cx="11.5" cy="4.5" fill="purple" fill-opacity="0.7130325814536341" r="0.5" /><circle cx="12.5" cy="4.5" fill="purple" fill-opacity="0.7380952380952381" r="0.5" /><circle cx="13.5" cy="4.5" fill="purple" fill-opacity="0.681704260651629" r="0.5" /><circle cx="14.5" cy="4.5" fill="purple" fill-opacity="0.7305764411027569" r="0.5" /><circle cx="15.5" cy="4.5" fill="purple" fill-opacity="0.6829573934837093" r="0.5" /><circle cx="16.5" cy="4.5" fill="purple" fill-opacity="0.6604010025062657" r="0.5" /><circle cx="17.5" cy="4.5" fill="purple" fill-opacity="0.6403508771929824" r="0.5" /><circle cx="18.5" cy="4.5" fill="purple" fill-opacity="0.6754385964912281" r="0.5" /><circle cx="19.5" cy="4.5" fill="purple" fill-opacity="0.5952380952380952" r="0.5" /><circle cx="0.5" cy="5.5" fill="purple" fill-opacity="0.6152882205513784" r="0.5" /><circle cx="1.5" cy="5.5" fill="purple" fill-opacity="0.6528822055137845" r="0.5" /><circle cx="2.5" cy="5.5" fill="purple" fill-opacity="0.6115288220551378" r="0.5" /><circle cx="3.5" cy="5.5" fill="purple" fill-opacity="0.6265664160401002" r="0.5" /><circle cx="4.5" cy="5.5" fill="purple" fill-opacity="0.6115288220551378" r="0.5" /><circle cx="5.5" cy="5.5" fill="purple" fill-opacity="0.5864661654135338" r="0.5" /><circle cx="6.5" cy="5.5" fill="purple" fill-opacity="0.606516290726817" r="0.5" /><circle cx="7.5" cy="5.5" fill="purple" fill-opacity="0.568922305764411" r="0.5" /><circle cx="8.5" cy="5.5" fill="purple" fill-opacity="0.6177944862155389" r="0.5" /><circle cx="9.5" cy="5.5" fill="purple" fill-opacity="0.6090225563909775" r="0.5" /><circle cx="10.5" cy="5.5" fill="purple" fill-opacity="0.5939849624060151" r="0.5" /><circle cx="11.5" cy="5.5" fill="purple" fill-opacity="0.5977443609022557" r="0.5" /><circle cx="12.5" cy="5.5" fill="purple" fill-opacity="0.5964912280701754" r="0.5" /><circle cx="13.5" cy="5.5" fill="purple" fill-opacity="0.5864661654135338" r="0.5" /><circle cx="14.5" cy="5.5" fill="purple" fill-opacity="0.5676691729323309" r="0.5" /><circle cx="15.5" cy="5.5" fill="purple" fill-opacity="0.6077694235588973" r="0.5" /><circle cx="16.5" cy="5.5" fill="purple" fill-opacity="0.6040100250626567" r="0.5" /><circle cx="17.5" cy="5.5" fill="purple" fill-opacity="0.5902255639097744" r="0.5" /><circle cx="18.5" cy="5.5" fill="purple" fill-opacity="0.650375939849624" r="0.5" /><circle cx="19.5" cy="5.5" fill="purple" fill-opacity="0.5300751879699248" r="0.5" /><circle cx="0.5" cy="6.5" fill="purple" fill-opacity="0.575187969924812" r="0.5" /><circle cx="1.5" cy="6.5" fill="purple" fill-opacity="0.5802005012531328" r="0.5" /><circle cx="2.5" cy="6.5" fill="purple" fill-opacity="0.5601503759398496" r="0.5" /><circle cx="3.5" cy="6.5" fill="purple" fill-opacity="0.5576441102756893" r="0.5" /><circle cx="4.5" cy="6.5" fill="purple" fill-opacity="0.5952380952380952" r="0.5" /><circle cx="5.5" cy="6.5" fill="purple" fill-opacity="0.6290726817042607" r="0.5" /><circle cx="6.5" cy="6.5" fill="purple" fill-opacity="0.5576441102756893" r="0.5" /><circle cx="7.5" cy="6.5" fill="purple" fill-opacity="0.6240601503759399" r="0.5" /><circle cx="8.5" cy="6.5" fill="purple" fill-opacity="0.6090225563909775" r="0.5" /><circle cx="9.5" cy="6.5" fill="purple" fill-opacity="0.6516290726817042" r="0.5" /><circle cx="10.5" cy="6.5" fill="purple" fill-opacity="0.6140350877192983" r="0.5" /><circle cx="11.5" cy="6.5" fill="purple" fill-opacity="0.6265664160401002" r="0.5" /><circle cx="12.5" cy="6.5" fill="purple" fill-opacity="0.6278195488721805" r="0.5" /><circle cx="13.5" cy="6.5" fill="purple" fill-opacity="0.6654135338345865" r="0.5" /><circle cx="14.5" cy="6.5" fill="purple" fill-opacity="0.6754385964912281" r="0.5" /><circle cx="15.5" cy="6.5" fill="purple" fill-opacity="0.706766917293233" r="0.5" /><circle cx="16.5" cy="6.5" fill="purple" fill-opacity="0.6979949874686717" r="0.5" /><circle cx="17.5" cy="6.5" fill="purple" fill-opacity="0.7142857142857143" r="0.5" /><circle cx="18.5" cy="6.5" fill="purple" fill-opacity="0.6829573934837093" r="0.5" /><circle cx="19.5" cy="6.5" fill="purple" fill-opacity="0.706766917293233" r="0.5" /><circle cx="0.5" cy="7.5" fill="purple" fill-opacity="0.6942355889724311" r="0.5" /><circle cx="1.5" cy="7.5" fill="purple" fill-opacity="0.6854636591478697" r="0.5" /><circle cx="2.5" cy="7.5" fill="purple" fill-opacity="0.7142857142857143" r="0.5" /><circle cx="3.5" cy="7.5" fill="purple" fill-opacity="0.7656641604010025" r="0.5" /><circle cx="4.5" cy="7.5" fill="purple" fill-opacity="0.7406015037593985" r="0.5" /><circle cx="5.5" cy="7.5" fill="purple" fill-opacity="0.7481203007518797" r="0.5" /><circle cx="6.5" cy="7.5" fill="purple" fill-opacity="0.7744360902255639" r="0.5" /><circle cx="7.5" cy="7.5" fill="purple" fill-opacity="0.7506265664160401" r="0.5" /><circle cx="8.5" cy="7.5" fill="purple" fill-opacity="0.7694235588972431" r="0.5" /><circle cx="9.5" cy="7.5" fill="purple" fill-opacity="0.7794486215538847" r="0.5" /><circle cx="10.5" cy="7.5" fill="purple" fill-opacity="0.7731829573934837" r="0.5" /><circle cx="11.5" cy="7.5" fill="purple" fill-opacity="0.7619047619047619" r="0.5" /><circle cx="12.5" cy="7.5" fill="purple" fill-opacity="0.8358395989974937" r="0.5" /><circle cx="13.5" cy="7.5" fill="purple" fill-opacity="0.8408521303258145" r="0.5" /><circle cx="14.5" cy="7.5" fill="purple" fill-opacity="0.7719298245614035" r="0.5" /><circle cx="15.5" cy="7.5" fill="purple" fill-opacity="0.8771929824561403" r="0.5" /><circle cx="16.5" cy="7.5" fill="purple" fill-opacity="0.8709273182957393" r="0.5" /><circle cx="17.5" cy="7.5" fill="purple" fill-opacity="0.8533834586466166" r="0.5" /><circle cx="18.5" cy="7.5" fill="purple" fill-opacity="0.8822055137844611" r="0.5" /><circle cx="19.5" cy="7.5" fill="purple" fill-opacity="0.8659147869674185" r="0.5" /><circle cx="0.5" cy="8.5" fill="purple" fill-opacity="0.9122807017543859" r="0.5" /><circle cx="1.5" cy="8.5" fill="purple" fill-opacity="0.9047619047619048" r="0.5" /><circle cx="2.5" cy="8.5" fill="purple" fill-opacity="0.9172932330827067" r="0.5" /><circle cx="3.5" cy="8.5" fill="purple" fill-opacity="0.8771929824561403" r="0.5" /><circle cx="4.5" cy="8.5" fill="purple" fill-opacity="0.8822055137844611" r="0.5" /><circle cx="5.5" cy="8.5" fill="purple" fill-opacity="0.9624060150375939" r="0.5" /><circle cx="6.5" cy="8.5" fill="purple" fill-opacity="0.8972431077694235" r="0.5" /><circle cx="7.5" cy="8.5" fill="purple" fill-opacity="0.8859649122807017" r="0.5" /><circle cx="8.5" cy="8.5" fill="purple" fill-opacity="0.9135338345864662" r="0.5" /><circle cx="9.5" cy="8.5" fill="purple" fill-opacity="0.9674185463659147" r="0.5" /><circle cx="10.5" cy="8.5" fill="purple" fill-opacity="0.9010025062656641" r="0.5" /><circle cx="11.5" cy="8.5" fill="purple" fill-opacity="0.9285714285714286" r="0.5" /><circle cx="12.5" cy="8.5" fill="purple" fill-opacity="0.9260651629072681" r="0.5" /><circle cx="13.5" cy="8.5" fill="purple" fill-opacity="0.9611528822055138" r="0.5" /><circle cx="14.5" cy="8.5" fill="purple" fill-opacity="0.9273182957393483" r="0.5" /><circle cx="15.5" cy="8.5" fill="purple" fill-opacity="0.9385964912280702" r="0.5" /><circle cx="16.5" cy="8.5" fill="purple" fill-opacity="0.868421052631579" r="0.5" /><circle cx="17.5" cy="8.5" fill="purple" fill-opacity="0.9448621553884712" r="0.5" /><circle cx="18.5" cy="8.5" fill="purple" fill-opacity="0.8872180451127819" r="0.5" /><circle cx="19.5" cy="8.5" fill="purple" fill-opacity="0.9147869674185464" r="0.5" /><circle cx="0.5" cy="9.5" fill="purple" fill-opacity="0.893483709273183" r="0.5" /><circle cx="1.5" cy="9.5" fill="purple" fill-opacity="0.9223057644110275" r="0.5" /><circle cx="2.5" cy="9.5" fill="purple" fill-opacity="0.8984962406015038" r="0.5" /><circle cx="3.5" cy="9.5" fill="purple" fill-opacity="0.8208020050125313" r="0.5" /><circle cx="4.5" cy="9.5" fill="purple" fill-opacity="0.8822055137844611" r="0.5" /><circle cx="5.5" cy="9.5" fill="purple" fill-opacity="0.8483709273182958" r="0.5" /><circle cx="6.5" cy="9.5" fill="purple" fill-opacity="0.8834586466165414" r="0.5" /><circle cx="7.5" cy="9.5" fill="purple" fill-opacity="0.8471177944862155" r="0.5" /><circle cx="8.5" cy="9.5" fill="purple" fill-opacity="0.8145363408521303" r="0.5" /><circle cx="9.5" cy="9.5" fill="purple" fill-opacity="0.7406015037593985" r="0.5" /><circle cx="10.5" cy="9.5" fill="purple" fill-opacity="0.7744360902255639" r="0.5" /><circle cx="11.5" cy="9.5" fill="purple" fill-opacity="0.8007518796992481" r="0.5" /><circle cx="12.5" cy="9.5" fill="purple" fill-opacity="0.7142857142857143" r="0.5" /><circle cx="13.5" cy="9.5" fill="purple" fill-opacity="0.7368421052631579" r="0.5" /><circle cx="14.5" cy="9.5" fill="purple" fill-opacity="0.7443609022556391" r="0.5" /><circle cx="15.5" cy="9.5" fill="purple" fill-opacity="0.7205513784461153" r="0.5" /><circle cx="16.5" cy="9.5" fill="purple" fill-opacity="0.6904761904761905" r="0.5" /><circle cx="17.5" cy="9.5" fill="purple" fill-opacity="0.7255639097744361" r="0.5" /><circle cx="18.5" cy="9.5" fill="purple" fill-opacity="0.7531328320802005" r="0.5" /><circle cx="19.5" cy="9.5" fill="purple" fill-opacity="0.6979949874686717" r="0.5" /><circle cx="0.5" cy="10.5" fill="purple" fill-opacity="0.6340852130325815" r="0.5" /><circle cx="1.5" cy="10.5" fill="purple" fill-opacity="0.6177944862155389" r="0.5" /><circle cx="2.5" cy="10.5" fill="purple" fill-opacity="0.6340852130325815" r="0.5" /><circle cx="3.5" cy="10.5" fill="purple" fill-opacity="0.5877192982456141" r="0.5" /><circle cx="4.5" cy="10.5" fill="purple" fill-opacity="0.568922305764411" r="0.5" /><circle cx="5.5" cy="10.5" fill="purple" fill-opacity="0.62531328320802" r="0.5" /><circle cx="6.5" cy="10.5" fill="purple" fill-opacity="0.6077694235588973" r="0.5" /><circle cx="7.5" cy="10.5" fill="purple" fill-opacity="0.5852130325814536" r="0.5" /><circle cx="8.5" cy="10.5" fill="purple" fill-opacity="0.5714285714285714" r="0.5" /><circle cx="9.5" cy="10.5" fill="purple" fill-opacity="0.5614035087719298" r="0.5" /><circle cx="10.5" cy="10.5" fill="purple" fill-opacity="0.5939849624060151" r="0.5" /><circle cx="11.5" cy="10.5" fill="purple" fill-opacity="0.5576441102756893" r="0.5" /><circle cx="12.5" cy="10.5" fill="purple" fill-opacity="0.5864661654135338" r="0.5" /><circle cx="13.5" cy="10.5" fill="purple" fill-opacity="0.581453634085213" r="0.5" /><circle cx="14.5" cy="10.5" fill="purple" fill-opacity="0.5877192982456141" r="0.5" /><circle cx="15.5" cy="10.5" fill="purple" fill-opacity="0.6090225563909775" r="0.5" /><circle cx="16.5" cy="10.5" fill="purple" fill-opacity="0.5877192982456141" r="0.5" /><circle cx="17.5" cy="10.5" fill="purple" fill-opacity="0.5789473684210527" r="0.5" /><circle cx="18.5" cy="10.5" fill="purple" fill-opacity="0.5526315789473685" r="0.5" /><circle cx="19.5" cy="10.5" fill="purple" fill-opacity="0.5263157894736842" r="0.5" /><circle cx="0.5" cy="11.5" fill="purple" fill-opacity="0.5764411027568922" r="0.5" /><circle cx="1.5" cy="11.5" fill="purple" fill-opacity="0.5989974937343359" r="0.5" /><circle cx="2.5" cy="11.5" fill="purple" fill-opacity="0.5877192982456141" r="0.5" /><circle cx="3.5" cy="11.5" fill="purple" fill-opacity="0.568922305764411" r="0.5" /><circle cx="4.5" cy="11.5" fill="purple" fill-opacity="0.6077694235588973" r="0.5" /><circle cx="5.5" cy="11.5" fill="purple" fill-opacity="0.6491228070175439" r="0.5" /><circle cx="6.5" cy="11.5" fill="purple" fill-opacity="0.6303258145363408" r="0.5" /><circle cx="7.5" cy="11.5" fill="purple" fill-opacity="0.6240601503759399" r="0.5" /><circle cx="8.5" cy="11.5" fill="purple" fill-opacity="0.5977443609022557" r="0.5" /><circle cx="9.5" cy="11.5" fill="purple" fill-opacity="0.6992481203007519" r="0.5" /><circle cx="10.5" cy="11.5" fill="purple" fill-opacity="0.6867167919799498" r="0.5" /><circle cx="11.5" cy="11.5" fill="purple" fill-opacity="0.6704260651629073" r="0.5" /><circle cx="12.5" cy="11.5" fill="purple" fill-opacity="0.6804511278195489" r="0.5" /><circle cx="13.5" cy="11.5" fill="purple" fill-opacity="0.6654135338345865" r="0.5" /><circle cx="14.5" cy="11.5" fill="purple" fill-opacity="0.6278195488721805" r="0.5" /><circle cx="15.5" cy="11.5" fill="purple" fill-opacity="0.6867167919799498" r="0.5" /><circle cx="16.5" cy="11.5" fill="purple" fill-opacity="0.6516290726817042" r="0.5" /><circle cx="17.5" cy="11.5" fill="purple" fill-opacity="0.7130325814536341" r="0.5" /><circle cx="18.5" cy="11.5" fill="purple" fill-opacity="0.6754385964912281" r="0.5" /><circle cx="19.5" cy="11.5" fill="purple" fill-opacity="0.6904761904761905" r="0.5" /><circle cx="0.5" cy="12.5" fill="purple" fill-opacity="0.7130325814536341" r="0.5" /><circle cx="1.5" cy="12.5" fill="purple" fill-opacity="0.7869674185463659" r="0.5" /><circle cx="2.5" cy="12.5" fill="purple" fill-opacity="0.7656641604010025" r="0.5" /><circle cx="3.5" cy="12.5" fill="purple" fill-opacity="0.7443609022556391" r="0.5" /><circle cx="4.5" cy="12.5" fill="purple" fill-opacity="0.7255639097744361" r="0.5" /><circle cx="5.5" cy="12.5" fill="purple" fill-opacity="0.731829573934837" r="0.5" /><circle cx="6.5" cy="12.5" fill="purple" fill-opacity="0.8220551378446115" r="0.5" /><circle cx="7.5" cy="12.5" fill="purple" fill-opacity="0.8220551378446115" r="0.5" /><circle cx="8.5" cy="12.5" fill="purple" fill-opacity="0.7994987468671679" r="0.5" /><circle cx="9.5" cy="12.5" fill="purple" fill-opacity="0.8233082706766918" r="0.5" /><circle cx="10.5" cy="12.5" fill="purple" fill-opacity="0.8258145363408521" r="0.5" /><circle cx="11.5" cy="12.5" fill="purple" fill-opacity="0.8358395989974937" r="0.5" /><circle cx="12.5" cy="12.5" fill="purple" fill-opacity="0.8771929824561403" r="0.5" /><circle cx="13.5" cy="12.5" fill="purple" fill-opacity="0.8395989974937343" r="0.5" /><circle cx="14.5" cy="12.5" fill="purple" fill-opacity="0.793233082706767" r="0.5" /><circle cx="15.5" cy="12.5" fill="purple" fill-opacity="0.8245614035087719" r="0.5" /><circle cx="16.5" cy="12.5" fill="purple" fill-opacity="0.8333333333333334" r="0.5" /><circle cx="17.5" cy="12.5" fill="purple" fill-opacity="0.9022556390977443" r="0.5" /><circle cx="18.5" cy="12.5" fill="purple" fill-opacity="0.8784461152882206" r="0.5" /><circle cx="19.5" cy="12.5" fill="purple" fill-opacity="0.9010025062656641" r="0.5" /><circle cx="0.5" cy="13.5" fill="purple" fill-opacity="0.8270676691729323" r="0.5" /><circle cx="1.5" cy="13.5" fill="purple" fill-opacity="0.924812030075188" r="0.5" /><circle cx="2.5" cy="13.5" fill="purple" fill-opacity="0.8646616541353384" r="0.5" /><circle cx="3.5" cy="13.5" fill="purple" fill-opacity="0.8458646616541353" r="0.5" /><circle cx="4.5" cy="13.5" fill="purple" fill-opacity="0.8320802005012531" r="0.5" /><circle cx="5.5" cy="13.5" fill="purple" fill-opacity="0.8634085213032582" r="0.5" /><circle cx="6.5" cy="13.5" fill="purple" fill-opacity="0.8395989974937343" r="0.5" /><circle cx="7.5" cy="13.5" fill="purple" fill-opacity="0.9373433583959899" r="0.5" /><circle cx="8.5" cy="13.5" fill="purple" fill-opacity="0.9060150375939849" r="0.5" /><circle cx="9.5" cy="13.5" fill="purple" fill-opacity="0.8909774436090225" r="0.5" /><circle cx="10.5" cy="13.5" fill="purple" fill-opacity="0.8571428571428571" r="0.5" /><circle cx="11.5" cy="13.5" fill="purple" fill-opacity="0.899749373433584" r="0.5" /><circle cx="12.5" cy="13.5" fill="purple" fill-opacity="0.8446115288220551" r="0.5" /><circle cx="13.5" cy="13.5" fill="purple" fill-opacity="0.8508771929824561" r="0.5" /><circle cx="14.5" cy="13.5" fill="purple" fill-opacity="0.8897243107769424" r="0.5" /><circle cx="15.5" cy="13.5" fill="purple" fill-opacity="0.8984962406015038" r="0.5" /><circle cx="16.5" cy="13.5" fill="purple" fill-opacity="0.9110275689223057" r="0.5" /><circle cx="17.5" cy="13.5" fill="purple" fill-opacity="0.8859649122807017" r="0.5" /><circle cx="18.5" cy="13.5" fill="purple" fill-opacity="0.9235588972431078" r="0.5" /><circle cx="19.5" cy="13.5" fill="purple" fill-opacity="0.8483709273182958" r="0.5" /><circle cx="0.5" cy="14.5" fill="purple" fill-opacity="0.8784461152882206" r="0.5" /><circle cx="1.5" cy="14.5" fill="purple" fill-opacity="0.8533834586466166" r="0.5" /><circle cx="2.5" cy="14.5" fill="purple" fill-opacity="0.8646616541353384" r="0.5" /><circle cx="3.5" cy="14.5" fill="purple" fill-opacity="0.868421052631579" r="0.5" /><circle cx="4.5" cy="14.5" fill="purple" fill-opacity="0.8771929824561403" r="0.5" /><circle cx="5.5" cy="14.5" fill="purple" fill-opacity="0.87468671679198" r="0.5" /><circle cx="6.5" cy="14.5" fill="purple" fill-opacity="0.8020050125313283" r="0.5" /><circle cx="7.5" cy="14.5" fill="purple" fill-opacity="0.8446115288220551" r="0.5" /><circle cx="8.5" cy="14.5" fill="purple" fill-opacity="0.8132832080200502" r="0.5" /><circle cx="9.5" cy="14.5" fill="purple" fill-opacity="0.8884711779448622" r="0.5" /><circle cx="10.5" cy="14.5" fill="purple" fill-opacity="0.7581453634085213" r="0.5" /><circle cx="11.5" cy="14.5" fill="purple" fill-opacity="0.8446115288220551" r="0.5" /><circle cx="12.5" cy="14.5" fill="purple" fill-opacity="0.7969924812030075" r="0.5" /><circle cx="13.5" cy="14.5" fill="purple" fill-opacity="0.7644110275689223" r="0.5" /><circle cx="14.5" cy="14.5" fill="purple" fill-opacity="0.7969924812030075" r="0.5" /><circle cx="15.5" cy="14.5" fill="purple" fill-opacity="0.7807017543859649" r="0.5" /><circle cx="16.5" cy="14.5" fill="purple" fill-opacity="0.7042606516290727" r="0.5" /><circle cx="17.5" cy="14.5" fill="purple" fill-opacity="0.6691729323308271" r="0.5" /><circle cx="18.5" cy="14.5" fill="purple" fill-opacity="0.7205513784461153" r="0.5" /><circle cx="19.5" cy="14.5" fill="purple" fill-opacity="0.7305764411027569" r="0.5" /><circle cx="0.5" cy="15.5" fill="purple" fill-opacity="0.6591478696741855" r="0.5" /><circle cx="1.5" cy="15.5" fill="purple" fill-opacity="0.6441102756892231" r="0.5" /><circle cx="2.5" cy="15.5" fill="purple" fill-opacity="0.6240601503759399" r="0.5" /><circle cx="3.5" cy="15.5" fill="purple" fill-opacity="0.6666666666666666" r="0.5" /><circle cx="4.5" cy="15.5" fill="purple" fill-opacity="0.6428571428571429" r="0.5" /><circle cx="5.5" cy="15.5" fill="purple" fill-opacity="0.6403508771929824" r="0.5" /><circle cx="6.5" cy="15.5" fill="purple" fill-opacity="0.5701754385964912" r="0.5" /><circle cx="7.5" cy="15.5" fill="purple" fill-opacity="0.5839598997493735" r="0.5" /><circle cx="8.5" cy="15.5" fill="purple" fill-opacity="0.5538847117794486" r="0.5" /><circle cx="9.5" cy="15.5" fill="purple" fill-opacity="0.5426065162907269" r="0.5" /><circle cx="10.5" cy="15.5" fill="purple" fill-opacity="0.5927318295739349" r="0.5" /><circle cx="11.5" cy="15.5" fill="purple" fill-opacity="0.5626566416040101" r="0.5" /><circle cx="12.5" cy="15.5" fill="purple" fill-opacity="0.6015037593984962" r="0.5" /><circle cx="13.5" cy="15.5" fill="purple" fill-opacity="0.5488721804511278" r="0.5" /><circle cx="14.5" cy="15.5" fill="purple" fill-opacity="0.5576441102756893" r="0.5" /><circle cx="15.5" cy="15.5" fill="purple" fill-opacity="0.5864661654135338" r="0.5" /><circle cx="16.5" cy="15.5" fill="purple" fill-opacity="0.5150375939849624" r="0.5" /><circle cx="17.5" cy="15.5" fill="purple" fill-opacity="0.5739348370927319" r="0.5" /><circle cx="18.5" cy="15.5" fill="purple" fill-opacity="0.5300751879699248" r="0.5" /><circle cx="19.5" cy="15.5" fill="purple" fill-opacity="0.5588972431077694" r="0.5" /><circle cx="0.5" cy="16.5" fill="purple" fill-opacity="0.5726817042606517" r="0.5" /><circle cx="1.5" cy="16.5" fill="purple" fill-opacity="0.49874686716791977" r="0.5" /><circle cx="2.5" cy="16.5" fill="purple" fill-opacity="0.568922305764411" r="0.5" /><circle cx="3.5" cy="16.5" fill="purple" fill-opacity="0.5338345864661654" r="0.5" /><circle cx="4.5" cy="16.5" fill="purple" fill-opacity="0.5701754385964912" r="0.5" /><circle cx="5.5" cy="16.5" fill="purple" fill-opacity="0.5275689223057645" r="0.5" /><circle cx="6.5" cy="16.5" fill="purple" fill-opacity="0.5852130325814536" r="0.5" /><circle cx="7.5" cy="16.5" fill="purple" fill-opacity="0.6052631578947368" r="0.5" /><circle cx="8.5" cy="16.5" fill="purple" fill-opacity="0.6303258145363408" r="0.5" /><circle cx="9.5" cy="16.5" fill="purple" fill-opacity="0.531328320802005" r="0.5" /><circle cx="10.5" cy="16.5" fill="purple" fill-opacity="0.6390977443609023" r="0.5" /><circle cx="11.5" cy="16.5" fill="purple" fill-opacity="0.6228070175438597" r="0.5" /><circle cx="12.5" cy="16.5" fill="purple" fill-opacity="0.6140350877192983" r="0.5" /><circle cx="13.5" cy="16.5" fill="purple" fill-opacity="0.6365914786967418" r="0.5" /><circle cx="14.5" cy="16.5" fill="purple" fill-opacity="0.6303258145363408" r="0.5" /><circle cx="15.5" cy="16.5" fill="purple" fill-opacity="0.6278195488721805" r="0.5" /><circle cx="16.5" cy="16.5" fill="purple" fill-opacity="0.6340852130325815" r="0.5" /><circle cx="17.5" cy="16.5" fill="purple" fill-opacity="0.6228070175438597" r="0.5" /><circle cx="18.5" cy="16.5" fill="purple" fill-opacity="0.6365914786967418" r="0.5" /><circle cx="19.5" cy="16.5" fill="purple" fill-opacity="0.6641604010025063" r="0.5" /><circle cx="0.5" cy="17.5" fill="purple" fill-opacity="0.6892230576441103" r="0.5" /><circle cx="1.5" cy="17.5" fill="purple" fill-opacity="0.7167919799498746" r="0.5" /><circle cx="2.5" cy="17.5" fill="purple" fill-opacity="0.7744360902255639" r="0.5" /><circle cx="3.5" cy="17.5" fill="purple" fill-opacity="0.7807017543859649" r="0.5" /><circle cx="4.5" cy="17.5" fill="purple" fill-opacity="0.7832080200501254" r="0.5" /><circle cx="5.5" cy="17.5" fill="purple" fill-opacity="0.7531328320802005" r="0.5" /><circle cx="6.5" cy="17.5" fill="purple" fill-opacity="0.8784461152882206" r="0.5" /><circle cx="7.5" cy="17.5" fill="purple" fill-opacity="0.7694235588972431" r="0.5" /><circle cx="8.5" cy="17.5" fill="purple" fill-opacity="0.8020050125313283" r="0.5" /><circle cx="9.5" cy="17.5" fill="purple" fill-opacity="0.8483709273182958" r="0.5" /><circle cx="10.5" cy="17.5" fill="purple" fill-opacity="0.8245614035087719" r="0.5" /><circle cx="11.5" cy="17.5" fill="purple" fill-opacity="0.8483709273182958" r="0.5" /><circle cx="12.5" cy="17.5" fill="purple" fill-opacity="0.8583959899749374" r="0.5" /><circle cx="13.5" cy="17.5" fill="purple" fill-opacity="0.8145363408521303" r="0.5" /><circle cx="14.5" cy="17.5" fill="purple" fill-opacity="0.8446115288220551" r="0.5" /><circle cx="15.5" cy="17.5" fill="purple" fill-opacity="0.8621553884711779" r="0.5" /><circle cx="16.5" cy="17.5" fill="purple" fill-opacity="0.8533834586466166" r="0.5" /><circle cx="17.5" cy="17.5" fill="purple" fill-opacity="0.8822055137844611" r="0.5" /><circle cx="18.5" cy="17.5" fill="purple" fill-opacity="0.9423558897243107" r="0.5" /><circle cx="19.5" cy="17.5" fill="purple" fill-opacity="0.893483709273183" r="0.5" /><circle cx="0.5" cy="18.5" fill="purple" fill-opacity="0.8959899749373433" r="0.5" /><circle cx="1.5" cy="18.5" fill="purple" fill-opacity="0.7857142857142857" r="0.5" /><circle cx="2.5" cy="18.5" fill="purple" fill-opacity="0.8609022556390977" r="0.5" /><circle cx="3.5" cy="18.5" fill="purple" fill-opacity="0.8834586466165414" r="0.5" /><circle cx="4.5" cy="18.5" fill="purple" fill-opacity="0.8471177944862155" r="0.5" /><circle cx="5.5" cy="18.5" fill="purple" fill-opacity="0.8320802005012531" r="0.5" /><circle cx="6.5" cy="18.5" fill="purple" fill-opacity="0.8546365914786967" r="0.5" /><circle cx="7.5" cy="18.5" fill="purple" fill-opacity="0.8634085213032582" r="0.5" /><circle cx="8.5" cy="18.5" fill="purple" fill-opacity="0.8709273182957393" r="0.5" /><circle cx="9.5" cy="18.5" fill="purple" fill-opacity="0.9122807017543859" r="0.5" /><circle cx="10.5" cy="18.5" fill="purple" fill-opacity="0.8558897243107769" r="0.5" /><circle cx="11.5" cy="18.5" fill="purple" fill-opacity="0.8909774436090225" r="0.5" /><circle cx="12.5" cy="18.5" fill="purple" fill-opacity="0.9072681704260651" r="0.5" /><circle cx="13.5" cy="18.5" fill="purple" fill-opacity="0.7944862155388471" r="0.5" /><circle cx="14.5" cy="18.5" fill="purple" fill-opacity="0.8308270676691729" r="0.5" /><circle cx="15.5" cy="18.5" fill="purple" fill-opacity="0.8032581453634086" r="0.5" /><circle cx="16.5" cy="18.5" fill="purple" fill-opacity="0.8082706766917294" r="0.5" /><circle cx="17.5" cy="18.5" fill="purple" fill-opacity="0.7819548872180451" r="0.5" /><circle cx="18.5" cy="18.5" fill="purple" fill-opacity="0.8208020050125313" r="0.5" /><circle cx="19.5" cy="18.5" fill="purple" fill-opacity="0.8521303258145363" r="0.5" /><circle cx="0.5" cy="19.5" fill="purple" fill-opacity="0.7907268170426065" r="0.5" /><circle cx="1.5" cy="19.5" fill="purple" fill-opacity="0.7944862155388471" r="0.5" /><circle cx="2.5" cy="19.5" fill="purple" fill-opacity="0.8245614035087719" r="0.5" /><circle cx="3.5" cy="19.5" fill="purple" fill-opacity="0.7531328320802005" r="0.5" /><circle cx="4.5" cy="19.5" fill="purple" fill-opacity="0.7982456140350878" r="0.5" /><circle cx="5.5" cy="19.5" fill="purple" fill-opacity="0.7982456140350878" r="0.5" /><circle cx="6.5" cy="19.5" fill="purple" fill-opacity="0.8408521303258145" r="0.5" /><circle cx="7.5" cy="19.5" fill="purple" fill-opacity="0.7957393483709273" r="0.5" /><circle cx="8.5" cy="19.5" fill="purple" fill-opacity="0.7832080200501254" r="0.5" /><circle cx="9.5" cy="19.5" fill="purple" fill-opacity="0.7230576441102757" r="0.5" /><circle cx="10.5" cy="19.5" fill="purple" fill-opacity="0.7443609022556391" r="0.5" /><circle cx="11.5" cy="19.5" fill="purple" fill-opacity="0.7380952380952381" r="0.5" /><circle cx="12.5" cy="19.5" fill="purple" fill-opacity="0.7418546365914787" r="0.5" /><circle cx="13.5" cy="19.5" fill="purple" fill-opacity="0.7255639097744361" r="0.5" /><circle cx="14.5" cy="19.5" fill="purple" fill-opacity="0.7105263157894737" r="0.5" /><circle cx="15.5" cy="19.5" fill="purple" fill-opacity="0.706766917293233" r="0.5" /><circle cx="16.5" cy="19.5" fill="purple" fill-opacity="0.7180451127819549" r="0.5" /><circle cx="17.5" cy="19.5" fill="purple" fill-opacity="0.7192982456140351" r="0.5" /><circle cx="18.5" cy="19.5" fill="purple" fill-opacity="0.6779448621553885" r="0.5" /><circle cx="19.5" cy="19.5" fill="purple" fill-opacity="0.6578947368421053" r="0.5" /></svg>