<?xml version="1.0" encoding="utf-8" ?>
<svg baseProfile="full" height="20" version="1.1" viewBox="0,0,20,20" width="20" xmlns="http://www.w3.org/2000/svg" xmlns:ev="http://www.w3.org/2001/xml-events" xmlns:xlink="http://www.w3.org/1999/xlink"><defs /><circle cx="0.5" cy="0.5" fill="purple" fill-opacity="0.6483103879849812" r="0.5" /><circle cx="1.5" cy="0.5" fill="purple" fill-opacity="0.6958698372966208" r="0.5" /><circle cx="2.5" cy="0.5" fill="purple" fill-opacity="0.6846057571964956" r="0.5" /><circle cx="3.5" cy="0.5" fill="purple" fill-opacity="0.6595744680851063" r="0.5" /><circle cx="4.5" cy="0.5" fill="purple" fill-opacity="0.7058823529411765" r="0.5" /><circle cx="5.5" cy="0.5" fill="purple" fill-opacity="0.6345431789737171" r="0.5" /><circle cx="6.5" cy="0.5" fill="purple" fill-opacity="0.609511889862328" r="0.5" /><circle cx="7.5" cy="0.5" fill="purple" fill-opacity="0.5794743429286608" r="0.5" /><circle cx="8.5" cy="0.5" fill="purple" fill-opacity="0.5944931163954944" r="0.5" /><circle cx="9.5" cy="0.5" fill="purple" fill-opacity="0.5369211514392991" r="0.5" /><circle cx="10.5" cy="0.5" fill="purple" fill-opacity="0.5919899874843555" r="0.5" /><circle cx="11.5" cy="0.5" fill="purple" fill-opacity="0.6370463078848561" r="0.5" /><circle cx="12.5" cy="0.5" fill="purple" fill-opacity="0.5857321652065082" r="0.5" /><circle cx="13.5" cy="0.5" fill="purple" fill-opacity="0.574468085106383" r="0.5" /><circle cx="14.5" cy="0.5" fill="purple" fill-opacity="0.6433041301627034" r="0.5" /><circle cx="15.5" cy="0.5" fill="purple" fill-opacity="0.5732165206508135" r="0.5" /><circle cx="16.5" cy="0.5" fill="purple" fill-opacity="0.6120150187734669" r="0.5" /><circle cx="17.5" cy="0.5" fill="purple" fill-opacity="0.5394242803504381" r="0.5" /><circle cx="18.5" cy="0.5" fill="purple" fill-opacity="0.5632040050062578" r="0.5" /><circle cx="19.5" cy="0.5" fill="purple" fill-opacity="0.5657071339173968" r="0.5" /><circle cx="0.5" cy="1.5" fill="purple" fill-opacity="0.6257822277847309" r="0.5" /><circle cx="1.5" cy="1.5" fill="purple" fill-opacity="0.5657071339173968" r="0.5" /><circle cx="2.5" cy="1.5" fill="purple" fill-opacity="0.6057571964956195" r="0.5" /><circle cx="3.5" cy="1.5" fill="purple" fill-opacity="0.5644555694618273" r="0.5" /><circle cx="4.5" cy="1.5" fill="purple" fill-opacity="0.6120150187734669" r="0.5" /><circle cx="5.5" cy="1.5" fill="purple" fill-opacity="0.541927409261577" r="0.5" /><circle cx="6.5" cy="1.5" fill="purple" fill-opacity="0.6220275344180225" r="0.5" /><circle cx="7.5" cy="1.5" fill="purple" fill-opacity="0.5919899874843555" r="0.5" /><circle cx="8.5" cy="1.5" fill="purple" fill-opacity="0.6207759699624531" r="0.5" /><circle cx="9.5" cy="1.5" fill="purple" fill-opacity="0.5456821026282853" r="0.5" /><circle cx="10.5" cy="1.5" fill="purple" fill-opacity="0.6345431789737171" r="0.5" /><circle cx="11.5" cy="1.5" fill="purple" fill-opacity="0.6583229036295369" r="0.5" /><circle cx="12.5" cy="1.5" fill="purple" fill-opacity="0.6070087609511889" r="0.5" /><circle cx="13.5" cy="1.5" fill="purple" fill-opacity="0.6533166458072591" r="0.5" /><circle cx="14.5" cy="1.5" fill="purple" fill-opacity="0.6770963704630788" r="0.5" /><circle cx="15.5" cy="1.5" fill="purple" fill-opacity="0.6207759699624531" r="0.5" /><circle cx="16.5" cy="1.5" fill="purple" fill-opacity="0.6808510638297872" r="0.5" /><circle cx="17.5" cy="1.5" fill="purple" fill-opacity="0.6445556946182729" r="0.5" /><circle cx="18.5" cy="1.5" fill="purple" fill-opacity="0.6921151439299124" r="0.5" /><circle cx="19.5" cy="1.5" fill="purple" fill-opacity="0.6833541927409261" r="0.5" /><circle cx="0.5" cy="2.5" fill="purple" fill-opacity="0.7509386733416771" r="0.5" /><circle cx="1.5" cy="2.5" fill="purple" fill-opacity="0.72090112640801" r="0.5" /><circle cx="2.5" cy="2.5" fill="purple" fill-opacity="0.7747183979974969" r="0.5" /><circle cx="3.5" cy="2.5" fill="purple" fill-opacity="0.785982478097622" r="0.5" /><circle cx="4.5" cy="2.5" fill="purple" fill-opacity="0.7346683354192741" r="0.5" /><circle cx="5.5" cy="2.5" fill="purple" fill-opacity="0.8010012515644556" r="0.5" /><circle cx="6.5" cy="2.5" fill="purple" fill-opacity="0.7747183979974969" r="0.5" /><circle cx="7.5" cy="2.5" fill="purple" fill-opacity="0.8623279098873592" r="0.5" /><circle cx="8.5" cy="2.5" fill="purple" fill-opacity="0.8122653316645807" r="0.5" /><circle cx="9.5" cy="2.5" fill="purple" fill-opacity="0.8297872340425532" r="0.5" /><circle cx="10.5" cy="2.5" fill="purple" fill-opacity="0.851063829787234" r="0.5" /><circle cx="11.5" cy="2.5" fill="purple" fill-opacity="0.8335419274092616" r="0.5" /><circle cx="12.5" cy="2.5" fill="purple" fill-opacity="0.8423028785982478" r="0.5" /><circle cx="13.5" cy="2.5" fill="purple" fill-opacity="0.8410513141426783" r="0.5" /><circle cx="14.5" cy="2.5" fill="purple" fill-opacity="0.8297872340425532" r="0.5" /><circle cx="15.5" cy="2.5" fill="purple" fill-opacity="0.9311639549436797" r="0.5" /><circle cx="16.5" cy="2.5" fill="purple" fill-opacity="0.9461827284105131" r="0.5" /><circle cx="17.5" cy="2.5" fill="purple" fill-opacity="0.8660826032540676" r="0.5" /><circle cx="18.5" cy="2.5" fill="purple" fill-opacity="0.886107634543179" r="0.5" /><circle cx="19.5" cy="2.5" fill="purple" fill-opacity="0.8886107634543179" r="0.5" /><circle cx="0.5" cy="3.5" fill="purple" fill-opacity="0.9098873591989988" r="0.5" /><circle cx="1.5" cy="3.5" fill="purple" fill-opacity="0.9486858573216521" r="0.5" /><circle cx="2.5" cy="3.5" fill="purple" fill-opacity="0.9311639549436797" r="0.5" /><circle cx="3.5" cy="3.5" fill="purple" fill-opacity="0.9424280350438048" r="0.5" /><circle cx="4.5" cy="3.5" fill="purple" fill-opacity="0.9436795994993742" r="0.5" /><circle cx="5.5" cy="3.5" fill="purple" fill-opacity="0.9424280350438048" r="0.5" /><circle cx="6.5" cy="3.5" fill="purple" fill-opacity="0.9586983729662077" r="0.5" /><circle cx="7.5" cy="3.5" fill="purple" fill-opacity="0.9086357947434293" r="0.5" /><circle cx="8.5" cy="3.5" fill="purple" fill-opacity="0.9687108886107635" r="0.5" /><circle cx="9.5" cy="3.5" fill="purple" fill-opacity="0.8873591989987485" r="0.5" /><circle cx="10.5" cy="3.5" fill="purple" fill-opacity="1.0" r="0.5" /><circle cx="11.5" cy="3.5" fill="purple" fill-opacity="0.8585732165206508" r="0.5" /><circle cx="12.5" cy="3.5" fill="purple" fill-opacity="0.9098873591989988" r="0.5" /><circle cx="13.5" cy="3.5" fill="purple" fill-opacity="0.8986232790988736" r="0.5" /><circle cx="14.5" cy="3.5" fill="purple" fill-opacity="0.886107634543179" r="0.5" /><circle cx="15.5" cy="3.5" fill="purple" fill-opacity="0.9211514392991239" r="0.5" /><circle cx="16.5" cy="3.5" fill="purple" fill-opacity="0.9061326658322904" r="0.5" /><circle cx="17.5" cy="3.5" fill="purple" fill-opacity="0.7822277847309136" r="0.5" /><circle cx="18.5" cy="3.5" fill="purple" fill-opacity="0.8648310387984981" r="0.5" /><circle cx="19.5" cy="3.5" fill="purple" fill-opacity="0.8410513141426783" r="0.5" /><circle cx="0.5" cy="4.5" fill="purple" fill-opacity="0.7809762202753442" r="0.5" /><circle cx="1.5" cy="4.5" fill="purple" fill-opacity="0.8122653316645807" r="0.5" /><circle cx="2.5" cy="4.5" fill="purple" fill-opacity="0.8285356695869838" r="0.5" /><circle cx="3.5" cy="4.5" fill="purple" fill-opacity="0.8235294117647058" r="0.5" /><circle cx="4.5" cy="4.5" fill="purple" fill-opacity="0.8060075093867334" r="0.5" /><circle cx="5.5" cy="4.5" fill="purple" fill-opacity="0.7434292866082604" r="0.5" /><circle cx="6.5" cy="4.5" fill="purple" fill-opacity="0.7922403003754693" r="0.5" /><circle cx="7.5" cy="4.5" fill="purple" fill-opacity="0.7571964956195244" r="0.5" /><circle cx="8.5" cy="4.5" fill="purple" fill-opacity="0.7684605757196495" r="0.5" /><circle cx="9.5" cy="4.5" fill="purple" fill-opacity="0.7571964956195244" r="0.5" /><circle cx="10.5" cy="4.5" fill="purple" fill-opacity="0.7446808510638298" r="0.5" /><circle cx="11.5" cy="4.5" fill="purple" fill-opacity="0.7121401752190237" r="0.5" /><circle cx="12.5" cy="4.5" fill="purple" fill-opacity="0.737171464330413" r="0.5" /><circle cx="13.5" cy="4.5" fill="purple" fill-opacity="0.6808510638297872" r="0.5" /><circle cx="14.5" cy="4.5" fill="purple" fill-opacity="0.7296620775969962" r="0.5" /><circle cx="15.5" cy="4.5" fill="purple" fill-opacity="0.6821026282853567" r="0.5" /><circle cx="16.5" cy="4.5" fill="purple" fill-opacity="0.6595744680851063" r="0.5" /><circle cx="17.5" cy="4.5" fill="purple" fill-opacity="0.6408010012515645" r="0.5" /><circle cx="18.5" cy="4.5" fill="purple" fill-opacity="0.6745932415519399" r="0.5" /><circle cx="19.5" cy="4.5" fill="purple" fill-opacity="0.5944931163954944" r="0.5" /><circle cx="0.5" cy="5.5" fill="purple" fill-opacity="0.6145181476846058" r="0.5" /><circle cx="1.5" cy="5.5" fill="purple" fill-opacity="0.6520650813516896" r="0.5" /><circle cx="2.5" cy="5.5" fill="purple" fill-opacity="0.6107634543178974" r="0.5" /><circle cx="3.5" cy="5.5" fill="purple" fill-opacity="0.6257822277847309" r="0.5" /><circle cx="4.5" cy="5.5" fill="purple" fill-opacity="0.6107634543178974" r="0.5" /><circle cx="5.5" cy="5.5" fill="purple" fill-opacity="0.5857321652065082" r="0.5" /><circle cx="6.5" cy="5.5" fill="purple" fill-opacity="0.6057571964956195" r="0.5" /><circle cx="7.5" cy="5.5" fill="purple" fill-opacity="0.5682102628285357" r="0.5" /><circle cx="8.5" cy="5.5" fill="purple" fill-opacity="0.6170212765957447" r="0.5" /><circle cx="9.5" cy="5.5" fill="purple" fill-opacity="0.6082603254067585" r="0.5" /><circle cx="10.5" cy="5.5" fill="purple" fill-opacity="0.5932415519399249" r="0.5" /><circle cx="11.5" cy="5.5" fill="purple" fill-opacity="0.5969962453066333" r="0.5" /><circle cx="12.5" cy="5.5" fill="purple" fill-opacity="0.5957446808510638" r="0.5" /><circle cx="13.5" cy="5.5" fill="purple" fill-opacity="0.5857321652065082" r="0.5" /><circle cx="14.5" cy="5.5" fill="purple" fill-opacity="0.5682102628285357" r="0.5" /><circle cx="15.5" cy="5.5" fill="purple" fill-opacity="0.6070087609511889" r="0.5" /><circle cx="16.5" cy="5.5" fill="purple" fill-opacity="0.6032540675844806" r="0.5" /><circle cx="17.5" cy="5.5" fill="purple" fill-opacity="0.5894868585732165" r="0.5" /><circle cx="18.5" cy="5.5" fill="purple" fill-opacity="0.6508135168961201" r="0.5" /><circle cx="19.5" cy="5.5" fill="purple" fill-opacity="0.5294117647058824" r="0.5" /><circle cx="0.5" cy="6.5" fill="purple" fill-opacity="0.5757196495619524" r="0.5" /><circle cx="1.5" cy="6.5" fill="purple" fill-opacity="0.5819774718397998" r="0.5" /><circle cx="2.5" cy="6.5" fill="purple" fill-opacity="0.5594493116395495" r="0.5" /><circle cx="3.5" cy="6.5" fill="purple" fill-opacity="0.5569461827284106" r="0.5" /><circle cx="4.5" cy="6.5" fill="purple" fill-opacity="0.5944931163954944" r="0.5" /><circle cx="5.5" cy="6.5" fill="purple" fill-opacity="0.6295369211514393" r="0.5" /><circle cx="6.5" cy="6.5" fill="purple" fill-opacity="0.5569461827284106" r="0.5" /><circle cx="7.5" cy="6.5" fill="purple" fill-opacity="0.623279098873592" r="0.5" /><circle cx="8.5" cy="6.5" fill="purple" fill-opacity="0.6082603254067585" r="0.5" /><circle cx="9.5" cy="6.5" fill="purple" fill-opacity="0.6520650813516896" r="0.5" /><circle cx="10.5" cy="6.5" fill="purple" fill-opacity="0.6132665832290363" r="0.5" /><circle cx="11.5" cy="6.5" fill="purple" fill-opacity="0.6270337922403004" r="0.5" /><circle cx="12.5" cy="6.5" fill="purple" fill-opacity="0.6270337922403004" r="0.5" /><circle cx="13.5" cy="6.5" fill="purple" fill-opacity="0.6645807259073843" r="0.5" /><circle cx="14.5" cy="6.5" fill="purple" fill-opacity="0.6745932415519399" r="0.5" /><circle cx="15.5" cy="6.5" fill="purple" fill-opacity="0.7058823529411765" r="0.5" /><circle cx="16.5" cy="6.5" fill="purple" fill-opacity="0.6971214017521903" r="0.5" /><circle cx="17.5" cy="6.5" fill="purple" fill-opacity="0.7146433041301627" r="0.5" /><circle cx="18.5" cy="6.5" fill="purple" fill-opacity="0.6821026282853567" r="0.5" /><circle cx="19.5" cy="6.5" fill="purple" fill-opacity="0.7058823529411765" r="0.5" /><circle cx="0.5" cy="7.5" fill="purple" fill-opacity="0.6958698372966208" r="0.5" /><circle cx="1.5" cy="7.5" fill="purple" fill-opacity="0.6846057571964956" r="0.5" /><circle cx="2.5" cy="7.5" fill="purple" fill-opacity="0.7133917396745932" r="0.5" /><circle cx="3.5" cy="7.5" fill="purple" fill-opacity="0.7647058823529411" r="0.5" /><circle cx="4.5" cy="7.5" fill="purple" fill-opacity="0.7396745932415519" r="0.5" /><circle cx="5.5" cy="7.5" fill="purple" fill-opacity="0.7471839799749687" r="0.5" /><circle cx="6.5" cy="7.5" fill="purple" fill-opacity="0.7734668335419274" r="0.5" /><circle cx="7.5" cy="7.5" fill="purple" fill-opacity="0.7496871088861077" r="0.5" /><circle cx="8.5" cy="7.5" fill="purple" fill-opacity="0.7684605757196495" r="0.5" /><circle cx="9.5" cy="7.5" fill="purple" fill-opacity="0.7784730913642053" r="0.5" /><circle cx="10.5" cy="7.5" fill="purple" fill-opacity="0.772215269086358" r="0.5" /><circle cx="11.5" cy="7.5" fill="purple" fill-opacity="0.7622027534418022" r="0.5" /><circle cx="12.5" cy="7.5" fill="purple" fill-opacity="0.8347934918648311" r="0.5" /><circle cx="13.5" cy="7.5" fill="purple" fill-opacity="0.8397997496871089" r="0.5" /><circle cx="14.5" cy="7.5" fill="purple" fill-opacity="0.7709637046307884" r="0.5" /><circle cx="15.5" cy="7.5" fill="purple" fill-opacity="0.8785982478097623" r="0.5" /><circle cx="16.5" cy="7.5" fill="purple" fill-opacity="0.869837296620776" r="0.5" /><circle cx="17.5" cy="7.5" fill="purple" fill-opacity="0.8523153942428036" r="0.5" /><circle cx="18.5" cy="7.5" fill="purple" fill-opacity="0.8811013767209012" r="0.5" /><circle cx="19.5" cy="7.5" fill="purple" fill-opacity="0.8660826032540676" r="0.5" /><circle cx="0.5" cy="8.5" fill="purple" fill-opacity="0.9111389236545682" r="0.5" /><circle cx="1.5" cy="8.5" fill="purple" fill-opacity="0.9036295369211514" r="0.5" /><circle cx="2.5" cy="8.5" fill="purple" fill-opacity="0.9173967459324155" r="0.5" /><circle cx="3.5" cy="8.5" fill="purple" fill-opacity="0.8760951188986232" r="0.5" /><circle cx="4.5" cy="8.5" fill="purple" fill-opacity="0.8811013767209012" r="0.5" /><circle cx="5.5" cy="8.5" fill="purple" fill-opacity="0.9612015018773467" r="0.5" /><circle cx="6.5" cy="8.5" fill="purple" fill-opacity="0.8961201501877347" r="0.5" /><circle cx="7.5" cy="8.5" fill="purple" fill-opacity="0.8848560700876095" r="0.5" /><circle cx="8.5" cy="8.5" fill="purple" fill-opacity="0.9123904881101377" r="0.5" /><circle cx="9.5" cy="8.5" fill="purple" fill-opacity="0.9662077596996246" r="0.5" /><circle cx="10.5" cy="8.5" fill="purple" fill-opacity="0.899874843554443" r="0.5" /><circle cx="11.5" cy="8.5" fill="purple" fill-opacity="0.9274092615769712" r="0.5" /><circle cx="12.5" cy="8.5" fill="purple" fill-opacity="0.9236545682102628" r="0.5" /><circle cx="13.5" cy="8.5" fill="purple" fill-opacity="0.9599499374217773" r="0.5" /><circle cx="14.5" cy="8.5" fill="purple" fill-opacity="0.9261576971214017" r="0.5" /><circle cx="15.5" cy="8.5" fill="purple" fill-opacity="0.9374217772215269" r="0.5" /><circle cx="16.5" cy="8.5" fill="purple" fill-opacity="0.867334167709637" r="0.5" /><circle cx="17.5" cy="8.5" fill="purple" fill-opacity="0.9436795994993742" r="0.5" /><circle cx="18.5" cy="8.5" fill="purple" fill-opacity="0.886107634543179" r="0.5" /><circle cx="19.5" cy="8.5" fill="purple" fill-opacity="0.9136420525657072" r="0.5" /><circle cx="0.5" cy="9.5" fill="purple" fill-opacity="0.8923654568210263" r="0.5" /><circle cx="1.5" cy="9.5" fill="purple" fill-opacity="0.9211514392991239" r="0.5" /><circle cx="2.5" cy="9.5" fill="purple" fill-opacity="0.8973717146433041" r="0.5" /><circle cx="3.5" cy="9.5" fill="purple" fill-opacity="0.8197747183979975" r="0.5" /><circle cx="4.5" cy="9.5" fill="purple" fill-opacity="0.8823529411764706" r="0.5" /><circle cx="5.5" cy="9.5" fill="purple" fill-opacity="0.8485607008760951" r="0.5" /><circle cx="6.5" cy="9.5" fill="purple" fill-opacity="0.8823529411764706" r="0.5" /><circle cx="7.5" cy="9.5" fill="purple" fill-opacity="0.8460575719649562" r="0.5" /><circle cx="8.5" cy="9.5" fill="purple" fill-opacity="0.8147684605757196" r="0.5" /><circle cx="9.5" cy="9.5" fill="purple" fill-opacity="0.7396745932415519" r="0.5" /><circle cx="10.5" cy="9.5" fill="purple" fill-opacity="0.7734668335419274" r="0.5" /><circle cx="11.5" cy="9.5" fill="purple" fill-opacity="0.799749687108886" r="0.5" /><circle cx="12.5" cy="9.5" fill="purple" fill-opacity="0.7146433041301627" r="0.5" /><circle cx="13.5" cy="9.5" fill="purple" fill-opacity="0.7359198998748435" r="0.5" /><circle cx="14.5" cy="9.5" fill="purple" fill-opacity="0.7434292866082604" r="0.5" /><circle cx="15.5" cy="9.5" fill="purple" fill-opacity="0.72090112640801" r="0.5" /><circle cx="16.5" cy="9.5" fill="purple" fill-opacity="0.6896120150187734" r="0.5" /><circle cx="17.5" cy="9.5" fill="purple" fill-opacity="0.7246558197747184" r="0.5" /><circle cx="18.5" cy="9.5" fill="purple" fill-opacity="0.7521902377972466" r="0.5" /><circle cx="19.5" cy="9.5" fill="purple" fill-opacity="0.6971214017521903" r="0.5" /><circle cx="0.5" cy="10.5" fill="purple" fill-opacity="0.6332916145181476" r="0.5" /><circle cx="1.5" cy="10.5" fill="purple" fill-opacity="0.6170212765957447" r="0.5" /><circle cx="2.5" cy="10.5" fill="purple" fill-opacity="0.6332916145181476" r="0.5" /><circle cx="3.5" cy="10.5" fill="purple" fill-opacity="0.5869837296620776" r="0.5" /><circle cx="4.5" cy="10.5" fill="purple" fill-opacity="0.5682102628285357" r="0.5" /><circle cx="5.5" cy="10.5" fill="purple" fill-opacity="0.6245306633291614" r="0.5" /><circle cx="6.5" cy="10.5" fill="purple" fill-opacity="0.6070087609511889" r="0.5" /><circle cx="7.5" cy="10.5" fill="purple" fill-opacity="0.5844806007509387" r="0.5" /><circle cx="8.5" cy="10.5" fill="purple" fill-opacity="0.5707133917396746" r="0.5" /><circle cx="9.5" cy="10.5" fill="purple" fill-opacity="0.5607008760951189" r="0.5" /><circle cx="10.5" cy="10.5" fill="purple" fill-opacity="0.5932415519399249" r="0.5" /><circle cx="11.5" cy="10.5" fill="purple" fill-opacity="0.5569461827284106" r="0.5" /><circle cx="12.5" cy="10.5" fill="purple" fill-opacity="0.5857321652065082" r="0.5" /><circle cx="13.5" cy="10.5" fill="purple" fill-opacity="0.5807259073842302" r="0.5" /><circle cx="14.5" cy="10.5" fill="purple" fill-opacity="0.5869837296620776" r="0.5" /><circle cx="15.5" cy="10.5" fill="purple" fill-opacity="0.6082603254067585" r="0.5" /><circle cx="16.5" cy="10.5" fill="purple" fill-opacity="0.5869837296620776" r="0.5" /><circle cx="17.5" cy="10.5" fill="purple" fill-opacity="0.5782227784730913" r="0.5" /><circle cx="18.5" cy="10.5" fill="purple" fill-opacity="0.5519399249061326" r="0.5" /><circle cx="19.5" cy="10.5" fill="purple" fill-opacity="0.5256570713391739" r="0.5" /><circle cx="0.5" cy="11.5" fill="purple" fill-opacity="0.5757196495619524" r="0.5" /><circle cx="1.5" cy="11.5" fill="purple" fill-opacity="0.5982478097622027" r="0.5" /><circle cx="2.5" cy="11.5" fill="purple" fill-opacity="0.5869837296620776" r="0.5" /><circle cx="3.5" cy="11.5" fill="purple" fill-opacity="0.5682102628285357" r="0.5" /><circle cx="4.5" cy="11.5" fill="purple" fill-opacity="0.6082603254067585" r="0.5" /><circle cx="5.5" cy="11.5" fill="purple" fill-opacity="0.6483103879849812" r="0.5" /><circle cx="6.5" cy="11.5" fill="purple" fill-opacity="0.6295369211514393" r="0.5" /><circle cx="7.5" cy="11.5" fill="purple" fill-opacity="0.623279098873592" r="0.5" /><circle cx="8.5" cy="11.5" fill="purple" fill-opacity="0.5969962453066333" r="0.5" /><circle cx="9.5" cy="11.5" fill="purple" fill-opacity="0.6983729662077597" r="0.5" /><circle cx="10.5" cy="11.5" fill="purple" fill-opacity="0.685857321652065" r="0.5" /><circle cx="11.5" cy="11.5" fill="purple" fill-opacity="0.6695869837296621" r="0.5" /><circle cx="12.5" cy="11.5" fill="purple" fill-opacity="0.6795994993742178" r="0.5" /><circle cx="13.5" cy="11.5" fill="purple" fill-opacity="0.6645807259073843" r="0.5" /><circle cx="14.5" cy="11.5" fill="purple" fill-opacity="0.6270337922403004" r="0.5" /><circle cx="15.5" cy="11.5" fill="purple" fill-opacity="0.685857321652065" r="0.5" /><circle cx="16.5" cy="11.5" fill="purple" fill-opacity="0.6520650813516896" r="0.5" /><circle cx="17.5" cy="11.5" fill="purple" fill-opacity="0.7133917396745932" r="0.5" /><circle cx="18.5" cy="11.5" fill="purple" fill-opacity="0.6745932415519399" r="0.5" /><circle cx="19.5" cy="11.5" fill="purple" fill-opacity="0.690863579474343" r="0.5" /><circle cx="0.5" cy="12.5" fill="purple" fill-opacity="0.7133917396745932" r="0.5" /><circle cx="1.5" cy="12.5" fill="purple" fill-opacity="0.785982478097622" r="0.5" /><circle cx="2.5" cy="12.5" fill="purple" fill-opacity="0.7647058823529411" r="0.5" /><circle cx="3.5" cy="12.5" fill="purple" fill-opacity="0.7434292866082604" r="0.5" /><circle cx="4.5" cy="12.5" fill="purple" fill-opacity="0.7246558197747184" r="0.5" /><circle cx="5.5" cy="12.5" fill="purple" fill-opacity="0.7321652065081352" r="0.5" /><circle cx="6.5" cy="12.5" fill="purple" fill-opacity="0.8210262828535669" r="0.5" /><circle cx="7.5" cy="12.5" fill="purple" fill-opacity="0.8210262828535669" r="0.5" /><circle cx="8.5" cy="12.5" fill="purple" fill-opacity="0.7984981226533167" r="0.5" /><circle cx="9.5" cy="12.5" fill="purple" fill-opacity="0.8222778473091364" r="0.5" /><circle cx="10.5" cy="12.5" fill="purple" fill-opacity="0.8247809762202754" r="0.5" /><circle cx="11.5" cy="12.5" fill="purple" fill-opacity="0.8347934918648311" r="0.5" /><circle cx="12.5" cy="12.5" fill="purple" fill-opacity="0.8760951188986232" r="0.5" /><circle cx="13.5" cy="12.5" fill="purple" fill-opacity="0.8385481852315394" r="0.5" /><circle cx="14.5" cy="12.5" fill="purple" fill-opacity="0.7922403003754693" r="0.5" /><circle cx="15.5" cy="12.5" fill="purple" fill-opacity="0.8235294117647058" r="0.5" /><circle cx="16.5" cy="12.5" fill="purple" fill-opacity="0.8322903629536921" r="0.5" /><circle cx="17.5" cy="12.5" fill="purple" fill-opacity="0.9011264080100125" r="0.5" /><circle cx="18.5" cy="12.5" fill="purple" fill-opacity="0.8773466833541927" r="0.5" /><circle cx="19.5" cy="12.5" fill="purple" fill-opacity="0.9011264080100125" r="0.5" /><circle cx="0.5" cy="13.5" fill="purple" fill-opacity="0.8260325406758448" r="0.5" /><circle cx="1.5" cy="13.5" fill="purple" fill-opacity="0.9236545682102628" r="0.5" /><circle cx="2.5" cy="13.5" fill="purple" fill-opacity="0.8635794743429287" r="0.5" /><circle cx="3.5" cy="13.5" fill="purple" fill-opacity="0.8448060075093867" r="0.5" /><circle cx="4.5" cy="13.5" fill="purple" fill-opacity="0.8310387984981227" r="0.5" /><circle cx="5.5" cy="13.5" fill="purple" fill-opacity="0.8623279098873592" r="0.5" /><circle cx="6.5" cy="13.5" fill="purple" fill-opacity="0.8397997496871089" r="0.5" /><circle cx="7.5" cy="13.5" fill="purple" fill-opacity="0.9361702127659575" r="0.5" /><circle cx="8.5" cy="13.5" fill="purple" fill-opacity="0.904881101376721" r="0.5" /><circle cx="9.5" cy="13.5" fill="purple" fill-opacity="0.8898623279098874" r="0.5" /><circle cx="10.5" cy="13.5" fill="purple" fill-opacity="0.8573216520650814" r="0.5" /><circle cx="11.5" cy="13.5" fill="purple" fill-opacity="0.8986232790988736" r="0.5" /><circle cx="12.5" cy="13.5" fill="purple" fill-opacity="0.8435544430538173" r="0.5" /><circle cx="13.5" cy="13.5" fill="purple" fill-opacity="0.8498122653316645" r="0.5" /><circle cx="14.5" cy="13.5" fill="purple" fill-opacity="0.8886107634543179" r="0.5" /><circle cx="15.5" cy="13.5" fill="purple" fill-opacity="0.8973717146433041" r="0.5" /><circle cx="16.5" cy="13.5" fill="purple" fill-opacity="0.9098873591989988" r="0.5" /><circle cx="17.5" cy="13.5" fill="purple" fill-opacity="0.8848560700876095" r="0.5" /><circle cx="18.5" cy="13.5" fill="purple" fill-opacity="0.9224030037546934" r="0.5" /><circle cx="19.5" cy="13.5" fill="purple" fill-opacity="0.8485607008760951" r="0.5" /><circle cx="0.5" cy="14.5" fill="purple" fill-opacity="0.8773466833541927" r="0.5" /><circle cx="1.5" cy="14.5" fill="purple" fill-opacity="0.8523153942428036" r="0.5" /><circle cx="2.5" cy="14.5" fill="purple" fill-opacity="0.8635794743429287" r="0.5" /><circle cx="3.5" cy="14.5" fill="purple" fill-opacity="0.867334167709637" r="0.5" /><circle cx="4.5" cy="14.5" fill="purple" fill-opacity="0.8760951188986232" r="0.5" /><circle cx="5.5" cy="14.5" fill="purple" fill-opacity="0.8735919899874843" r="0.5" /><circle cx="6.5" cy="14.5" fill="purple" fill-opacity="0.8010012515644556" r="0.5" /><circle cx="7.5" cy="14.5" fill="purple" fill-opacity="0.8448060075093867" r="0.5" /><circle cx="8.5" cy="14.5" fill="purple" fill-opacity="0.8122653316645807" r="0.5" /><circle cx="9.5" cy="14.5" fill="purple" fill-opacity="0.8886107634543179" r="0.5" /><circle cx="10.5" cy="14.5" fill="purple" fill-opacity="0.7571964956195244" r="0.5" /><circle cx="11.5" cy="14.5" fill="purple" fill-opacity="0.8460575719649562" r="0.5" /><circle cx="12.5" cy="14.5" fill="purple" fill-opacity="0.7959949937421777" r="0.5" /><circle cx="13.5" cy="14.5" fill="purple" fill-opacity="0.7634543178973717" r="0.5" /><circle cx="14.5" cy="14.5" fill="purple" fill-opacity="0.7959949937421777" r="0.5" /><circle cx="15.5" cy="14.5" fill="purple" fill-opacity="0.7797246558197747" r="0.5" /><circle cx="16.5" cy="14.5" fill="purple" fill-opacity="0.7033792240300375" r="0.5" /><circle cx="17.5" cy="14.5" fill="purple" fill-opacity="0.6683354192740926" r="0.5" /><circle cx="18.5" cy="14.5" fill="purple" fill-opacity="0.7196495619524406" r="0.5" /><circle cx="19.5" cy="14.5" fill="purple" fill-opacity="0.7296620775969962" r="0.5" /><circle cx="0.5" cy="15.5" fill="purple" fill-opacity="0.6583229036295369" r="0.5" /><circle cx="1.5" cy="15.5" fill="purple" fill-opacity="0.6433041301627034" r="0.5" /><circle cx="2.5" cy="15.5" fill="purple" fill-opacity="0.623279098873592" r="0.5" /><circle cx="3.5" cy="15.5" fill="purple" fill-opacity="0.6658322903629537" r="0.5" /><circle cx="4.5" cy="15.5" fill="purple" fill-opacity="0.6420525657071339" r="0.5" /><circle cx="5.5" cy="15.5" fill="purple" fill-opacity="0.639549436795995" r="0.5" /><circle cx="6.5" cy="15.5" fill="purple" fill-opacity="0.5707133917396746" r="0.5" /><circle cx="7.5" cy="15.5" fill="purple" fill-opacity="0.5832290362953693" r="0.5" /><circle cx="8.5" cy="15.5" fill="purple" fill-opacity="0.5544430538172715" r="0.5" /><circle cx="9.5" cy="15.5" fill="purple" fill-opacity="0.5431789737171464" r="0.5" /><circle cx="10.5" cy="15.5" fill="purple" fill-opacity="0.5919899874843555" r="0.5" /><circle cx="11.5" cy="15.5" fill="purple" fill-opacity="0.5619524405506884" r="0.5" /><circle cx="12.5" cy="15.5" fill="purple" fill-opacity="0.6020025031289111" r="0.5" /><circle cx="13.5" cy="15.5" fill="purple" fill-opacity="0.5481852315394243" r="0.5" /><circle cx="14.5" cy="15.5" fill="purple" fill-opacity="0.5569461827284106" r="0.5" /><circle cx="15.5" cy="15.5" fill="purple" fill-opacity="0.5857321652065082" r="0.5" /><circle cx="16.5" cy="15.5" fill="purple" fill-opacity="0.5143929912390488" r="0.5" /><circle cx="17.5" cy="15.5" fill="purple" fill-opacity="0.5732165206508135" r="0.5" /><circle cx="18.5" cy="15.5" fill="purple" fill-opacity="0.5306633291614519" r="0.5" /><circle cx="19.5" cy="15.5" fill="purple" fill-opacity="0.55819774718398" r="0.5" /><circle cx="0.5" cy="16.5" fill="purple" fill-opacity="0.5732165206508135" r="0.5" /><circle cx="1.5" cy="16.5" fill="purple" fill-opacity="0.4981226533166458" r="0.5" /><circle cx="2.5" cy="16.5" fill="purple" fill-opacity="0.5694618272841051" r="0.5" /><circle cx="3.5" cy="16.5" fill="purple" fill-opacity="0.5331664580725908" r="0.5" /><circle cx="4.5" cy="16.5" fill="purple" fill-opacity="0.5694618272841051" r="0.5" /><circle cx="5.5" cy="16.5" fill="purple" fill-opacity="0.5269086357947435" r="0.5" /><circle cx="6.5" cy="16.5" fill="purple" fill-opacity="0.5844806007509387" r="0.5" /><circle cx="7.5" cy="16.5" fill="purple" fill-opacity="0.60450563204005" r="0.5" /><circle cx="8.5" cy="16.5" fill="purple" fill-opacity="0.6295369211514393" r="0.5" /><circle cx="9.5" cy="16.5" fill="purple" fill-opacity="0.5319148936170213" r="0.5" /><circle cx="10.5" cy="16.5" fill="purple" fill-opacity="0.6382978723404256" r="0.5" /><circle cx="11.5" cy="16.5" fill="purple" fill-opacity="0.6220275344180225" r="0.5" /><circle cx="12.5" cy="16.5" fill="purple" fill-opacity="0.6132665832290363" r="0.5" /><circle cx="13.5" cy="16.5" fill="purple" fill-opacity="0.6357947434292867" r="0.5" /><circle cx="14.5" cy="16.5" fill="purple" fill-opacity="0.6295369211514393" r="0.5" /><circle cx="15.5" cy="16.5" fill="purple" fill-opacity="0.6270337922403004" r="0.5" /><circle cx="16.5" cy="16.5" fill="purple" fill-opacity="0.6345431789737171" r="0.5" /><circle cx="17.5" cy="16.5" fill="purple" fill-opacity="0.6257822277847309" r="0.5" /><circle cx="18.5" cy="16.5" fill="purple" fill-opacity="0.6357947434292867" r="0.5" /><circle cx="19.5" cy="16.5" fill="purple" fill-opacity="0.6633291614518148" r="0.5" /><circle cx="0.5" cy="17.5" fill="purple" fill-opacity="0.688360450563204" r="0.5" /><circle cx="1.5" cy="17.5" fill="purple" fill-opacity="0.7158948685857321" r="0.5" /><circle cx="2.5" cy="17.5" fill="purple" fill-opacity="0.7734668335419274" r="0.5" /><circle cx="3.5" cy="17.5" fill="purple" fill-opacity="0.7809762202753442" r="0.5" /><circle cx="4.5" cy="17.5" fill="purple" fill-opacity="0.7822277847309136" r="0.5" /><circle cx="5.5" cy="17.5" fill="purple" fill-opacity="0.753441802252816" r="0.5" /><circle cx="6.5" cy="17.5" fill="purple" fill-opacity="0.8785982478097623" r="0.5" /><circle cx="7.5" cy="17.5" fill="purple" fill-opacity="0.7684605757196495" r="0.5" /><circle cx="8.5" cy="17.5" fill="purple" fill-opacity="0.8010012515644556" r="0.5" /><circle cx="9.5" cy="17.5" fill="purple" fill-opacity="0.8473091364205256" r="0.5" /><circle cx="10.5" cy="17.5" fill="purple" fill-opacity="0.8247809762202754" r="0.5" /><circle cx="11.5" cy="17.5" fill="purple" fill-opacity="0.8473091364205256" r="0.5" /><circle cx="12.5" cy="17.5" fill="purple" fill-opacity="0.8573216520650814" r="0.5" /><circle cx="13.5" cy="17.5" fill="purple" fill-opacity="0.8135168961201502" r="0.5" /><circle cx="14.5" cy="17.5" fill="purple" fill-opacity="0.8435544430538173" r="0.5" /><circle cx="15.5" cy="17.5" fill="purple" fill-opacity="0.8623279098873592" r="0.5" /><circle cx="16.5" cy="17.5" fill="purple" fill-opacity="0.853566958698373" r="0.5" /><circle cx="17.5" cy="17.5" fill="purple" fill-opacity="0.8823529411764706" r="0.5" /><circle cx="18.5" cy="17.5" fill="purple" fill-opacity="0.9424280350438048" r="0.5" /><circle cx="19.5" cy="17.5" fill="purple" fill-opacity="0.8923654568210263" r="0.5" /><circle cx="0.5" cy="18.5" fill="purple" fill-opacity="0.8948685857321652" r="0.5" /><circle cx="1.5" cy="18.5" fill="purple" fill-opacity="0.7847309136420526" r="0.5" /><circle cx="2.5" cy="18.5" fill="purple" fill-opacity="0.8610763454317898" r="0.5" /><circle cx="3.5" cy="18.5" fill="purple" fill-opacity="0.8823529411764706" r="0.5" /><circle cx="4.5" cy="18.5" fill="purple" fill-opacity="0.8460575719649562" r="0.5" /><circle cx="5.5" cy="18.5" fill="purple" fill-opacity="0.8310387984981227" r="0.5" /><circle cx="6.5" cy="18.5" fill="purple" fill-opacity="0.853566958698373" r="0.5" /><circle cx="7.5" cy="18.5" fill="purple" fill-opacity="0.8623279098873592" r="0.5" /><circle cx="8.5" cy="18.5" fill="purple" fill-opacity="0.869837296620776" r="0.5" /><circle cx="9.5" cy="18.5" fill="purple" fill-opacity="0.9111389236545682" r="0.5" /><circle cx="10.5" cy="18.5" fill="purple" fill-opacity="0.8548185231539425" r="0.5" /><circle cx="11.5" cy="18.5" fill="purple" fill-opacity="0.8898623279098874" r="0.5" /><circle cx="12.5" cy="18.5" fill="purple" fill-opacity="0.904881101376721" r="0.5" /><circle cx="13.5" cy="18.5" fill="purple" fill-opacity="0.7934918648310388" r="0.5" /><circle cx="14.5" cy="18.5" fill="purple" fill-opacity="0.8297872340425532" r="0.5" /><circle cx="15.5" cy="18.5" fill="purple" fill-opacity="0.8035043804755945" r="0.5" /><circle cx="16.5" cy="18.5" fill="purple" fill-opacity="0.8072590738423029" r="0.5" /><circle cx="17.5" cy="18.5" fill="purple" fill-opacity="0.7809762202753442" r="0.5" /><circle cx="18.5" cy="18.5" fill="purple" fill-opacity="0.8197747183979975" r="0.5" /><circle cx="19.5" cy="18.5" fill="purple" fill-opacity="0.8523153942428036" r="0.5" /><circle cx="0.5" cy="19.5" fill="purple" fill-opacity="0.7897371714643304" r="0.5" /><circle cx="1.5" cy="19.5" fill="purple" fill-opacity="0.7934918648310388" r="0.5" /><circle cx="2.5" cy="19.5" fill="purple" fill-opacity="0.8235294117647058" r="0.5" /><circle cx="3.5" cy="19.5" fill="purple" fill-opacity="0.7521902377972466" r="0.5" /><circle cx="4.5" cy="19.5" fill="purple" fill-opacity="0.7972465581977471" r="0.5" /><circle cx="5.5" cy="19.5" fill="purple" fill-opacity="0.7972465581977471" r="0.5" /><circle cx="6.5" cy="19.5" fill="purple" fill-opacity="0.8410513141426783" r="0.5" /><circle cx="7.5" cy="19.5" fill="purple" fill-opacity="0.7947434292866082" r="0.5" /><circle cx="8.5" cy="19.5" fill="purple" fill-opacity="0.7834793491864831" r="0.5" /><circle cx="9.5" cy="19.5" fill="purple" fill-opacity="0.7221526908635795" r="0.5" /><circle cx="10.5" cy="19.5" fill="purple" fill-opacity="0.7434292866082604" r="0.5" /><circle cx="11.5" cy="19.5" fill="purple" fill-opacity="0.737171464330413" r="0.5" /><circle cx="12.5" cy="19.5" fill="purple" fill-opacity="0.7421777221526908" r="0.5" /><circle cx="13.5" cy="19.5" fill="purple" fill-opacity="0.7246558197747184" r="0.5" /><circle cx="14.5" cy="19.5" fill="purple" fill-opacity="0.7108886107634543" r="0.5" /><circle cx="15.5" cy="19.5" fill="purple" fill-opacity="0.7058823529411765" r="0.5" /><circle cx="16.5" cy="19.5" fill="purple" fill-opacity="0.7171464330413017" r="0.5" /><circle cx="17.5" cy="19.5" fill="purple" fill-opacity="0.718397997496871" r="0.5" /><circle cx="18.5" cy="19.5" fill="purple" fill-opacity="0.6770963704630788" r="0.5" /><circle cx="19.5" cy="19.5" fill="purple" fill-opacity="0.6570713391739674" r="0.5" /></svg>