<?xml version="1.0" encoding="utf-8" ?>
<svg baseProfile="full" height="10" version="1.1" viewBox="0,0,10,10" width="10" xmlns="http://www.w3.org/2000/svg" xmlns:ev="http://www.w3.org/2001/xml-events" xmlns:xlink="http://www.w3.org/1999/xlink"><defs /><circle cx="0.5" cy="0.5" fill="purple" fill-opacity="0.6987333105100992" r="0.5" /><circle cx="1.5" cy="0.5" fill="purple" fill-opacity="0.7134542964738103" r="0.5" /><circle cx="2.5" cy="0.5" fill="purple" fill-opacity="0.6980486134885313" r="0.5" /><circle cx="3.5" cy="0.5" fill="purple" fill-opacity="0.6942827798699076" r="0.5" /><circle cx="4.5" cy="0.5" fill="purple" fill-opacity="0.6912016432728517" r="0.5" /><circle cx="5.5" cy="0.5" fill="purple" fill-opacity="0.6795617939061965" r="0.5" /><circle cx="6.5" cy="0.5" fill="purple" fill-opacity="0.6542280041081822" r="0.5" /><circle cx="7.5" cy="0.5" fill="purple" fill-opacity="0.6330023964395755" r="0.5" /><circle cx="8.5" cy="0.5" fill="purple" fill-opacity="0.6388223211229032" r="0.5" /><circle cx="9.5" cy="0.5" fill="purple" fill-opacity="0.6148579253680246" r="0.5" /><circle cx="0.5" cy="1.5" fill="purple" fill-opacity="0.6484080794248545" r="0.5" /><circle cx="1.5" cy="1.5" fill="purple" fill-opacity="0.6436152002738789" r="0.5" /><circle cx="2.5" cy="1.5" fill="purple" fill-opacity="0.6477233824032865" r="0.5" /><circle cx="3.5" cy="1.5" fill="purple" fill-opacity="0.6258130777131119" r="0.5" /><circle cx="4.5" cy="1.5" fill="purple" fill-opacity="0.6439575487846628" r="0.5" /><circle cx="5.5" cy="1.5" fill="purple" fill-opacity="0.6494351249572065" r="0.5" /><circle cx="6.5" cy="1.5" fill="purple" fill-opacity="0.6336870934611435" r="0.5" /><circle cx="7.5" cy="1.5" fill="purple" fill-opacity="0.6237589866484081" r="0.5" /><circle cx="8.5" cy="1.5" fill="purple" fill-opacity="0.6275248202670318" r="0.5" /><circle cx="9.5" cy="1.5" fill="purple" fill-opacity="0.5960287572749059" r="0.5" /><circle cx="0.5" cy="2.5" fill="purple" fill-opacity="0.6419034577199589" r="0.5" /><circle cx="1.5" cy="2.5" fill="purple" fill-opacity="0.6131461828141047" r="0.5" /><circle cx="2.5" cy="2.5" fill="purple" fill-opacity="0.6343717904827114" r="0.5" /><circle cx="3.5" cy="2.5" fill="purple" fill-opacity="0.6076686066415611" r="0.5" /><circle cx="4.5" cy="2.5" fill="purple" fill-opacity="0.6514892160219103" r="0.5" /><circle cx="5.5" cy="2.5" fill="purple" fill-opacity="0.641561109209175" r="0.5" /><circle cx="6.5" cy="2.5" fill="purple" fill-opacity="0.6545703526189661" r="0.5" /><circle cx="7.5" cy="2.5" fill="purple" fill-opacity="0.6682642930503252" r="0.5" /><circle cx="8.5" cy="2.5" fill="purple" fill-opacity="0.671687778158165" r="0.5" /><circle cx="9.5" cy="2.5" fill="purple" fill-opacity="0.6634714138993495" r="0.5" /><circle cx="0.5" cy="3.5" fill="purple" fill-opacity="0.703183841150291" r="0.5" /><circle cx="1.5" cy="3.5" fill="purple" fill-opacity="0.7045532351934269" r="0.5" /><circle cx="2.5" cy="3.5" fill="purple" fill-opacity="0.6912016432728517" r="0.5" /><circle cx="3.5" cy="3.5" fill="purple" fill-opacity="0.7151660390277302" r="0.5" /><circle cx="4.5" cy="3.5" fill="purple" fill-opacity="0.7134542964738103" r="0.5" /><circle cx="5.5" cy="3.5" fill="purple" fill-opacity="0.7220130092434098" r="0.5" /><circle cx="6.5" cy="3.5" fill="purple" fill-opacity="0.7278329339267374" r="0.5" /><circle cx="7.5" cy="3.5" fill="purple" fill-opacity="0.7363916466963368" r="0.5" /><circle cx="8.5" cy="3.5" fill="purple" fill-opacity="0.734337555631633" r="0.5" /><circle cx="9.5" cy="3.5" fill="purple" fill-opacity="0.750085587127696" r="0.5" /><circle cx="0.5" cy="4.5" fill="purple" fill-opacity="0.7778158165011982" r="0.5" /><circle cx="1.5" cy="4.5" fill="purple" fill-opacity="0.7949332420403972" r="0.5" /><circle cx="2.5" cy="4.5" fill="purple" fill-opacity="0.8274563505648751" r="0.5" /><circle cx="3.5" cy="4.5" fill="purple" fill-opacity="0.8408079424854502" r="0.5" /><circle cx="4.5" cy="4.5" fill="purple" fill-opacity="0.8154741526874358" r="0.5" /><circle cx="5.5" cy="4.5" fill="purple" fill-opacity="0.828825744608011" r="0.5" /><circle cx="6.5" cy="4.5" fill="purple" fill-opacity="0.8880520369736392" r="0.5" /><circle cx="7.5" cy="4.5" fill="purple" fill-opacity="0.875727490585416" r="0.5" /><circle cx="8.5" cy="4.5" fill="purple" fill-opacity="0.8699075659020883" r="0.5" /><circle cx="9.5" cy="4.5" fill="purple" fill-opacity="0.8966107497432386" r="0.5" /><circle cx="0.5" cy="5.5" fill="purple" fill-opacity="0.8948990071893187" r="0.5" /><circle cx="1.5" cy="5.5" fill="purple" fill-opacity="0.8962684012324547" r="0.5" /><circle cx="2.5" cy="5.5" fill="purple" fill-opacity="0.9328996918863403" r="0.5" /><circle cx="3.5" cy="5.5" fill="purple" fill-opacity="0.9116740842177337" r="0.5" /><circle cx="4.5" cy="5.5" fill="purple" fill-opacity="0.8846285518657994" r="0.5" /><circle cx="5.5" cy="5.5" fill="purple" fill-opacity="0.9551523450872988" r="0.5" /><circle cx="6.5" cy="5.5" fill="purple" fill-opacity="0.9572064361520027" r="0.5" /><circle cx="7.5" cy="5.5" fill="purple" fill-opacity="0.9575487846627867" r="0.5" /><circle cx="8.5" cy="5.5" fill="purple" fill-opacity="0.9808284833960972" r="0.5" /><circle cx="9.5" cy="5.5" fill="purple" fill-opacity="0.969530982540226" r="0.5" /><circle cx="0.5" cy="6.5" fill="purple" fill-opacity="0.968846285518658" r="0.5" /><circle cx="1.5" cy="6.5" fill="purple" fill-opacity="0.9739815131804177" r="0.5" /><circle cx="2.5" cy="6.5" fill="purple" fill-opacity="0.9767203012666895" r="0.5" /><circle cx="3.5" cy="6.5" fill="purple" fill-opacity="0.9698733310510099" r="0.5" /><circle cx="4.5" cy="6.5" fill="purple" fill-opacity="0.9578911331735707" r="0.5" /><circle cx="5.5" cy="6.5" fill="purple" fill-opacity="0.9839096199931531" r="0.5" /><circle cx="6.5" cy="6.5" fill="purple" fill-opacity="0.9702156795617939" r="0.5" /><circle cx="7.5" cy="6.5" fill="purple" fill-opacity="0.9818555289284492" r="0.5" /><circle cx="8.5" cy="6.5" fill="purple" fill-opacity="1.0" r="0.5" /><circle cx="9.5" cy="6.5" fill="purple" fill-opacity="0.999657651489216" r="0.5" /><circle cx="0.5" cy="7.5" fill="purple" fill-opacity="0.9873331051009928" r="0.5" /><circle cx="1.5" cy="7.5" fill="purple" fill-opacity="0.9777473467990414" r="0.5" /><circle cx="2.5" cy="7.5" fill="purple" fill-opacity="0.9801437863745293" r="0.5" /><circle cx="3.5" cy="7.5" fill="purple" fill-opacity="0.9572064361520027" r="0.5" /><circle cx="4.5" cy="7.5" fill="purple" fill-opacity="0.9657651489216021" r="0.5" /><circle cx="5.5" cy="7.5" fill="purple" fill-opacity="0.9729544676480657" r="0.5" /><circle cx="6.5" cy="7.5" fill="purple" fill-opacity="0.9548099965765149" r="0.5" /><circle cx="7.5" cy="7.5" fill="purple" fill-opacity="0.9277644642245806" r="0.5" /><circle cx="8.5" cy="7.5" fill="purple" fill-opacity="0.9554946935980828" r="0.5" /><circle cx="9.5" cy="7.5" fill="purple" fill-opacity="0.9445395412529956" r="0.5" /><circle cx="0.5" cy="8.5" fill="purple" fill-opacity="0.9137281752824375" r="0.5" /><circle cx="1.5" cy="8.5" fill="purple" fill-opacity="0.9243409791167408" r="0.5" /><circle cx="2.5" cy="8.5" fill="purple" fill-opacity="0.9335843889079083" r="0.5" /><circle cx="3.5" cy="8.5" fill="purple" fill-opacity="0.8925025676138308" r="0.5" /><circle cx="4.5" cy="8.5" fill="purple" fill-opacity="0.9188634029441972" r="0.5" /><circle cx="5.5" cy="8.5" fill="purple" fill-opacity="0.8918178705922629" r="0.5" /><circle cx="6.5" cy="8.5" fill="purple" fill-opacity="0.906881205066758" r="0.5" /><circle cx="7.5" cy="8.5" fill="purple" fill-opacity="0.8866826429305033" r="0.5" /><circle cx="8.5" cy="8.5" fill="purple" fill-opacity="0.8688805203697364" r="0.5" /><circle cx="9.5" cy="8.5" fill="purple" fill-opacity="0.8493666552550496" r="0.5" /><circle cx="0.5" cy="9.5" fill="purple" fill-opacity="0.8257446080109552" r="0.5" /><circle cx="1.5" cy="9.5" fill="purple" fill-opacity="0.8459431701472099" r="0.5" /><circle cx="2.5" cy="9.5" fill="purple" fill-opacity="0.8171858952413557" r="0.5" /><circle cx="3.5" cy="9.5" fill="purple" fill-opacity="0.7945908935296131" r="0.5" /><circle cx="4.5" cy="9.5" fill="purple" fill-opacity="0.8147894556658678" r="0.5" /><circle cx="5.5" cy="9.5" fill="purple" fill-opacity="0.7897980143786375" r="0.5" /><circle cx="6.5" cy="9.5" fill="purple" fill-opacity="0.7576172543649435" r="0.5" /><circle cx="7.5" cy="9.5" fill="purple" fill-opacity="0.7524820267031839" r="0.5" /><circle cx="8.5" cy="9.5" fill="purple" fill-opacity="0.7723382403286546" r="0.5" /><circle cx="9.5" cy="9.5" fill="purple" fill-opacity="0.7326258130777131" r="0.5" /></svg>