<?xml version="1.0" encoding="utf-8" ?>
<svg baseProfile="full" height="10" version="1.1" viewBox="0,0,10,10" width="10" xmlns="http://www.w3.org/2000/svg" xmlns:ev="http://www.w3.org/2001/xml-events" xmlns:xlink="http://www.w3.org/1999/xlink"><defs /><circle cx="0.5" cy="0.5" fill="purple" fill-opacity="0.9596774193548387" r="0.5" /><circle cx="1.5" cy="0.5" fill="purple" fill-opacity="0.9604838709677419" r="0.5" /><circle cx="2.5" cy="0.5" fill="purple" fill-opacity="0.9540322580645161" r="0.5" /><circle cx="3.5" cy="0.5" fill="purple" fill-opacity="0.9568548387096775" r="0.5" /><circle cx="4.5" cy="0.5" fill="purple" fill-opacity="0.9584677419354839" r="0.5" /><circle cx="5.5" cy="0.5" fill="purple" fill-opacity="0.9822580645161291" r="0.5" /><circle cx="6.5" cy="0.5" fill="purple" fill-opacity="1.0" r="0.5" /><circle cx="7.5" cy="0.5" fill="purple" fill-opacity="0.9229838709677419" r="0.5" /><circle cx="8.5" cy="0.5" fill="purple" fill-opacity="0.9637096774193549" r="0.5" /><circle cx="9.5" cy="0.5" fill="purple" fill-opacity="0.910483870967742" r="0.5" /><circle cx="0.5" cy="1.5" fill="purple" fill-opacity="0.9552419354838709" r="0.5" /><circle cx="1.5" cy="1.5" fill="purple" fill-opacity="0.9818548387096774" r="0.5" /><circle cx="2.5" cy="1.5" fill="purple" fill-opacity="0.9681451612903226" r="0.5" /><circle cx="3.5" cy="1.5" fill="purple" fill-opacity="0.9201612903225806" r="0.5" /><circle cx="4.5" cy="1.5" fill="purple" fill-opacity="0.9588709677419355" r="0.5" /><circle cx="5.5" cy="1.5" fill="purple" fill-opacity="0.9370967741935484" r="0.5" /><circle cx="6.5" cy="1.5" fill="purple" fill-opacity="0.9673387096774193" r="0.5" /><circle cx="7.5" cy="1.5" fill="purple" fill-opacity="0.9258064516129032" r="0.5" /><circle cx="8.5" cy="1.5" fill="purple" fill-opacity="0.9693548387096774" r="0.5" /><circle cx="9.5" cy="1.5" fill="purple" fill-opacity="0.9435483870967742" r="0.5" /><circle cx="0.5" cy="2.5" fill="purple" fill-opacity="0.9221774193548387" r="0.5" /><circle cx="1.5" cy="2.5" fill="purple" fill-opacity="0.9830645161290322" r="0.5" /><circle cx="2.5" cy="2.5" fill="purple" fill-opacity="0.9870967741935484" r="0.5" /><circle cx="3.5" cy="2.5" fill="purple" fill-opacity="0.9229838709677419" r="0.5" /><circle cx="4.5" cy="2.5" fill="purple" fill-opacity="0.942741935483871" r="0.5" /><circle cx="5.5" cy="2.5" fill="purple" fill-opacity="0.9459677419354838" r="0.5" /><circle cx="6.5" cy="2.5" fill="purple" fill-opacity="0.9443548387096774" r="0.5" /><circle cx="7.5" cy="2.5" fill="purple" fill-opacity="0.9399193548387097" r="0.5" /><circle cx="8.5" cy="2.5" fill="purple" fill-opacity="0.975" r="0.5" /><circle cx="9.5" cy="2.5" fill="purple" fill-opacity="0.9854838709677419" r="0.5" /><circle cx="0.5" cy="3.5" fill="purple" fill-opacity="0.9568548387096775" r="0.5" /><circle cx="1.5" cy="3.5" fill="purple" fill-opacity="0.9673387096774193" r="0.5" /><circle cx="2.5" cy="3.5" fill="purple" fill-opacity="0.9370967741935484" r="0.5" /><circle cx="3.5" cy="3.5" fill="purple" fill-opacity="0.9346774193548387" r="0.5" /><circle cx="4.5" cy="3.5" fill="purple" fill-opacity="0.9721774193548387" r="0.5" /><circle cx="5.5" cy="3.5" fill="purple" fill-opacity="0.9379032258064516" r="0.5" /><circle cx="6.5" cy="3.5" fill="purple" fill-opacity="0.969758064516129" r="0.5" /><circle cx="7.5" cy="3.5" fill="purple" fill-opacity="0.9536290322580645" r="0.5" /><circle cx="8.5" cy="3.5" fill="purple" fill-opacity="0.980241935483871" r="0.5" /><circle cx="9.5" cy="3.5" fill="purple" fill-opacity="0.9669354838709677" r="0.5" /><circle cx="0.5" cy="4.5" fill="purple" fill-opacity="0.9516129032258065" r="0.5" /><circle cx="1.5" cy="4.5" fill="purple" fill-opacity="0.9641129032258065" r="0.5" /><circle cx="2.5" cy="4.5" fill="purple" fill-opacity="0.9568548387096775" r="0.5" /><circle cx="3.5" cy="4.5" fill="purple" fill-opacity="0.932258064516129" r="0.5" /><circle cx="4.5" cy="4.5" fill="purple" fill-opacity="0.944758064516129" r="0.5" /><circle cx="5.5" cy="4.5" fill="purple" fill-opacity="0.957258064516129" r="0.5" /><circle cx="6.5" cy="4.5" fill="purple" fill-opacity="0.9508064516129032" r="0.5" /><circle cx="7.5" cy="4.5" fill="purple" fill-opacity="0.9370967741935484" r="0.5" /><circle cx="8.5" cy="4.5" fill="purple" fill-opacity="0.9564516129032258" r="0.5" /><circle cx="9.5" cy="4.5" fill="purple" fill-opacity="0.9762096774193548" r="0.5" /><circle cx="0.5" cy="5.5" fill="purple" fill-opacity="0.9213709677419355" r="0.5" /><circle cx="1.5" cy="5.5" fill="purple" fill-opacity="0.9306451612903226" r="0.5" /><circle cx="2.5" cy="5.5" fill="purple" fill-opacity="0.9681451612903226" r="0.5" /><circle cx="3.5" cy="5.5" fill="purple" fill-opacity="0.9858870967741935" r="0.5" /><circle cx="4.5" cy="5.5" fill="purple" fill-opacity="0.9370967741935484" r="0.5" /><circle cx="5.5" cy="5.5" fill="purple" fill-opacity="0.9504032258064516" r="0.5" /><circle cx="6.5" cy="5.5" fill="purple" fill-opacity="0.9258064516129032" r="0.5" /><circle cx="7.5" cy="5.5" fill="purple" fill-opacity="0.9826612903225806" r="0.5" /><circle cx="8.5" cy="5.5" fill="purple" fill-opacity="0.9290322580645162" r="0.5" /><circle cx="9.5" cy="5.5" fill="purple" fill-opacity="0.917741935483871" r="0.5" /><circle cx="0.5" cy="6.5" fill="purple" fill-opacity="0.9403225806451613" r="0.5" /><circle cx="1.5" cy="6.5" fill="purple" fill-opacity="0.9612903225806452" r="0.5" /><circle cx="2.5" cy="6.5" fill="purple" fill-opacity="0.9282258064516129" r="0.5" /><circle cx="3.5" cy="6.5" fill="purple" fill-opacity="0.9108870967741935" r="0.5" /><circle cx="4.5" cy="6.5" fill="purple" fill-opacity="0.9580645161290322" r="0.5" /><circle cx="5.5" cy="6.5" fill="purple" fill-opacity="0.9665322580645161" r="0.5" /><circle cx="6.5" cy="6.5" fill="purple" fill-opacity="0.9314516129032258" r="0.5" /><circle cx="7.5" cy="6.5" fill="purple" fill-opacity="0.9818548387096774" r="0.5" /><circle cx="8.5" cy="6.5" fill="purple" fill-opacity="0.915725806451613" r="0.5" /><circle cx="9.5" cy="6.5" fill="purple" fill-opacity="0.9254032258064516" r="0.5" /><circle cx="0.5" cy="7.5" fill="purple" fill-opacity="0.9870967741935484" r="0.5" /><circle cx="1.5" cy="7.5" fill="purple" fill-opacity="0.905241935483871" r="0.5" /><circle cx="2.5" cy="7.5" fill="purple" fill-opacity="0.964516129032258" r="0.5" /><circle cx="3.5" cy="7.5" fill="purple" fill-opacity="0.9673387096774193" r="0.5" /><circle cx="4.5" cy="7.5" fill="purple" fill-opacity="0.9415322580645161" r="0.5" /><circle cx="5.5" cy="7.5" fill="purple" fill-opacity="0.9564516129032258" r="0.5" /><circle cx="6.5" cy="7.5" fill="purple" fill-opacity="0.9524193548387097" r="0.5" /><circle cx="7.5" cy="7.5" fill="purple" fill-opacity="0.9435483870967742" r="0.5" /><circle cx="8.5" cy="7.5" fill="purple" fill-opacity="0.9512096774193548" r="0.5" /><circle cx="9.5" cy="7.5" fill="purple" fill-opacity="0.917741935483871" r="0.5" /><circle cx="0.5" cy="8.5" fill="purple" fill-opacity="0.9483870967741935" r="0.5" /><circle cx="1.5" cy="8.5" fill="purple" fill-opacity="0.9217741935483871" r="0.5" /><circle cx="2.5" cy="8.5" fill="purple" fill-opacity="0.9346774193548387" r="0.5" /><circle cx="3.5" cy="8.5" fill="purple" fill-opacity="0.9633064516129032" r="0.5" /><circle cx="4.5" cy="8.5" fill="purple" fill-opacity="0.9415322580645161" r="0.5" /><circle cx="5.5" cy="8.5" fill="purple" fill-opacity="0.959274193548387" r="0.5" /><circle cx="6.5" cy="8.5" fill="purple" fill-opacity="0.969758064516129" r="0.5" /><circle cx="7.5" cy="8.5" fill="purple" fill-opacity="0.9540322580645161" r="0.5" /><circle cx="8.5" cy="8.5" fill="purple" fill-opacity="0.9858870967741935" r="0.5" /><circle cx="9.5" cy="8.5" fill="purple" fill-opacity="0.9504032258064516" r="0.5" /><circle cx="0.5" cy="9.5" fill="purple" fill-opacity="0.9556451612903226" r="0.5" /><circle cx="1.5" cy="9.5" fill="purple" fill-opacity="0.9532258064516129" r="0.5" /><circle cx="2.5" cy="9.5" fill="purple" fill-opacity="0.9907258064516129" r="0.5" /><circle cx="3.5" cy="9.5" fill="purple" fill-opacity="0.942741935483871" r="0.5" /><circle cx="4.5" cy="9.5" fill="purple" fill-opacity="0.9383064516129033" r="0.5" /><circle cx="5.5" cy="9.5" fill="purple" fill-opacity="0.969758064516129" r="0.5" /><circle cx="6.5" cy="9.5" fill="purple" fill-opacity="0.9383064516129033" r="0.5" /><circle cx="7.5" cy="9.5" fill="purple" fill-opacity="0.9366935483870967" r="0.5" /><circle cx="8.5" cy="9.5" fill="purple" fill-opacity="0.9395161290322581" r="0.5" /><circle cx="9.5" cy="9.5" fill="purple" fill-opacity="0.9528225806451613" r="0.5" /></svg>