<?xml version="1.0" encoding="utf-8" ?>
<svg baseProfile="full" height="10" version="1.1" viewBox="0,0,10,10" width="10" xmlns="http://www.w3.org/2000/svg" xmlns:ev="http://www.w3.org/2001/xml-events" xmlns:xlink="http://www.w3.org/1999/xlink"><defs /><circle cx="0.5" cy="0.5" fill="purple" fill-opacity="0.96045197740113" r="0.5" /><circle cx="1.5" cy="0.5" fill="purple" fill-opacity="0.9612590799031477" r="0.5" /><circle cx="2.5" cy="0.5" fill="purple" fill-opacity="0.9548022598870056" r="0.5" /><circle cx="3.5" cy="0.5" fill="purple" fill-opacity="0.95682001614205" r="0.5" /><circle cx="4.5" cy="0.5" fill="purple" fill-opacity="0.9592413236481033" r="0.5" /><circle cx="5.5" cy="0.5" fill="purple" fill-opacity="0.9830508474576272" r="0.5" /><circle cx="6.5" cy="0.5" fill="purple" fill-opacity="1.0" r="0.5" /><circle cx="7.5" cy="0.5" fill="purple" fill-opacity="0.9233252623083131" r="0.5" /><circle cx="8.5" cy="0.5" fill="purple" fill-opacity="0.9636803874092009" r="0.5" /><circle cx="9.5" cy="0.5" fill="purple" fill-opacity="0.910411622276029" r="0.5" /><circle cx="0.5" cy="1.5" fill="purple" fill-opacity="0.9556093623890234" r="0.5" /><circle cx="1.5" cy="1.5" fill="purple" fill-opacity="0.9826472962066183" r="0.5" /><circle cx="2.5" cy="1.5" fill="purple" fill-opacity="0.9689265536723164" r="0.5" /><circle cx="3.5" cy="1.5" fill="purple" fill-opacity="0.920500403551251" r="0.5" /><circle cx="4.5" cy="1.5" fill="purple" fill-opacity="0.9592413236481033" r="0.5" /><circle cx="5.5" cy="1.5" fill="purple" fill-opacity="0.9374495560936239" r="0.5" /><circle cx="6.5" cy="1.5" fill="purple" fill-opacity="0.9677158999192897" r="0.5" /><circle cx="7.5" cy="1.5" fill="purple" fill-opacity="0.9257465698143664" r="0.5" /><circle cx="8.5" cy="1.5" fill="purple" fill-opacity="0.970137207425343" r="0.5" /><circle cx="9.5" cy="1.5" fill="purple" fill-opacity="0.9439063761097659" r="0.5" /><circle cx="0.5" cy="2.5" fill="purple" fill-opacity="0.9225181598062954" r="0.5" /><circle cx="1.5" cy="2.5" fill="purple" fill-opacity="0.983454398708636" r="0.5" /><circle cx="2.5" cy="2.5" fill="purple" fill-opacity="0.9878934624697336" r="0.5" /><circle cx="3.5" cy="2.5" fill="purple" fill-opacity="0.9233252623083131" r="0.5" /><circle cx="4.5" cy="2.5" fill="purple" fill-opacity="0.943502824858757" r="0.5" /><circle cx="5.5" cy="2.5" fill="purple" fill-opacity="0.9455205811138014" r="0.5" /><circle cx="6.5" cy="2.5" fill="purple" fill-opacity="0.9447134786117837" r="0.5" /><circle cx="7.5" cy="2.5" fill="purple" fill-opacity="0.940677966101695" r="0.5" /><circle cx="8.5" cy="2.5" fill="purple" fill-opacity="0.9757869249394673" r="0.5" /><circle cx="9.5" cy="2.5" fill="purple" fill-opacity="0.9858757062146892" r="0.5" /><circle cx="0.5" cy="3.5" fill="purple" fill-opacity="0.9576271186440678" r="0.5" /><circle cx="1.5" cy="3.5" fill="purple" fill-opacity="0.966908797417272" r="0.5" /><circle cx="2.5" cy="3.5" fill="purple" fill-opacity="0.9378531073446328" r="0.5" /><circle cx="3.5" cy="3.5" fill="purple" fill-opacity="0.9354317998385795" r="0.5" /><circle cx="4.5" cy="3.5" fill="purple" fill-opacity="0.9717514124293786" r="0.5" /><circle cx="5.5" cy="3.5" fill="purple" fill-opacity="0.9382566585956417" r="0.5" /><circle cx="6.5" cy="3.5" fill="purple" fill-opacity="0.9705407586763519" r="0.5" /><circle cx="7.5" cy="3.5" fill="purple" fill-opacity="0.9539951573849879" r="0.5" /><circle cx="8.5" cy="3.5" fill="purple" fill-opacity="0.9810330912025828" r="0.5" /><circle cx="9.5" cy="3.5" fill="purple" fill-opacity="0.9677158999192897" r="0.5" /><circle cx="0.5" cy="4.5" fill="purple" fill-opacity="0.9507667473769169" r="0.5" /><circle cx="1.5" cy="4.5" fill="purple" fill-opacity="0.9648910411622276" r="0.5" /><circle cx="2.5" cy="4.5" fill="purple" fill-opacity="0.9572235673930589" r="0.5" /><circle cx="3.5" cy="4.5" fill="purple" fill-opacity="0.9326069410815173" r="0.5" /><circle cx="4.5" cy="4.5" fill="purple" fill-opacity="0.9447134786117837" r="0.5" /><circle cx="5.5" cy="4.5" fill="purple" fill-opacity="0.9572235673930589" r="0.5" /><circle cx="6.5" cy="4.5" fill="purple" fill-opacity="0.9507667473769169" r="0.5" /><circle cx="7.5" cy="4.5" fill="purple" fill-opacity="0.9378531073446328" r="0.5" /><circle cx="8.5" cy="4.5" fill="purple" fill-opacity="0.9572235673930589" r="0.5" /><circle cx="9.5" cy="4.5" fill="purple" fill-opacity="0.9769975786924939" r="0.5" /><circle cx="0.5" cy="5.5" fill="purple" fill-opacity="0.9213075060532687" r="0.5" /><circle cx="1.5" cy="5.5" fill="purple" fill-opacity="0.9309927360774818" r="0.5" /><circle cx="2.5" cy="5.5" fill="purple" fill-opacity="0.9689265536723164" r="0.5" /><circle cx="3.5" cy="5.5" fill="purple" fill-opacity="0.986682808716707" r="0.5" /><circle cx="4.5" cy="5.5" fill="purple" fill-opacity="0.9378531073446328" r="0.5" /><circle cx="5.5" cy="5.5" fill="purple" fill-opacity="0.9511702986279258" r="0.5" /><circle cx="6.5" cy="5.5" fill="purple" fill-opacity="0.9261501210653753" r="0.5" /><circle cx="7.5" cy="5.5" fill="purple" fill-opacity="0.9830508474576272" r="0.5" /><circle cx="8.5" cy="5.5" fill="purple" fill-opacity="0.9297820823244553" r="0.5" /><circle cx="9.5" cy="5.5" fill="purple" fill-opacity="0.9180790960451978" r="0.5" /><circle cx="0.5" cy="6.5" fill="purple" fill-opacity="0.9410815173527038" r="0.5" /><circle cx="1.5" cy="6.5" fill="purple" fill-opacity="0.9620661824051655" r="0.5" /><circle cx="2.5" cy="6.5" fill="purple" fill-opacity="0.9285714285714286" r="0.5" /><circle cx="3.5" cy="6.5" fill="purple" fill-opacity="0.9108151735270379" r="0.5" /><circle cx="4.5" cy="6.5" fill="purple" fill-opacity="0.9584342211460856" r="0.5" /><circle cx="5.5" cy="6.5" fill="purple" fill-opacity="0.966908797417272" r="0.5" /><circle cx="6.5" cy="6.5" fill="purple" fill-opacity="0.9322033898305084" r="0.5" /><circle cx="7.5" cy="6.5" fill="purple" fill-opacity="0.9818401937046005" r="0.5" /><circle cx="8.5" cy="6.5" fill="purple" fill-opacity="0.9164648910411622" r="0.5" /><circle cx="9.5" cy="6.5" fill="purple" fill-opacity="0.9257465698143664" r="0.5" /><circle cx="0.5" cy="7.5" fill="purple" fill-opacity="0.9874899112187248" r="0.5" /><circle cx="1.5" cy="7.5" fill="purple" fill-opacity="0.9059725585149314" r="0.5" /><circle cx="2.5" cy="7.5" fill="purple" fill-opacity="0.9648910411622276" r="0.5" /><circle cx="3.5" cy="7.5" fill="purple" fill-opacity="0.9681194511702986" r="0.5" /><circle cx="4.5" cy="7.5" fill="purple" fill-opacity="0.9422921711057304" r="0.5" /><circle cx="5.5" cy="7.5" fill="purple" fill-opacity="0.9560129136400323" r="0.5" /><circle cx="6.5" cy="7.5" fill="purple" fill-opacity="0.9527845036319612" r="0.5" /><circle cx="7.5" cy="7.5" fill="purple" fill-opacity="0.943502824858757" r="0.5" /><circle cx="8.5" cy="7.5" fill="purple" fill-opacity="0.9511702986279258" r="0.5" /><circle cx="9.5" cy="7.5" fill="purple" fill-opacity="0.9180790960451978" r="0.5" /><circle cx="0.5" cy="8.5" fill="purple" fill-opacity="0.9487489911218725" r="0.5" /><circle cx="1.5" cy="8.5" fill="purple" fill-opacity="0.9221146085552865" r="0.5" /><circle cx="2.5" cy="8.5" fill="purple" fill-opacity="0.9350282485875706" r="0.5" /><circle cx="3.5" cy="8.5" fill="purple" fill-opacity="0.9640839386602098" r="0.5" /><circle cx="4.5" cy="8.5" fill="purple" fill-opacity="0.9422921711057304" r="0.5" /><circle cx="5.5" cy="8.5" fill="purple" fill-opacity="0.9596448748991122" r="0.5" /><circle cx="6.5" cy="8.5" fill="purple" fill-opacity="0.970137207425343" r="0.5" /><circle cx="7.5" cy="8.5" fill="purple" fill-opacity="0.9543987086359967" r="0.5" /><circle cx="8.5" cy="8.5" fill="purple" fill-opacity="0.986682808716707" r="0.5" /><circle cx="9.5" cy="8.5" fill="purple" fill-opacity="0.950363196125908" r="0.5" /><circle cx="0.5" cy="9.5" fill="purple" fill-opacity="0.9560129136400323" r="0.5" /><circle cx="1.5" cy="9.5" fill="purple" fill-opacity="0.953591606133979" r="0.5" /><circle cx="2.5" cy="9.5" fill="purple" fill-opacity="0.9903147699757869" r="0.5" /><circle cx="3.5" cy="9.5" fill="purple" fill-opacity="0.9430992736077481" r="0.5" /><circle cx="4.5" cy="9.5" fill="purple" fill-opacity="0.9386602098466506" r="0.5" /><circle cx="5.5" cy="9.5" fill="purple" fill-opacity="0.9705407586763519" r="0.5" /><circle cx="6.5" cy="9.5" fill="purple" fill-opacity="0.9390637610976594" r="0.5" /><circle cx="7.5" cy="9.5" fill="purple" fill-opacity="0.937046004842615" r="0.5" /><circle cx="8.5" cy="9.5" fill="purple" fill-opacity="0.9394673123486683" r="0.5" /><circle cx="9.5" cy="9.5" fill="purple" fill-opacity="0.9527845036319612" r="0.5" /></svg>