<?xml version="1.0" encoding="utf-8" ?>
<svg baseProfile="full" height="20" version="1.1" viewBox="0,0,20,20" width="20" xmlns="http://www.w3.org/2000/svg" xmlns:ev="http://www.w3.org/2001/xml-events" xmlns:xlink="http://www.w3.org/1999/xlink"><defs /><circle cx="0.5" cy="0.5" fill="purple" fill-opacity="0.9516616314199395" r="0.5" /><circle cx="1.5" cy="0.5" fill="purple" fill-opacity="0.8867069486404834" r="0.5" /><circle cx="2.5" cy="0.5" fill="purple" fill-opacity="0.879154078549849" r="0.5" /><circle cx="3.5" cy="0.5" fill="purple" fill-opacity="0.8670694864048338" r="0.5" /><circle cx="4.5" cy="0.5" fill="purple" fill-opacity="0.8716012084592145" r="0.5" /><circle cx="5.5" cy="0.5" fill="purple" fill-opacity="0.9441087613293051" r="0.5" /><circle cx="6.5" cy="0.5" fill="purple" fill-opacity="0.9652567975830816" r="0.5" /><circle cx="7.5" cy="0.5" fill="purple" fill-opacity="0.8444108761329305" r="0.5" /><circle cx="8.5" cy="0.5" fill="purple" fill-opacity="0.8685800604229608" r="0.5" /><circle cx="9.5" cy="0.5" fill="purple" fill-opacity="0.8700906344410876" r="0.5" /><circle cx="10.5" cy="0.5" fill="purple" fill-opacity="0.8429003021148036" r="0.5" /><circle cx="11.5" cy="0.5" fill="purple" fill-opacity="0.8912386706948641" r="0.5" /><circle cx="12.5" cy="0.5" fill="purple" fill-opacity="0.8987915407854985" r="0.5" /><circle cx="13.5" cy="0.5" fill="purple" fill-opacity="0.8700906344410876" r="0.5" /><circle cx="14.5" cy="0.5" fill="purple" fill-opacity="0.9138972809667674" r="0.5" /><circle cx="15.5" cy="0.5" fill="purple" fill-opacity="0.8987915407854985" r="0.5" /><circle cx="16.5" cy="0.5" fill="purple" fill-opacity="0.879154078549849" r="0.5" /><circle cx="17.5" cy="0.5" fill="purple" fill-opacity="0.879154078549849" r="0.5" /><circle cx="18.5" cy="0.5" fill="purple" fill-opacity="0.8867069486404834" r="0.5" /><circle cx="19.5" cy="0.5" fill="purple" fill-opacity="0.8549848942598187" r="0.5" /><circle cx="0.5" cy="1.5" fill="purple" fill-opacity="0.8595166163141994" r="0.5" /><circle cx="1.5" cy="1.5" fill="purple" fill-opacity="0.8625377643504532" r="0.5" /><circle cx="2.5" cy="1.5" fill="purple" fill-opacity="0.8972809667673716" r="0.5" /><circle cx="3.5" cy="1.5" fill="purple" fill-opacity="0.8429003021148036" r="0.5" /><circle cx="4.5" cy="1.5" fill="purple" fill-opacity="0.9199395770392749" r="0.5" /><circle cx="5.5" cy="1.5" fill="purple" fill-opacity="0.9169184290030211" r="0.5" /><circle cx="6.5" cy="1.5" fill="purple" fill-opacity="0.8549848942598187" r="0.5" /><circle cx="7.5" cy="1.5" fill="purple" fill-opacity="0.8972809667673716" r="0.5" /><circle cx="8.5" cy="1.5" fill="purple" fill-opacity="0.9637462235649547" r="0.5" /><circle cx="9.5" cy="1.5" fill="purple" fill-opacity="0.9531722054380665" r="0.5" /><circle cx="10.5" cy="1.5" fill="purple" fill-opacity="0.8700906344410876" r="0.5" /><circle cx="11.5" cy="1.5" fill="purple" fill-opacity="0.9350453172205438" r="0.5" /><circle cx="12.5" cy="1.5" fill="purple" fill-opacity="0.9138972809667674" r="0.5" /><circle cx="13.5" cy="1.5" fill="purple" fill-opacity="0.9380664652567976" r="0.5" /><circle cx="14.5" cy="1.5" fill="purple" fill-opacity="0.9138972809667674" r="0.5" /><circle cx="15.5" cy="1.5" fill="purple" fill-opacity="0.8806646525679759" r="0.5" /><circle cx="16.5" cy="1.5" fill="purple" fill-opacity="0.9531722054380665" r="0.5" /><circle cx="17.5" cy="1.5" fill="purple" fill-opacity="0.9712990936555891" r="0.5" /><circle cx="18.5" cy="1.5" fill="purple" fill-opacity="0.9305135951661632" r="0.5" /><circle cx="19.5" cy="1.5" fill="purple" fill-opacity="0.8867069486404834" r="0.5" /><circle cx="0.5" cy="2.5" fill="purple" fill-opacity="0.9078549848942599" r="0.5" /><circle cx="1.5" cy="2.5" fill="purple" fill-opacity="0.8534743202416919" r="0.5" /><circle cx="2.5" cy="2.5" fill="purple" fill-opacity="0.8670694864048338" r="0.5" /><circle cx="3.5" cy="2.5" fill="purple" fill-opacity="0.8821752265861027" r="0.5" /><circle cx="4.5" cy="2.5" fill="purple" fill-opacity="0.8489425981873112" r="0.5" /><circle cx="5.5" cy="2.5" fill="purple" fill-opacity="0.9229607250755287" r="0.5" /><circle cx="6.5" cy="2.5" fill="purple" fill-opacity="0.8534743202416919" r="0.5" /><circle cx="7.5" cy="2.5" fill="purple" fill-opacity="0.8549848942598187" r="0.5" /><circle cx="8.5" cy="2.5" fill="purple" fill-opacity="0.9652567975830816" r="0.5" /><circle cx="9.5" cy="2.5" fill="purple" fill-opacity="0.9214501510574018" r="0.5" /><circle cx="10.5" cy="2.5" fill="purple" fill-opacity="0.9244712990936556" r="0.5" /><circle cx="11.5" cy="2.5" fill="purple" fill-opacity="0.879154078549849" r="0.5" /><circle cx="12.5" cy="2.5" fill="purple" fill-opacity="0.8549848942598187" r="0.5" /><circle cx="13.5" cy="2.5" fill="purple" fill-opacity="0.9350453172205438" r="0.5" /><circle cx="14.5" cy="2.5" fill="purple" fill-opacity="0.9305135951661632" r="0.5" /><circle cx="15.5" cy="2.5" fill="purple" fill-opacity="0.8413897280966768" r="0.5" /><circle cx="16.5" cy="2.5" fill="purple" fill-opacity="0.904833836858006" r="0.5" /><circle cx="17.5" cy="2.5" fill="purple" fill-opacity="0.9486404833836858" r="0.5" /><circle cx="18.5" cy="2.5" fill="purple" fill-opacity="0.8957703927492447" r="0.5" /><circle cx="19.5" cy="2.5" fill="purple" fill-opacity="0.8277945619335347" r="0.5" /><circle cx="0.5" cy="3.5" fill="purple" fill-opacity="0.9169184290030211" r="0.5" /><circle cx="1.5" cy="3.5" fill="purple" fill-opacity="0.851963746223565" r="0.5" /><circle cx="2.5" cy="3.5" fill="purple" fill-opacity="0.9018126888217523" r="0.5" /><circle cx="3.5" cy="3.5" fill="purple" fill-opacity="0.8957703927492447" r="0.5" /><circle cx="4.5" cy="3.5" fill="purple" fill-opacity="0.918429003021148" r="0.5" /><circle cx="5.5" cy="3.5" fill="purple" fill-opacity="0.9305135951661632" r="0.5" /><circle cx="6.5" cy="3.5" fill="purple" fill-opacity="0.8987915407854985" r="0.5" /><circle cx="7.5" cy="3.5" fill="purple" fill-opacity="0.8987915407854985" r="0.5" /><circle cx="8.5" cy="3.5" fill="purple" fill-opacity="0.8851963746223565" r="0.5" /><circle cx="9.5" cy="3.5" fill="purple" fill-opacity="0.8836858006042296" r="0.5" /><circle cx="10.5" cy="3.5" fill="purple" fill-opacity="0.9486404833836858" r="0.5" /><circle cx="11.5" cy="3.5" fill="purple" fill-opacity="0.850453172205438" r="0.5" /><circle cx="12.5" cy="3.5" fill="purple" fill-opacity="0.9229607250755287" r="0.5" /><circle cx="13.5" cy="3.5" fill="purple" fill-opacity="0.8670694864048338" r="0.5" /><circle cx="14.5" cy="3.5" fill="purple" fill-opacity="0.8111782477341389" r="0.5" /><circle cx="15.5" cy="3.5" fill="purple" fill-opacity="0.9305135951661632" r="0.5" /><circle cx="16.5" cy="3.5" fill="purple" fill-opacity="0.9335347432024169" r="0.5" /><circle cx="17.5" cy="3.5" fill="purple" fill-opacity="0.8942598187311178" r="0.5" /><circle cx="18.5" cy="3.5" fill="purple" fill-opacity="0.8383685800604229" r="0.5" /><circle cx="19.5" cy="3.5" fill="purple" fill-opacity="0.8685800604229608" r="0.5" /><circle cx="0.5" cy="4.5" fill="purple" fill-opacity="0.9108761329305136" r="0.5" /><circle cx="1.5" cy="4.5" fill="purple" fill-opacity="0.850453172205438" r="0.5" /><circle cx="2.5" cy="4.5" fill="purple" fill-opacity="0.8761329305135952" r="0.5" /><circle cx="3.5" cy="4.5" fill="purple" fill-opacity="0.9305135951661632" r="0.5" /><circle cx="4.5" cy="4.5" fill="purple" fill-opacity="0.8821752265861027" r="0.5" /><circle cx="5.5" cy="4.5" fill="purple" fill-opacity="0.8942598187311178" r="0.5" /><circle cx="6.5" cy="4.5" fill="purple" fill-opacity="0.8912386706948641" r="0.5" /><circle cx="7.5" cy="4.5" fill="purple" fill-opacity="0.8987915407854985" r="0.5" /><circle cx="8.5" cy="4.5" fill="purple" fill-opacity="0.8912386706948641" r="0.5" /><circle cx="9.5" cy="4.5" fill="purple" fill-opacity="0.877643504531722" r="0.5" /><circle cx="10.5" cy="4.5" fill="purple" fill-opacity="0.8927492447129909" r="0.5" /><circle cx="11.5" cy="4.5" fill="purple" fill-opacity="0.8806646525679759" r="0.5" /><circle cx="12.5" cy="4.5" fill="purple" fill-opacity="0.8927492447129909" r="0.5" /><circle cx="13.5" cy="4.5" fill="purple" fill-opacity="0.8731117824773413" r="0.5" /><circle cx="14.5" cy="4.5" fill="purple" fill-opacity="0.9093655589123867" r="0.5" /><circle cx="15.5" cy="4.5" fill="purple" fill-opacity="0.9607250755287009" r="0.5" /><circle cx="16.5" cy="4.5" fill="purple" fill-opacity="0.8610271903323263" r="0.5" /><circle cx="17.5" cy="4.5" fill="purple" fill-opacity="0.8927492447129909" r="0.5" /><circle cx="18.5" cy="4.5" fill="purple" fill-opacity="0.8217522658610272" r="0.5" /><circle cx="19.5" cy="4.5" fill="purple" fill-opacity="0.9003021148036254" r="0.5" /><circle cx="0.5" cy="5.5" fill="purple" fill-opacity="0.9138972809667674" r="0.5" /><circle cx="1.5" cy="5.5" fill="purple" fill-opacity="0.8700906344410876" r="0.5" /><circle cx="2.5" cy="5.5" fill="purple" fill-opacity="0.850453172205438" r="0.5" /><circle cx="3.5" cy="5.5" fill="purple" fill-opacity="0.8806646525679759" r="0.5" /><circle cx="4.5" cy="5.5" fill="purple" fill-opacity="0.9259818731117825" r="0.5" /><circle cx="5.5" cy="5.5" fill="purple" fill-opacity="0.9123867069486404" r="0.5" /><circle cx="6.5" cy="5.5" fill="purple" fill-opacity="0.9003021148036254" r="0.5" /><circle cx="7.5" cy="5.5" fill="purple" fill-opacity="0.8957703927492447" r="0.5" /><circle cx="8.5" cy="5.5" fill="purple" fill-opacity="0.9531722054380665" r="0.5" /><circle cx="9.5" cy="5.5" fill="purple" fill-opacity="0.8368580060422961" r="0.5" /><circle cx="10.5" cy="5.5" fill="purple" fill-opacity="0.9018126888217523" r="0.5" /><circle cx="11.5" cy="5.5" fill="purple" fill-opacity="0.945619335347432" r="0.5" /><circle cx="12.5" cy="5.5" fill="purple" fill-opacity="0.8867069486404834" r="0.5" /><circle cx="13.5" cy="5.5" fill="purple" fill-opacity="0.8897280966767371" r="0.5" /><circle cx="14.5" cy="5.5" fill="purple" fill-opacity="0.8580060422960725" r="0.5" /><circle cx="15.5" cy="5.5" fill="purple" fill-opacity="0.8972809667673716" r="0.5" /><circle cx="16.5" cy="5.5" fill="purple" fill-opacity="0.8534743202416919" r="0.5" /><circle cx="17.5" cy="5.5" fill="purple" fill-opacity="0.8897280966767371" r="0.5" /><circle cx="18.5" cy="5.5" fill="purple" fill-opacity="0.9214501510574018" r="0.5" /><circle cx="19.5" cy="5.5" fill="purple" fill-opacity="0.8851963746223565" r="0.5" /><circle cx="0.5" cy="6.5" fill="purple" fill-opacity="0.8927492447129909" r="0.5" /><circle cx="1.5" cy="6.5" fill="purple" fill-opacity="0.9501510574018127" r="0.5" /><circle cx="2.5" cy="6.5" fill="purple" fill-opacity="1.0" r="0.5" /><circle cx="3.5" cy="6.5" fill="purple" fill-opacity="0.8746223564954683" r="0.5" /><circle cx="4.5" cy="6.5" fill="purple" fill-opacity="0.8836858006042296" r="0.5" /><circle cx="5.5" cy="6.5" fill="purple" fill-opacity="0.8746223564954683" r="0.5" /><circle cx="6.5" cy="6.5" fill="purple" fill-opacity="0.8957703927492447" r="0.5" /><circle cx="7.5" cy="6.5" fill="purple" fill-opacity="0.8912386706948641" r="0.5" /><circle cx="8.5" cy="6.5" fill="purple" fill-opacity="0.8489425981873112" r="0.5" /><circle cx="9.5" cy="6.5" fill="purple" fill-opacity="0.9667673716012085" r="0.5" /><circle cx="10.5" cy="6.5" fill="purple" fill-opacity="0.8987915407854985" r="0.5" /><circle cx="11.5" cy="6.5" fill="purple" fill-opacity="0.918429003021148" r="0.5" /><circle cx="12.5" cy="6.5" fill="purple" fill-opacity="0.9018126888217523" r="0.5" /><circle cx="13.5" cy="6.5" fill="purple" fill-opacity="0.8353474320241692" r="0.5" /><circle cx="14.5" cy="6.5" fill="purple" fill-opacity="0.9259818731117825" r="0.5" /><circle cx="15.5" cy="6.5" fill="purple" fill-opacity="0.9138972809667674" r="0.5" /><circle cx="16.5" cy="6.5" fill="purple" fill-opacity="0.8368580060422961" r="0.5" /><circle cx="17.5" cy="6.5" fill="purple" fill-opacity="0.7930513595166163" r="0.5" /><circle cx="18.5" cy="6.5" fill="purple" fill-opacity="0.9667673716012085" r="0.5" /><circle cx="19.5" cy="6.5" fill="purple" fill-opacity="0.8821752265861027" r="0.5" /><circle cx="0.5" cy="7.5" fill="purple" fill-opacity="0.8700906344410876" r="0.5" /><circle cx="1.5" cy="7.5" fill="purple" fill-opacity="0.9154078549848943" r="0.5" /><circle cx="2.5" cy="7.5" fill="purple" fill-opacity="0.8066465256797583" r="0.5" /><circle cx="3.5" cy="7.5" fill="purple" fill-opacity="0.8897280966767371" r="0.5" /><circle cx="4.5" cy="7.5" fill="purple" fill-opacity="0.8610271903323263" r="0.5" /><circle cx="5.5" cy="7.5" fill="purple" fill-opacity="0.9380664652567976" r="0.5" /><circle cx="6.5" cy="7.5" fill="purple" fill-opacity="0.9093655589123867" r="0.5" /><circle cx="7.5" cy="7.5" fill="purple" fill-opacity="0.8942598187311178" r="0.5" /><circle cx="8.5" cy="7.5" fill="purple" fill-opacity="0.879154078549849" r="0.5" /><circle cx="9.5" cy="7.5" fill="purple" fill-opacity="0.9531722054380665" r="0.5" /><circle cx="10.5" cy="7.5" fill="purple" fill-opacity="0.8157099697885196" r="0.5" /><circle cx="11.5" cy="7.5" fill="purple" fill-opacity="0.904833836858006" r="0.5" /><circle cx="12.5" cy="7.5" fill="purple" fill-opacity="0.9123867069486404" r="0.5" /><circle cx="13.5" cy="7.5" fill="purple" fill-opacity="0.9229607250755287" r="0.5" /><circle cx="14.5" cy="7.5" fill="purple" fill-opacity="0.8534743202416919" r="0.5" /><circle cx="15.5" cy="7.5" fill="purple" fill-opacity="0.9803625377643505" r="0.5" /><circle cx="16.5" cy="7.5" fill="purple" fill-opacity="0.8172205438066465" r="0.5" /><circle cx="17.5" cy="7.5" fill="purple" fill-opacity="0.8821752265861027" r="0.5" /><circle cx="18.5" cy="7.5" fill="purple" fill-opacity="0.8187311178247734" r="0.5" /><circle cx="19.5" cy="7.5" fill="purple" fill-opacity="0.8308157099697885" r="0.5" /><circle cx="0.5" cy="8.5" fill="purple" fill-opacity="0.8836858006042296" r="0.5" /><circle cx="1.5" cy="8.5" fill="purple" fill-opacity="0.8731117824773413" r="0.5" /><circle cx="2.5" cy="8.5" fill="purple" fill-opacity="0.8610271903323263" r="0.5" /><circle cx="3.5" cy="8.5" fill="purple" fill-opacity="0.8308157099697885" r="0.5" /><circle cx="4.5" cy="8.5" fill="purple" fill-opacity="0.8867069486404834" r="0.5" /><circle cx="5.5" cy="8.5" fill="purple" fill-opacity="0.9546827794561934" r="0.5" /><circle cx="6.5" cy="8.5" fill="purple" fill-opacity="0.8534743202416919" r="0.5" /><circle cx="7.5" cy="8.5" fill="purple" fill-opacity="0.9123867069486404" r="0.5" /><circle cx="8.5" cy="8.5" fill="purple" fill-opacity="0.879154078549849" r="0.5" /><circle cx="9.5" cy="8.5" fill="purple" fill-opacity="0.8972809667673716" r="0.5" /><circle cx="10.5" cy="8.5" fill="purple" fill-opacity="0.9350453172205438" r="0.5" /><circle cx="11.5" cy="8.5" fill="purple" fill-opacity="0.8383685800604229" r="0.5" /><circle cx="12.5" cy="8.5" fill="purple" fill-opacity="0.877643504531722" r="0.5" /><circle cx="13.5" cy="8.5" fill="purple" fill-opacity="0.9063444108761329" r="0.5" /><circle cx="14.5" cy="8.5" fill="purple" fill-opacity="0.879154078549849" r="0.5" /><circle cx="15.5" cy="8.5" fill="purple" fill-opacity="0.8580060422960725" r="0.5" /><circle cx="16.5" cy="8.5" fill="purple" fill-opacity="0.8580060422960725" r="0.5" /><circle cx="17.5" cy="8.5" fill="purple" fill-opacity="0.8746223564954683" r="0.5" /><circle cx="18.5" cy="8.5" fill="purple" fill-opacity="0.8972809667673716" r="0.5" /><circle cx="19.5" cy="8.5" fill="purple" fill-opacity="0.8957703927492447" r="0.5" /><circle cx="0.5" cy="9.5" fill="purple" fill-opacity="0.8640483383685801" r="0.5" /><circle cx="1.5" cy="9.5" fill="purple" fill-opacity="0.8277945619335347" r="0.5" /><circle cx="2.5" cy="9.5" fill="purple" fill-opacity="0.9229607250755287" r="0.5" /><circle cx="3.5" cy="9.5" fill="purple" fill-opacity="0.8640483383685801" r="0.5" /><circle cx="4.5" cy="9.5" fill="purple" fill-opacity="0.8927492447129909" r="0.5" /><circle cx="5.5" cy="9.5" fill="purple" fill-opacity="0.9229607250755287" r="0.5" /><circle cx="6.5" cy="9.5" fill="purple" fill-opacity="0.9773413897280967" r="0.5" /><circle cx="7.5" cy="9.5" fill="purple" fill-opacity="0.8987915407854985" r="0.5" /><circle cx="8.5" cy="9.5" fill="purple" fill-opacity="0.9305135951661632" r="0.5" /><circle cx="9.5" cy="9.5" fill="purple" fill-opacity="0.9003021148036254" r="0.5" /><circle cx="10.5" cy="9.5" fill="purple" fill-opacity="0.9229607250755287" r="0.5" /><circle cx="11.5" cy="9.5" fill="purple" fill-opacity="0.8882175226586103" r="0.5" /><circle cx="12.5" cy="9.5" fill="purple" fill-opacity="0.918429003021148" r="0.5" /><circle cx="13.5" cy="9.5" fill="purple" fill-opacity="0.8353474320241692" r="0.5" /><circle cx="14.5" cy="9.5" fill="purple" fill-opacity="0.8413897280966768" r="0.5" /><circle cx="15.5" cy="9.5" fill="purple" fill-opacity="0.8413897280966768" r="0.5" /><circle cx="16.5" cy="9.5" fill="purple" fill-opacity="0.8716012084592145" r="0.5" /><circle cx="17.5" cy="9.5" fill="purple" fill-opacity="0.9305135951661632" r="0.5" /><circle cx="18.5" cy="9.5" fill="purple" fill-opacity="0.9093655589123867" r="0.5" /><circle cx="19.5" cy="9.5" fill="purple" fill-opacity="0.8882175226586103" r="0.5" /><circle cx="0.5" cy="10.5" fill="purple" fill-opacity="0.8640483383685801" r="0.5" /><circle cx="1.5" cy="10.5" fill="purple" fill-opacity="0.93202416918429" r="0.5" /><circle cx="2.5" cy="10.5" fill="purple" fill-opacity="0.8867069486404834" r="0.5" /><circle cx="3.5" cy="10.5" fill="purple" fill-opacity="0.9199395770392749" r="0.5" /><circle cx="4.5" cy="10.5" fill="purple" fill-opacity="0.9093655589123867" r="0.5" /><circle cx="5.5" cy="10.5" fill="purple" fill-opacity="0.8821752265861027" r="0.5" /><circle cx="6.5" cy="10.5" fill="purple" fill-opacity="0.9214501510574018" r="0.5" /><circle cx="7.5" cy="10.5" fill="purple" fill-opacity="0.8716012084592145" r="0.5" /><circle cx="8.5" cy="10.5" fill="purple" fill-opacity="0.8821752265861027" r="0.5" /><circle cx="9.5" cy="10.5" fill="purple" fill-opacity="0.8564954682779456" r="0.5" /><circle cx="10.5" cy="10.5" fill="purple" fill-opacity="0.9290030211480362" r="0.5" /><circle cx="11.5" cy="10.5" fill="purple" fill-opacity="0.877643504531722" r="0.5" /><circle cx="12.5" cy="10.5" fill="purple" fill-opacity="0.9138972809667674" r="0.5" /><circle cx="13.5" cy="10.5" fill="purple" fill-opacity="0.8398791540785498" r="0.5" /><circle cx="14.5" cy="10.5" fill="purple" fill-opacity="0.9305135951661632" r="0.5" /><circle cx="15.5" cy="10.5" fill="purple" fill-opacity="0.8368580060422961" r="0.5" /><circle cx="16.5" cy="10.5" fill="purple" fill-opacity="0.9501510574018127" r="0.5" /><circle cx="17.5" cy="10.5" fill="purple" fill-opacity="0.8882175226586103" r="0.5" /><circle cx="18.5" cy="10.5" fill="purple" fill-opacity="0.9078549848942599" r="0.5" /><circle cx="19.5" cy="10.5" fill="purple" fill-opacity="0.9229607250755287" r="0.5" /><circle cx="0.5" cy="11.5" fill="purple" fill-opacity="0.8836858006042296" r="0.5" /><circle cx="1.5" cy="11.5" fill="purple" fill-opacity="0.9652567975830816" r="0.5" /><circle cx="2.5" cy="11.5" fill="purple" fill-opacity="0.8957703927492447" r="0.5" /><circle cx="3.5" cy="11.5" fill="purple" fill-opacity="0.8821752265861027" r="0.5" /><circle cx="4.5" cy="11.5" fill="purple" fill-opacity="0.879154078549849" r="0.5" /><circle cx="5.5" cy="11.5" fill="purple" fill-opacity="0.8580060422960725" r="0.5" /><circle cx="6.5" cy="11.5" fill="purple" fill-opacity="0.8987915407854985" r="0.5" /><circle cx="7.5" cy="11.5" fill="purple" fill-opacity="0.9003021148036254" r="0.5" /><circle cx="8.5" cy="11.5" fill="purple" fill-opacity="0.9425981873111783" r="0.5" /><circle cx="9.5" cy="11.5" fill="purple" fill-opacity="0.9350453172205438" r="0.5" /><circle cx="10.5" cy="11.5" fill="purple" fill-opacity="0.947129909365559" r="0.5" /><circle cx="11.5" cy="11.5" fill="purple" fill-opacity="0.9123867069486404" r="0.5" /><circle cx="12.5" cy="11.5" fill="purple" fill-opacity="0.8595166163141994" r="0.5" /><circle cx="13.5" cy="11.5" fill="purple" fill-opacity="0.8323262839879154" r="0.5" /><circle cx="14.5" cy="11.5" fill="purple" fill-opacity="0.8987915407854985" r="0.5" /><circle cx="15.5" cy="11.5" fill="purple" fill-opacity="0.8851963746223565" r="0.5" /><circle cx="16.5" cy="11.5" fill="purple" fill-opacity="0.9425981873111783" r="0.5" /><circle cx="17.5" cy="11.5" fill="purple" fill-opacity="0.9244712990936556" r="0.5" /><circle cx="18.5" cy="11.5" fill="purple" fill-opacity="0.9033232628398792" r="0.5" /><circle cx="19.5" cy="11.5" fill="purple" fill-opacity="0.918429003021148" r="0.5" /><circle cx="0.5" cy="12.5" fill="purple" fill-opacity="0.8867069486404834" r="0.5" /><circle cx="1.5" cy="12.5" fill="purple" fill-opacity="0.9274924471299094" r="0.5" /><circle cx="2.5" cy="12.5" fill="purple" fill-opacity="0.9169184290030211" r="0.5" /><circle cx="3.5" cy="12.5" fill="purple" fill-opacity="0.8126888217522659" r="0.5" /><circle cx="4.5" cy="12.5" fill="purple" fill-opacity="0.9199395770392749" r="0.5" /><circle cx="5.5" cy="12.5" fill="purple" fill-opacity="0.8867069486404834" r="0.5" /><circle cx="6.5" cy="12.5" fill="purple" fill-opacity="0.918429003021148" r="0.5" /><circle cx="7.5" cy="12.5" fill="purple" fill-opacity="0.9380664652567976" r="0.5" /><circle cx="8.5" cy="12.5" fill="purple" fill-opacity="0.8595166163141994" r="0.5" /><circle cx="9.5" cy="12.5" fill="purple" fill-opacity="0.8851963746223565" r="0.5" /><circle cx="10.5" cy="12.5" fill="purple" fill-opacity="0.8217522658610272" r="0.5" /><circle cx="11.5" cy="12.5" fill="purple" fill-opacity="0.8806646525679759" r="0.5" /><circle cx="12.5" cy="12.5" fill="purple" fill-opacity="0.9199395770392749" r="0.5" /><circle cx="13.5" cy="12.5" fill="purple" fill-opacity="0.9093655589123867" r="0.5" /><circle cx="14.5" cy="12.5" fill="purple" fill-opacity="0.8398791540785498" r="0.5" /><circle cx="15.5" cy="12.5" fill="purple" fill-opacity="0.8731117824773413" r="0.5" /><circle cx="16.5" cy="12.5" fill="purple" fill-opacity="0.8761329305135952" r="0.5" /><circle cx="17.5" cy="12.5" fill="purple" fill-opacity="0.9561933534743202" r="0.5" /><circle cx="18.5" cy="12.5" fill="purple" fill-opacity="0.9138972809667674" r="0.5" /><circle cx="19.5" cy="12.5" fill="purple" fill-opacity="0.9078549848942599" r="0.5" /><circle cx="0.5" cy="13.5" fill="purple" fill-opacity="0.8942598187311178" r="0.5" /><circle cx="1.5" cy="13.5" fill="purple" fill-opacity="0.974320241691843" r="0.5" /><circle cx="2.5" cy="13.5" fill="purple" fill-opacity="0.8746223564954683" r="0.5" /><circle cx="3.5" cy="13.5" fill="purple" fill-opacity="0.8761329305135952" r="0.5" /><circle cx="4.5" cy="13.5" fill="purple" fill-opacity="0.9244712990936556" r="0.5" /><circle cx="5.5" cy="13.5" fill="purple" fill-opacity="0.8685800604229608" r="0.5" /><circle cx="6.5" cy="13.5" fill="purple" fill-opacity="0.9199395770392749" r="0.5" /><circle cx="7.5" cy="13.5" fill="purple" fill-opacity="0.9637462235649547" r="0.5" /><circle cx="8.5" cy="13.5" fill="purple" fill-opacity="0.8413897280966768" r="0.5" /><circle cx="9.5" cy="13.5" fill="purple" fill-opacity="0.8670694864048338" r="0.5" /><circle cx="10.5" cy="13.5" fill="purple" fill-opacity="0.9214501510574018" r="0.5" /><circle cx="11.5" cy="13.5" fill="purple" fill-opacity="0.8942598187311178" r="0.5" /><circle cx="12.5" cy="13.5" fill="purple" fill-opacity="0.8429003021148036" r="0.5" /><circle cx="13.5" cy="13.5" fill="purple" fill-opacity="0.8987915407854985" r="0.5" /><circle cx="14.5" cy="13.5" fill="purple" fill-opacity="0.8912386706948641" r="0.5" /><circle cx="15.5" cy="13.5" fill="purple" fill-opacity="0.9169184290030211" r="0.5" /><circle cx="16.5" cy="13.5" fill="purple" fill-opacity="0.8942598187311178" r="0.5" /><circle cx="17.5" cy="13.5" fill="purple" fill-opacity="0.8761329305135952" r="0.5" /><circle cx="18.5" cy="13.5" fill="purple" fill-opacity="0.9003021148036254" r="0.5" /><circle cx="19.5" cy="13.5" fill="purple" fill-opacity="0.8353474320241692" r="0.5" /><circle cx="0.5" cy="14.5" fill="purple" fill-opacity="0.9154078549848943" r="0.5" /><circle cx="1.5" cy="14.5" fill="purple" fill-opacity="0.8640483383685801" r="0.5" /><circle cx="2.5" cy="14.5" fill="purple" fill-opacity="0.823262839879154" r="0.5" /><circle cx="3.5" cy="14.5" fill="purple" fill-opacity="0.8429003021148036" r="0.5" /><circle cx="4.5" cy="14.5" fill="purple" fill-opacity="0.8957703927492447" r="0.5" /><circle cx="5.5" cy="14.5" fill="purple" fill-opacity="0.9169184290030211" r="0.5" /><circle cx="6.5" cy="14.5" fill="purple" fill-opacity="0.8851963746223565" r="0.5" /><circle cx="7.5" cy="14.5" fill="purple" fill-opacity="0.8731117824773413" r="0.5" /><circle cx="8.5" cy="14.5" fill="purple" fill-opacity="0.904833836858006" r="0.5" /><circle cx="9.5" cy="14.5" fill="purple" fill-opacity="0.8867069486404834" r="0.5" /><circle cx="10.5" cy="14.5" fill="purple" fill-opacity="0.9154078549848943" r="0.5" /><circle cx="11.5" cy="14.5" fill="purple" fill-opacity="0.877643504531722" r="0.5" /><circle cx="12.5" cy="14.5" fill="purple" fill-opacity="0.9154078549848943" r="0.5" /><circle cx="13.5" cy="14.5" fill="purple" fill-opacity="0.9018126888217523" r="0.5" /><circle cx="14.5" cy="14.5" fill="purple" fill-opacity="0.9033232628398792" r="0.5" /><circle cx="15.5" cy="14.5" fill="purple" fill-opacity="0.9033232628398792" r="0.5" /><circle cx="16.5" cy="14.5" fill="purple" fill-opacity="0.8308157099697885" r="0.5" /><circle cx="17.5" cy="14.5" fill="purple" fill-opacity="0.8489425981873112" r="0.5" /><circle cx="18.5" cy="14.5" fill="purple" fill-opacity="0.9305135951661632" r="0.5" /><circle cx="19.5" cy="14.5" fill="purple" fill-opacity="0.879154078549849" r="0.5" /><circle cx="0.5" cy="15.5" fill="purple" fill-opacity="0.8655589123867069" r="0.5" /><circle cx="1.5" cy="15.5" fill="purple" fill-opacity="0.9093655589123867" r="0.5" /><circle cx="2.5" cy="15.5" fill="purple" fill-opacity="0.9577039274924471" r="0.5" /><circle cx="3.5" cy="15.5" fill="purple" fill-opacity="0.9169184290030211" r="0.5" /><circle cx="4.5" cy="15.5" fill="purple" fill-opacity="0.8836858006042296" r="0.5" /><circle cx="5.5" cy="15.5" fill="purple" fill-opacity="0.9410876132930514" r="0.5" /><circle cx="6.5" cy="15.5" fill="purple" fill-opacity="0.959214501510574" r="0.5" /><circle cx="7.5" cy="15.5" fill="purple" fill-opacity="0.8459214501510574" r="0.5" /><circle cx="8.5" cy="15.5" fill="purple" fill-opacity="0.9063444108761329" r="0.5" /><circle cx="9.5" cy="15.5" fill="purple" fill-opacity="0.8474320241691843" r="0.5" /><circle cx="10.5" cy="15.5" fill="purple" fill-opacity="0.904833836858006" r="0.5" /><circle cx="11.5" cy="15.5" fill="purple" fill-opacity="0.9637462235649547" r="0.5" /><circle cx="12.5" cy="15.5" fill="purple" fill-opacity="0.9274924471299094" r="0.5" /><circle cx="13.5" cy="15.5" fill="purple" fill-opacity="0.8474320241691843" r="0.5" /><circle cx="14.5" cy="15.5" fill="purple" fill-opacity="0.8897280966767371" r="0.5" /><circle cx="15.5" cy="15.5" fill="purple" fill-opacity="0.877643504531722" r="0.5" /><circle cx="16.5" cy="15.5" fill="purple" fill-opacity="0.9410876132930514" r="0.5" /><circle cx="17.5" cy="15.5" fill="purple" fill-opacity="0.8111782477341389" r="0.5" /><circle cx="18.5" cy="15.5" fill="purple" fill-opacity="0.9154078549848943" r="0.5" /><circle cx="19.5" cy="15.5" fill="purple" fill-opacity="0.8716012084592145" r="0.5" /><circle cx="0.5" cy="16.5" fill="purple" fill-opacity="0.8187311178247734" r="0.5" /><circle cx="1.5" cy="16.5" fill="purple" fill-opacity="0.904833836858006" r="0.5" /><circle cx="2.5" cy="16.5" fill="purple" fill-opacity="0.904833836858006" r="0.5" /><circle cx="3.5" cy="16.5" fill="purple" fill-opacity="0.8580060422960725" r="0.5" /><circle cx="4.5" cy="16.5" fill="purple" fill-opacity="0.8489425981873112" r="0.5" /><circle cx="5.5" cy="16.5" fill="purple" fill-opacity="0.8942598187311178" r="0.5" /><circle cx="6.5" cy="16.5" fill="purple" fill-opacity="0.8882175226586103" r="0.5" /><circle cx="7.5" cy="16.5" fill="purple" fill-opacity="0.8323262839879154" r="0.5" /><circle cx="8.5" cy="16.5" fill="purple" fill-opacity="0.8972809667673716" r="0.5" /><circle cx="9.5" cy="16.5" fill="purple" fill-opacity="0.8368580060422961" r="0.5" /><circle cx="10.5" cy="16.5" fill="purple" fill-opacity="0.8685800604229608" r="0.5" /><circle cx="11.5" cy="16.5" fill="purple" fill-opacity="0.8580060422960725" r="0.5" /><circle cx="12.5" cy="16.5" fill="purple" fill-opacity="0.8353474320241692" r="0.5" /><circle cx="13.5" cy="16.5" fill="purple" fill-opacity="0.8957703927492447" r="0.5" /><circle cx="14.5" cy="16.5" fill="purple" fill-opacity="0.9033232628398792" r="0.5" /><circle cx="15.5" cy="16.5" fill="purple" fill-opacity="0.8338368580060423" r="0.5" /><circle cx="16.5" cy="16.5" fill="purple" fill-opacity="0.9003021148036254" r="0.5" /><circle cx="17.5" cy="16.5" fill="purple" fill-opacity="0.8836858006042296" r="0.5" /><circle cx="18.5" cy="16.5" fill="purple" fill-opacity="0.8716012084592145" r="0.5" /><circle cx="19.5" cy="16.5" fill="purple" fill-opacity="0.9350453172205438" r="0.5" /><circle cx="0.5" cy="17.5" fill="purple" fill-opacity="0.9003021148036254" r="0.5" /><circle cx="1.5" cy="17.5" fill="purple" fill-opacity="0.9154078549848943" r="0.5" /><circle cx="2.5" cy="17.5" fill="purple" fill-opacity="0.9939577039274925" r="0.5" /><circle cx="3.5" cy="17.5" fill="purple" fill-opacity="0.9078549848942599" r="0.5" /><circle cx="4.5" cy="17.5" fill="purple" fill-opacity="0.9093655589123867" r="0.5" /><circle cx="5.5" cy="17.5" fill="purple" fill-opacity="0.8383685800604229" r="0.5" /><circle cx="6.5" cy="17.5" fill="purple" fill-opacity="0.8806646525679759" r="0.5" /><circle cx="7.5" cy="17.5" fill="purple" fill-opacity="0.823262839879154" r="0.5" /><circle cx="8.5" cy="17.5" fill="purple" fill-opacity="0.879154078549849" r="0.5" /><circle cx="9.5" cy="17.5" fill="purple" fill-opacity="0.8972809667673716" r="0.5" /><circle cx="10.5" cy="17.5" fill="purple" fill-opacity="0.8897280966767371" r="0.5" /><circle cx="11.5" cy="17.5" fill="purple" fill-opacity="0.8217522658610272" r="0.5" /><circle cx="12.5" cy="17.5" fill="purple" fill-opacity="0.9395770392749244" r="0.5" /><circle cx="13.5" cy="17.5" fill="purple" fill-opacity="0.9259818731117825" r="0.5" /><circle cx="14.5" cy="17.5" fill="purple" fill-opacity="0.8867069486404834" r="0.5" /><circle cx="15.5" cy="17.5" fill="purple" fill-opacity="0.8655589123867069" r="0.5" /><circle cx="16.5" cy="17.5" fill="purple" fill-opacity="0.8700906344410876" r="0.5" /><circle cx="17.5" cy="17.5" fill="purple" fill-opacity="0.8942598187311178" r="0.5" /><circle cx="18.5" cy="17.5" fill="purple" fill-opacity="0.851963746223565" r="0.5" /><circle cx="19.5" cy="17.5" fill="purple" fill-opacity="0.8716012084592145" r="0.5" /><circle cx="0.5" cy="18.5" fill="purple" fill-opacity="0.8277945619335347" r="0.5" /><circle cx="1.5" cy="18.5" fill="purple" fill-opacity="0.9018126888217523" r="0.5" /><circle cx="2.5" cy="18.5" fill="purple" fill-opacity="0.8398791540785498" r="0.5" /><circle cx="3.5" cy="18.5" fill="purple" fill-opacity="0.8096676737160121" r="0.5" /><circle cx="4.5" cy="18.5" fill="purple" fill-opacity="0.8595166163141994" r="0.5" /><circle cx="5.5" cy="18.5" fill="purple" fill-opacity="0.8670694864048338" r="0.5" /><circle cx="6.5" cy="18.5" fill="purple" fill-opacity="0.8172205438066465" r="0.5" /><circle cx="7.5" cy="18.5" fill="purple" fill-opacity="0.9033232628398792" r="0.5" /><circle cx="8.5" cy="18.5" fill="purple" fill-opacity="0.824773413897281" r="0.5" /><circle cx="9.5" cy="18.5" fill="purple" fill-opacity="0.8187311178247734" r="0.5" /><circle cx="10.5" cy="18.5" fill="purple" fill-opacity="0.8927492447129909" r="0.5" /><circle cx="11.5" cy="18.5" fill="purple" fill-opacity="0.8081570996978852" r="0.5" /><circle cx="12.5" cy="18.5" fill="purple" fill-opacity="0.9697885196374623" r="0.5" /><circle cx="13.5" cy="18.5" fill="purple" fill-opacity="0.9516616314199395" r="0.5" /><circle cx="14.5" cy="18.5" fill="purple" fill-opacity="0.945619335347432" r="0.5" /><circle cx="15.5" cy="18.5" fill="purple" fill-opacity="0.877643504531722" r="0.5" /><circle cx="16.5" cy="18.5" fill="purple" fill-opacity="0.8821752265861027" r="0.5" /><circle cx="17.5" cy="18.5" fill="purple" fill-opacity="0.8897280966767371" r="0.5" /><circle cx="18.5" cy="18.5" fill="purple" fill-opacity="0.9274924471299094" r="0.5" /><circle cx="19.5" cy="18.5" fill="purple" fill-opacity="0.8383685800604229" r="0.5" /><circle cx="0.5" cy="19.5" fill="purple" fill-opacity="0.8625377643504532" r="0.5" /><circle cx="1.5" cy="19.5" fill="purple" fill-opacity="0.9108761329305136" r="0.5" /><circle cx="2.5" cy="19.5" fill="purple" fill-opacity="0.879154078549849" r="0.5" /><circle cx="3.5" cy="19.5" fill="purple" fill-opacity="0.9712990936555891" r="0.5" /><circle cx="4.5" cy="19.5" fill="purple" fill-opacity="0.8564954682779456" r="0.5" /><circle cx="5.5" cy="19.5" fill="purple" fill-opacity="0.8595166163141994" r="0.5" /><circle cx="6.5" cy="19.5" fill="purple" fill-opacity="0.879154078549849" r="0.5" /><circle cx="7.5" cy="19.5" fill="purple" fill-opacity="0.9033232628398792" r="0.5" /><circle cx="8.5" cy="19.5" fill="purple" fill-opacity="0.9667673716012085" r="0.5" /><circle cx="9.5" cy="19.5" fill="purple" fill-opacity="0.8957703927492447" r="0.5" /><circle cx="10.5" cy="19.5" fill="purple" fill-opacity="0.8489425981873112" r="0.5" /><circle cx="11.5" cy="19.5" fill="purple" fill-opacity="0.9244712990936556" r="0.5" /><circle cx="12.5" cy="19.5" fill="purple" fill-opacity="0.9848942598187311" r="0.5" /><circle cx="13.5" cy="19.5" fill="purple" fill-opacity="0.9214501510574018" r="0.5" /><circle cx="14.5" cy="19.5" fill="purple" fill-opacity="0.8610271903323263" r="0.5" /><circle cx="15.5" cy="19.5" fill="purple" fill-opacity="0.9274924471299094" r="0.5" /><circle cx="16.5" cy="19.5" fill="purple" fill-opacity="0.9516616314199395" r="0.5" /><circle cx="17.5" cy="19.5" fill="purple" fill-opacity="0.8368580060422961" r="0.5" /><circle cx="18.5" cy="19.5" fill="purple" fill-opacity="0.8580060422960725" r="0.5" /><circle cx="19.5" cy="19.5" fill="purple" fill-opacity="0.9018126888217523" r="0.5" /></svg>